<svg xmlns="http://www.w3.org/2000/svg" viewBox="0 0 397.35 287.08"><defs><style>.a,.i,.q{font-size:7px;}.a,.k{fill:#808386;}.a,.h,.i,.s{font-family:Lato-Bold, Lato;}.b,.c,.d,.e,.f,.h,.j,.r{font-weight:700;}.b{letter-spacing:0em;}.d{letter-spacing:-0.01em;}.e{letter-spacing:-0.01em;}.f{letter-spacing:0em;}.g,.k,.m{font-family:Lato-Regular, Lato;}.h,.r{font-size:8px;}.h,.i,.r{fill:#e83c58;}.j{letter-spacing:0em;}.l,.n{fill:none;}.l{stroke:#000;stroke-miterlimit:10;}.m{font-size:9px;}.m,.q{fill:#1d1d1b;}.n{stroke:#666;stroke-linecap:round;stroke-linejoin:round;stroke-width:0.75px;stroke-dasharray:0 2;}.o{fill:#6f7190;}.o,.p{opacity:0.5;}.p{fill:#2a82c5;}.q{font-family:ProximaNova-Regular, Proxima Nova;}.r{font-family:ProximaNova-Bold, Proxima Nova;}.az,.s{font-size:10px;}.s{fill:#0e72ba;}.t{letter-spacing:-0.01em;}.u{letter-spacing:-0.01em;}.v{letter-spacing:-0.01em;}.w{letter-spacing:0em;}.x{letter-spacing:-0.04em;}.y{letter-spacing:0em;}.z{letter-spacing:0em;}.aa{letter-spacing:-0.03em;}.ab{letter-spacing:-0.02em;}.ac{letter-spacing:-0.01em;}.ad{letter-spacing:0em;}.ae{letter-spacing:0em;}.af{letter-spacing:-0.02em;}.ag{letter-spacing:0em;}.ah{letter-spacing:-0.01em;}.ai{letter-spacing:-0.02em;}.aj{letter-spacing:-0.01em;}.ak{letter-spacing:-0.01em;}.al{letter-spacing:-0.01em;}.am{letter-spacing:0em;}.an{letter-spacing:-0.01em;}.ao,.az{font-family:Lato-Light, Lato;}.ap{letter-spacing:-0.01em;}.aq{letter-spacing:-0.04em;}.ar{letter-spacing:-0.03em;}.as{letter-spacing:-0.01em;}.at{letter-spacing:-0.01em;}.au,.av,.aw,.ax,.ay{font-family:Lato-LightItalic, Lato;font-style:italic;}.av,.aw,.ax,.ay{fill:#006ab4;}.av{letter-spacing:-0.01em;}.ax{letter-spacing:-0.02em;}.ay{letter-spacing:0em;}.az{fill:#010101;}.ba{letter-spacing:0em;}.bb{letter-spacing:-0.03em;}</style></defs><title>area-chart</title><text class="a" transform="translate(0 285.08)"><tspan class="b">S</tspan><tspan class="c" x="3.83" y="0">ou</tspan><tspan class="d" x="11.8" y="0">r</tspan><tspan class="e" x="14.31" y="0">c</tspan><tspan class="f" x="17.62" y="0">e:</tspan><tspan class="g" x="23.16" y="0" xml:space="preserve"> UNHCR</tspan></text><text class="h" transform="translate(67.5 282.42) scale(0.58)">a</text><text class="i" transform="translate(69.87 285.08)"><tspan class="j"> </tspan><tspan class="k" x="1.7" y="0">IDMC</tspan></text><line class="l" x1="1" y1="263.01" x2="383.16" y2="263.01"/><text class="m" transform="translate(389.52 266.98)">0</text><text class="m" transform="translate(386.91 228.02)">10</text><text class="m" transform="translate(386.91 189.06)">20</text><text class="m" transform="translate(386.91 150.1)">30</text><text class="m" transform="translate(386.91 111.14)">40</text><text class="m" transform="translate(386.91 72.19)">50</text><line class="n" x1="1" y1="224.05" x2="383.16" y2="224.05"/><line class="n" x1="1" y1="185.09" x2="383.16" y2="185.09"/><line class="n" x1="1" y1="146.14" x2="383.16" y2="146.14"/><line class="n" x1="1" y1="107.18" x2="383.16" y2="107.18"/><line class="n" x1="1" y1="68.22" x2="383.16" y2="68.22"/><polygon class="o" points="374.06 263.01 10.1 263.01 10.1 186.26 28.3 195.22 46.5 187.82 64.69 180.03 82.89 180.42 101.09 165.61 119.29 165.61 137.49 167.17 155.69 164.44 173.88 172.24 192.08 167.95 210.28 161.72 228.48 161.72 246.68 157.82 264.87 155.88 283.07 160.16 301.27 150.81 319.47 133.28 337.67 114.97 355.87 104.06 374.06 106.01 374.06 263.01"/><polygon class="p" points="374.06 263.01 10.1 263.01 10.1 243.92 28.3 245.09 46.5 243.14 64.69 247.43 82.89 239.63 101.09 243.14 119.29 245.09 137.49 246.65 155.69 241.97 173.88 237.3 192.08 213.14 210.28 209.64 228.48 206.91 246.68 202.23 264.87 205.74 283.07 202.62 301.27 194.05 319.47 169.9 337.67 137.18 355.87 116.92 374.06 120.42 374.06 263.01"/><text class="m" transform="translate(367.93 274.74)">&apos;16</text><text class="m" transform="translate(349.73 274.74)">&apos;15</text><text class="m" transform="translate(331.53 274.74)">&apos;14</text><text class="m" transform="translate(313.33 274.74)">&apos;13</text><text class="m" transform="translate(295.13 274.74)">&apos;12</text><text class="m" transform="translate(276.93 274.74)">&apos;11</text><text class="m" transform="translate(258.74 274.74)">&apos;10</text><text class="m" transform="translate(240.54 274.74)">&apos;09</text><text class="m" transform="translate(222.34 274.74)">&apos;08</text><text class="m" transform="translate(204.14 274.74)">&apos;07</text><text class="m" transform="translate(185.94 274.74)">&apos;06</text><text class="m" transform="translate(167.75 274.74)">&apos;05</text><text class="m" transform="translate(149.55 274.74)">&apos;04</text><text class="m" transform="translate(131.35 274.74)">&apos;03</text><text class="m" transform="translate(113.15 274.74)">&apos;02</text><text class="m" transform="translate(94.95 274.74)">&apos;01</text><text class="m" transform="translate(76.75 274.74)">&apos;00</text><text class="m" transform="translate(58.56 274.74)">&apos;99</text><text class="m" transform="translate(40.36 274.74)">&apos;98</text><text class="m" transform="translate(22.16 274.74)">&apos;97</text><text class="m" transform="translate(3.96 274.74)">&apos;96</text><text class="q" transform="translate(241.65 59.32)">Protected by UNHCR</text><rect class="o" x="226.87" y="52.71" width="11.34" height="8.5"/><text class="q" transform="translate(336.53 59.32)">Conflict-generated</text><text class="r" transform="translate(393.66 56.66) scale(0.58)">a</text><rect class="p" x="321.54" y="52.71" width="11.34" height="8.5"/><text class="s" transform="translate(0 23.79)"><tspan class="c">ID<tspan class="t" x="10.57" y="0">P</tspan><tspan x="16.65" y="0">s p</tspan><tspan class="u" x="29.15" y="0">r</tspan><tspan class="v" x="32.73" y="0">o</tspan><tspan class="w" x="38.38" y="0">t</tspan><tspan x="42.06" y="0">ec</tspan><tspan class="w" x="52.22" y="0">t</tspan><tspan x="55.9" y="0">ed</tspan><tspan class="x" x="66.91" y="0">/</tspan><tspan class="y" x="71.15" y="0">assis</tspan><tspan class="z" x="91.95" y="0">t</tspan><tspan x="95.63" y="0">ed </tspan><tspan class="u" x="109.08" y="0">b</tspan><tspan class="aa" x="114.61" y="0">y</tspan><tspan x="119.63" y="0" xml:space="preserve"> UNHCR</tspan><tspan class="ab" x="157.94" y="0"> </tspan><tspan class="ac" x="160.13" y="0">v</tspan><tspan class="ad" x="165.29" y="0">s </tspan><tspan class="ae" x="172.12" y="0">G</tspan><tspan x="179.36" y="0">lobal numbe</tspan><tspan class="af" x="233.92" y="0">r</tspan><tspan class="ag" x="237.44" y="0"> </tspan><tspan class="ah" x="239.87" y="0">o</tspan><tspan class="ai" x="245.49" y="0">f</tspan><tspan x="248.89" y="0"> </tspan><tspan class="aj" x="251.32" y="0">c</tspan><tspan x="256.05" y="0">o</tspan><tspan class="aj" x="261.79" y="0">n</tspan><tspan x="267.34" y="0">flict-</tspan><tspan class="aj" x="288.27" y="0">g</tspan><tspan x="293.46" y="0">ene</tspan><tspan class="ak" x="309.78" y="0">r</tspan><tspan class="al" x="313.45" y="0">a</tspan><tspan class="am" x="318.45" y="0">t</tspan><tspan x="322.13" y="0">ed ID</tspan><tspan class="an" x="346.15" y="0">P</tspan><tspan class="ag" x="352.22" y="0">s</tspan></tspan><tspan class="ao"><tspan x="0" y="12">| </tspan><tspan class="ap" x="5.1" y="12">I</tspan><tspan x="7.63" y="12">ncludes people in an ID</tspan><tspan class="aq" x="108.9" y="12">P</tspan><tspan class="y" x="114.3" y="12">-li</tspan><tspan class="ar" x="122.44" y="12">k</tspan><tspan x="126.88" y="12">e situ</tspan><tspan class="as" x="150.2" y="12">a</tspan><tspan class="y" x="154.99" y="12">tion sin</tspan><tspan class="at" x="186.58" y="12">c</tspan><tspan class="y" x="191.2" y="12">e 2007</tspan><tspan class="au" x="222.33" y="12">, </tspan><tspan class="av" x="226.97" y="12">(</tspan><tspan class="aw" x="229.34" y="12">million</tspan><tspan class="ax" x="255.84" y="12">s</tspan><tspan class="ay" x="259.58" y="12">)</tspan></tspan></text><text class="az" transform="translate(0 8.54)"><tspan class="ba">F</tspan><tspan x="5.61" y="0">igu</tspan><tspan class="bb" x="18.44" y="0">r</tspan><tspan x="21.69" y="0">e 11</tspan></text></svg>