<svg xmlns="http://www.w3.org/2000/svg" viewBox="0 0 376.94 285.52"><defs><style>.a{font-size:7px;fill:#808386;}.a,.h{font-family:Lato-Bold, Lato;}.b,.c,.d,.e,.f,.i,.j,.k,.l,.m,.n,.o,.p,.q,.r{font-weight:700;}.b{letter-spacing:0em;}.d{letter-spacing:-0.01em;}.e{letter-spacing:-0.01em;}.f{letter-spacing:0em;}.aa,.ac,.ae,.g,.w{font-family:Lato-Regular, Lato;}.h,.t{font-size:10px;}.h{fill:#006ab4;}.i{letter-spacing:-0.01em;}.j{letter-spacing:-0.02em;}.k{letter-spacing:-0.01em;}.l{letter-spacing:-0.02em;}.m{letter-spacing:-0.01em;}.n{letter-spacing:-0.01em;}.o{letter-spacing:-0.01em;}.p{letter-spacing:0em;}.q{letter-spacing:-0.01em;}.r{letter-spacing:0em;}.s,.t{font-family:Lato-Light, Lato;}.t{fill:#010101;}.u{letter-spacing:0em;}.v{letter-spacing:-0.03em;}.ac,.ae,.w{font-size:9px;}.w,.x,.y{fill:none;}.x{stroke:#000;stroke-miterlimit:10;}.z{fill:#2a82c5;}.aa{font-size:9.13px;}.aa,.ac,.ae{fill:#575756;}.ab{fill:#f6c307;}.ad{letter-spacing:-0.01em;}.ae{letter-spacing:-0.01em;}.af{letter-spacing:0em;}.ag{letter-spacing:0em;}.ah{letter-spacing:-0.01em;}.ai{letter-spacing:-0.02em;}.aj{letter-spacing:-0.02em;}.ak{letter-spacing:-0.01em;}.al{letter-spacing:-0.1em;}.am{letter-spacing:-0.03em;}.an{letter-spacing:-0.01em;}.ao{letter-spacing:-0.02em;}.ap{letter-spacing:-0.02em;}.aq{letter-spacing:-0.02em;}.ar{letter-spacing:-0.04em;}</style></defs><title>bar-chart-example-horizontal-highlight</title><text class="a" transform="translate(0 283.52)"><tspan class="b">S</tspan><tspan class="c" x="3.83" y="0">ou</tspan><tspan class="d" x="11.8" y="0">r</tspan><tspan class="e" x="14.31" y="0">c</tspan><tspan class="f" x="17.62" y="0">e:</tspan><tspan class="g" x="23.16" y="0" xml:space="preserve"> UNHCR</tspan></text><text class="h" transform="translate(0 23.79)"><tspan class="i">N</tspan><tspan class="c" x="7.61" y="0">umbe</tspan><tspan class="j" x="32.64" y="0">r</tspan><tspan class="c" x="36.16" y="0"> </tspan><tspan class="k" x="38.59" y="0">o</tspan><tspan class="l" x="44.21" y="0">f</tspan><tspan class="c" x="47.6" y="0"> </tspan><tspan class="m" x="50.03" y="0">r</tspan><tspan class="n" x="53.62" y="0">e</tspan><tspan class="c" x="58.88" y="0">fu</tspan><tspan class="o" x="68.11" y="0">g</tspan><tspan class="c" x="73.3" y="0">ees pe</tspan><tspan class="j" x="101.82" y="0">r</tspan><tspan class="p" x="105.34" y="0" xml:space="preserve"> 1,000 inhabita</tspan><tspan class="q" x="171.65" y="0">n</tspan><tspan class="r" x="177.22" y="0">ts</tspan><tspan class="s" x="185.33" y="0" xml:space="preserve"> | end-2016*</tspan></text><text class="t" transform="translate(0 8.54)"><tspan class="u">F</tspan><tspan x="5.61" y="0">igu</tspan><tspan class="v" x="18.44" y="0">r</tspan><tspan x="21.69" y="0">e 5</tspan></text><text class="w" transform="translate(52.94 271.07)">0</text><text class="w" transform="translate(134.78 271.07)">50</text><text class="w" transform="translate(216.62 271.07)">100</text><text class="w" transform="translate(301.07 271.07)">150</text><line class="x" x1="55.55" y1="260.73" x2="55.55" y2="38.85"/><rect class="y" x="55.55" y="42.04" width="285.71" height="15.8"/><rect class="z" x="55.55" y="42.04" width="285.71" height="15.8"/><text class="aa" transform="translate(344.13 53.56)">169.16</text><rect class="y" x="55.55" y="64.23" width="149.37" height="15.8"/><rect class="ab" x="55.55" y="64.23" width="149.37" height="15.8"/><text class="aa" transform="translate(207.79 75.75)">88.44</text><rect class="y" x="55.55" y="86.42" width="60.87" height="15.8"/><rect class="z" x="55.55" y="86.42" width="60.87" height="15.8"/><text class="aa" transform="translate(119.28 97.94)">36.04</text><rect class="y" x="55.55" y="108.61" width="45.58" height="15.8"/><rect class="z" x="55.55" y="108.61" width="45.58" height="15.8"/><text class="aa" transform="translate(104 120.13)">26.99</text><rect class="y" x="55.55" y="130.8" width="39.46" height="15.8"/><rect class="z" x="55.55" y="130.8" width="39.46" height="15.8"/><text class="aa" transform="translate(97.87 142.32)">23.36</text><rect class="y" x="55.55" y="152.98" width="39.41" height="15.8"/><rect class="z" x="55.55" y="152.98" width="39.41" height="15.8"/><text class="aa" transform="translate(97.82 164.5)">23.33</text><rect class="y" x="55.55" y="175.17" width="34.83" height="15.8"/><rect class="z" x="55.55" y="175.17" width="34.83" height="15.8"/><text class="aa" transform="translate(93.24 186.69)">20.62</text><rect class="y" x="55.55" y="197.36" width="33.2" height="15.8"/><rect class="z" x="55.55" y="197.36" width="33.2" height="15.8"/><text class="aa" transform="translate(91.61 208.88)">19.66</text><rect class="y" x="55.55" y="219.55" width="31.99" height="15.8"/><rect class="z" x="55.55" y="219.55" width="31.99" height="15.8"/><text class="aa" transform="translate(90.41 231.07)">18.94</text><rect class="y" x="55.55" y="241.74" width="30.06" height="15.8"/><rect class="z" x="55.55" y="241.74" width="30.06" height="15.8"/><text class="aa" transform="translate(88.47 253.26)">17.8</text><text class="ac" transform="translate(7.77 255.58)"><tspan class="ad">M</tspan><tspan x="8.22" y="0">auritania</tspan></text><text class="ac" transform="translate(27.75 233.39)"><tspan class="ad">M</tspan><tspan x="8.22" y="0">alta</tspan></text><text class="ae" transform="translate(18.49 211.2)">D<tspan class="af" x="6.75" y="0">jibouti</tspan></text><text class="ac" transform="translate(0.4 189.01)"><tspan class="ag">S</tspan><tspan x="4.86" y="0">outh </tspan><tspan class="ah" x="25.53" y="0">S</tspan><tspan x="30.32" y="0">udan</tspan></text><text class="ac" transform="translate(20.18 166.82)"><tspan class="ai">U</tspan><tspan x="6.4" y="0">ganda</tspan></text><text class="ac" transform="translate(18.97 144.63)"><tspan class="aj">S</tspan><tspan class="ak" x="4.73" y="0">w</tspan><tspan x="11.74" y="0">eden</tspan></text><text class="ac" transform="translate(29.73 122.44)">Chad</text><text class="ac" transform="translate(24.24 100.26)"><tspan class="al">T</tspan><tspan x="4.37" y="0">ur</tspan><tspan class="am" x="12.67" y="0">k</tspan><tspan class="an" x="16.98" y="0">e</tspan><tspan class="ao" x="21.62" y="0">y</tspan></text><text class="ac" transform="translate(23.89 78.07)"><tspan class="ap">J</tspan><tspan x="3.64" y="0">o</tspan><tspan class="aq" x="8.74" y="0">r</tspan><tspan x="11.84" y="0">dan</tspan></text><text class="ac" transform="translate(16.57 55.88)"><tspan class="ar">L</tspan><tspan x="4.29" y="0">ebanon</tspan></text></svg>