<svg xmlns="http://www.w3.org/2000/svg" viewBox="0 0 566.93 425.2"><defs><style>.a{font-size:7px;fill:#808386;}.a,.ad{font-family:Lato-Bold, Lato;}.ae,.af,.ag,.ah,.ai,.aj,.ak,.al,.am,.an,.b,.c,.d,.e,.f{font-weight:700;}.b{letter-spacing:0em;}.d{letter-spacing:-0.01em;}.e{letter-spacing:-0.01em;}.f{letter-spacing:0em;}.av,.be,.g,.m{font-family:Lato-Regular, Lato;}.h{fill:#6f7190;}.i{fill:#1f335b;}.j{fill:#7dc7be;}.k{fill:#f6c307;}.l{fill:#2a82c5;}.m{font-size:8px;fill:#231f20;}.n{letter-spacing:-0.03em;}.o{letter-spacing:-0.02em;}.p{letter-spacing:0em;}.q{letter-spacing:-0.01em;}.r{letter-spacing:0em;}.s{letter-spacing:0em;}.t{letter-spacing:0em;}.u{letter-spacing:0em;}.v{letter-spacing:-0.01em;}.w{letter-spacing:-0.03em;}.x{letter-spacing:-0.02em;}.y{letter-spacing:-0.03em;}.z{letter-spacing:-0.01em;}.aa{letter-spacing:-0.01em;}.ab{letter-spacing:0em;}.ac{fill:#f7bdba;}.ad,.ar{font-size:10px;}.ad,.ay{fill:#006ab4;}.ae{letter-spacing:-0.02em;}.af{letter-spacing:0em;}.ag{letter-spacing:-0.01em;}.ah{letter-spacing:-0.01em;}.ai{letter-spacing:-0.02em;}.aj{letter-spacing:-0.01em;}.ak{letter-spacing:-0.01em;}.al{letter-spacing:0em;}.am{letter-spacing:-0.01em;}.an{letter-spacing:-0.02em;}.ao,.ap,.aq,.ar{font-family:Lato-Light, Lato;}.ap{letter-spacing:-0.01em;}.aq{letter-spacing:-0.02em;}.ar{fill:#010101;}.as{letter-spacing:0em;}.at{letter-spacing:-0.03em;}.au,.aw{fill:none;}.au{stroke:#000;stroke-miterlimit:10;}.av,.be{font-size:9px;fill:#1d1d1b;}.aw{stroke:#666;stroke-linecap:round;stroke-linejoin:round;stroke-width:0.75px;stroke-dasharray:0 2;}.ax{fill:#f29697;}.az{letter-spacing:-0.03em;}.ba{letter-spacing:-0.02em;}.bb{letter-spacing:-0.02em;}.bc{letter-spacing:-0.02em;}.bd{letter-spacing:0em;}.be{letter-spacing:-0.02em;}.bf{letter-spacing:0em;}</style></defs><title>bar-chart-example-stacked100</title><text class="a" transform="translate(85.04 365.37)"><tspan class="b">S</tspan><tspan class="c" x="3.83" y="0">ou</tspan><tspan class="d" x="11.8" y="0">r</tspan><tspan class="e" x="14.31" y="0">c</tspan><tspan class="f" x="17.62" y="0">e:</tspan><tspan class="g" x="23.16" y="0" xml:space="preserve"> UNHCR</tspan></text><rect class="h" x="371.64" y="114.86" width="11.34" height="8.5"/><rect class="i" x="307.14" y="114.86" width="11.34" height="8.5"/><rect class="j" x="422.22" y="114.86" width="11.34" height="8.5"/><rect class="k" x="150.95" y="114.86" width="11.34" height="8.5"/><rect class="l" x="85.35" y="114.86" width="11.34" height="8.5"/><text class="m" transform="translate(387.35 122.23)">ID<tspan class="n" x="8.32" y="0">P</tspan></text><text class="m" transform="translate(322.27 122.23)"><tspan class="o">S</tspan><tspan class="p" x="4.16" y="0">t</tspan><tspan class="q" x="7.03" y="0">a</tspan><tspan class="r" x="10.95" y="0">t</tspan><tspan x="13.8" y="0">eless</tspan></text><text class="m" transform="translate(437.95 122.23)"><tspan class="s">O</tspan><tspan class="t" x="6.39" y="0">the</tspan><tspan class="u" x="17.94" y="0">r</tspan><tspan x="20.83" y="0">s</tspan></text><text class="m" transform="translate(166.06 122.23)">A<tspan class="v" x="5.42" y="0">s</tspan><tspan class="p" x="8.81" y="0">ylum-see</tspan><tspan class="w" x="40.74" y="0">k</tspan><tspan x="44.58" y="0">e</tspan><tspan class="x" x="48.8" y="0">r</tspan></text><text class="m" transform="translate(100.39 122.23)"><tspan class="y">R</tspan><tspan class="z" x="4.75" y="0">e</tspan><tspan x="8.94" y="0">fu</tspan><tspan class="aa" x="16.2" y="0">g</tspan><tspan x="20.3" y="0">ee</tspan></text><text class="m" transform="translate(254.8 122.23)"><tspan class="y">R</tspan><tspan class="ab" x="4.75" y="0">e</tspan><tspan x="8.95" y="0">turnee</tspan></text><rect class="ac" x="239.2" y="114.86" width="11.34" height="8.5"/><text class="ad" transform="translate(85.04 99.76)"><tspan class="ae">P</tspan><tspan class="af" x="5.96" y="0">opul</tspan><tspan class="ag" x="25.5" y="0">a</tspan><tspan class="af" x="30.51" y="0">tion </tspan><tspan class="ah" x="50.76" y="0">o</tspan><tspan class="ai" x="56.38" y="0">f</tspan><tspan class="af" x="59.77" y="0"> </tspan><tspan class="aj" x="62.2" y="0">c</tspan><tspan class="af" x="66.93" y="0">on</tspan><tspan class="ak" x="78.32" y="0">c</tspan><tspan class="c" x="83.05" y="0">ern </tspan><tspan class="al" x="100.19" y="0">t</tspan><tspan class="af" x="103.87" y="0">o UNHCR </tspan><tspan class="am" x="150.35" y="0">b</tspan><tspan class="an" x="155.88" y="0">y</tspan><tspan class="af" x="160.91" y="0"> </tspan><tspan class="am" x="163.34" y="0">r</tspan><tspan class="c" x="166.92" y="0">egion</tspan><tspan class="ao" x="191.47" y="0" xml:space="preserve"> | end </tspan><tspan class="ap" x="218.22" y="0">o</tspan><tspan class="aq" x="223.72" y="0">f</tspan><tspan class="ao" x="226.95" y="0" xml:space="preserve"> 2016</tspan></text><text class="ar" transform="translate(85.04 84.51)"><tspan class="as">F</tspan><tspan x="5.61" y="0">igu</tspan><tspan class="at" x="18.44" y="0">r</tspan><tspan x="21.69" y="0">e 7</tspan></text><line class="au" x1="108.94" y1="335.63" x2="481.89" y2="335.63"/><text class="av" transform="translate(98.68 335.18)">0%</text><text class="av" transform="translate(89.46 298.01)">20%</text><text class="av" transform="translate(89.46 257.35)">40%</text><text class="av" transform="translate(89.46 216.68)">60%</text><text class="av" transform="translate(89.46 176.01)">80%</text><text class="av" transform="translate(84.24 135.35)">100%</text><line class="aw" x1="108.94" y1="294.96" x2="481.89" y2="294.96"/><line class="aw" x1="108.94" y1="254.29" x2="481.89" y2="254.29"/><line class="aw" x1="108.94" y1="213.63" x2="481.89" y2="213.63"/><line class="aw" x1="108.94" y1="172.96" x2="481.89" y2="172.96"/><line class="aw" x1="108.94" y1="132.29" x2="481.89" y2="132.29"/><rect class="j" x="119.39" y="132.29" width="53.7" height="4.31"/><rect class="j" x="193.98" y="132.29" width="53.7" height="1.43"/><rect class="j" x="268.57" y="132.29" width="53.7" height="4.18"/><rect class="j" x="343.15" y="132.29" width="53.7" height="1.67"/><rect class="j" x="417.74" y="132.29" width="53.7" height="0.23"/><rect class="h" x="119.39" y="136.6" width="53.7" height="104.14"/><rect class="h" x="193.98" y="133.72" width="53.7" height="171.4"/><rect class="h" x="268.57" y="136.47" width="53.7" height="58.81"/><rect class="h" x="343.15" y="133.97" width="53.7" height="59.56"/><rect class="h" x="417.74" y="132.52" width="53.7" height="131.12"/><rect class="i" x="119.39" y="240.74" width="53.7" height="10.37"/><rect class="i" x="193.98" y="305.12" width="53.7" height="0.06"/><rect class="i" x="268.57" y="195.29" width="53.7" height="33.84"/><rect class="i" x="343.15" y="193.53" width="53.7" height="11.31"/><rect class="i" x="417.74" y="263.64" width="53.7" height="4.03"/><rect class="ax" x="119.39" y="251.11" width="53.7" height="27.47"/><rect class="ax" x="193.98" y="305.17" width="53.7"/><rect class="ax" x="268.57" y="229.13" width="53.7" height="29.08"/><rect class="ax" x="343.15" y="204.84" width="53.7" height="0.01"/><rect class="ax" x="417.74" y="267.67" width="53.7" height="36.98"/><rect class="k" x="119.39" y="278.58" width="53.7" height="4.6"/><rect class="k" x="193.98" y="305.18" width="53.7" height="14.79"/><rect class="k" x="268.57" y="258.2" width="53.7" height="3.01"/><rect class="k" x="343.15" y="204.85" width="53.7" height="27.7"/><rect class="k" x="417.74" y="304.65" width="53.7" height="1.98"/><rect class="ay" x="119.39" y="283.18" width="53.7" height="52.44"/><rect class="ay" x="193.98" y="319.97" width="53.7" height="15.65"/><rect class="ay" x="268.57" y="261.21" width="53.7" height="74.41"/><rect class="ay" x="343.15" y="232.55" width="53.7" height="103.07"/><rect class="ay" x="417.74" y="306.63" width="53.7" height="28.99"/><text class="av" transform="translate(431.49 348.41)">MEN<tspan class="az" x="20.43" y="0">A</tspan></text><text class="av" transform="translate(356 348.41)"><tspan class="ba">E</tspan><tspan x="5" y="0">u</tspan><tspan class="bb" x="10.02" y="0">r</tspan><tspan x="13.11" y="0">ope</tspan></text><text class="av" transform="translate(264.71 348.41)">Asia and <tspan class="bc" x="35.77" y="0">P</tspan><tspan x="41.03" y="0">acific</tspan></text><text class="av" transform="translate(204.61 348.41)"><tspan class="bd">A</tspan><tspan x="6.08" y="0">merica</tspan></text><text class="be" transform="translate(134.61 348.41)">A<tspan class="bf" x="5.89" y="0">frica</tspan></text></svg>