<svg xmlns="http://www.w3.org/2000/svg" viewBox="0 0 566.93 425.2"><defs><style>.a,.c,.d{fill:none;}.a{stroke:#000;stroke-miterlimit:10;}.b{font-size:9px;}.b,.g{fill:#1d1d1b;}.ac,.an,.b,.g{font-family:Lato-Regular, Lato;}.c{stroke:#1d1d1b;}.c,.d{stroke-linecap:round;stroke-linejoin:round;stroke-width:0.75px;stroke-dasharray:0 2;}.d{stroke:#666;}.e{fill:#6f7190;}.f{fill:#2a82c5;}.ac,.g{font-size:8px;}.h{letter-spacing:-0.01em;}.i{letter-spacing:0em;}.j{letter-spacing:-0.02em;}.k{letter-spacing:0em;}.l{letter-spacing:-0.01em;}.m{letter-spacing:0em;}.n{letter-spacing:-0.03em;}.o{letter-spacing:-0.01em;}.p{letter-spacing:-0.01em;}.q{letter-spacing:-0.03em;}.r{letter-spacing:0em;}.ao,.s{font-size:10px;}.s{fill:#006ab4;}.ai,.s{font-family:Lato-Bold, Lato;}.aa,.aj,.ak,.al,.am,.t,.u,.v,.w,.x,.y,.z{font-weight:700;}.t{letter-spacing:-0.1em;}.u{letter-spacing:-0.01em;}.v{letter-spacing:0em;}.w{letter-spacing:-0.01em;}.x{letter-spacing:-0.02em;}.z{letter-spacing:-0.01em;}.aa{letter-spacing:-0.01em;}.ab,.ao{font-family:Lato-Light, Lato;}.ac{fill:#878787;}.ad{letter-spacing:-0.01em;}.ae{letter-spacing:0em;}.af{letter-spacing:-0.01em;}.ag{letter-spacing:-0.01em;}.ah{letter-spacing:-0.02em;}.ai{font-size:7px;fill:#808386;}.aj{letter-spacing:0em;}.ak{letter-spacing:-0.01em;}.al{letter-spacing:-0.01em;}.am{letter-spacing:0em;}.ao{fill:#010101;}.ap{letter-spacing:0em;}.aq{letter-spacing:-0.03em;}</style></defs><title>bar-chart-example-stacked</title><line class="a" x1="101.19" y1="364.16" x2="479.73" y2="364.16"/><text class="b" transform="translate(92.05 368.81)">0</text><text class="b" transform="translate(86.83 332.65)">10</text><text class="b" transform="translate(86.83 296.49)">20</text><text class="b" transform="translate(86.83 260.33)">30</text><text class="b" transform="translate(86.83 224.17)">40</text><text class="b" transform="translate(86.83 188.01)">50</text><text class="b" transform="translate(86.83 151.85)">60</text><text class="b" transform="translate(86.83 115.69)">70</text><line class="c" x1="101.19" y1="364.16" x2="479.73" y2="364.16"/><line class="d" x1="101.19" y1="328" x2="479.73" y2="328"/><line class="d" x1="101.19" y1="291.84" x2="479.73" y2="291.84"/><line class="d" x1="101.19" y1="255.68" x2="479.73" y2="255.68"/><line class="d" x1="101.19" y1="219.52" x2="479.73" y2="219.52"/><line class="d" x1="101.19" y1="183.36" x2="479.73" y2="183.36"/><line class="d" x1="101.19" y1="147.2" x2="479.73" y2="147.2"/><line class="d" x1="101.19" y1="111.04" x2="479.73" y2="111.04"/><rect class="e" x="103.71" y="229.28" width="12.98" height="63.64"/><rect class="e" x="121.74" y="241.58" width="12.98" height="59.66"/><rect class="e" x="139.76" y="236.52" width="12.98" height="57.86"/><rect class="e" x="157.79" y="227.84" width="12.98" height="59.3"/><rect class="e" x="175.82" y="226.03" width="12.98" height="61.47"/><rect class="e" x="193.84" y="211.93" width="12.98" height="61.83"/><rect class="e" x="211.87" y="216.99" width="12.98" height="56.77"/><rect class="e" x="229.89" y="222.05" width="12.98" height="53.15"/><rect class="e" x="247.92" y="219.52" width="12.98" height="53.15"/><rect class="e" x="265.94" y="228.56" width="12.98" height="49.9"/><rect class="e" x="283.97" y="221.33" width="12.98" height="54.6"/><rect class="e" x="302" y="209.76" width="12.98" height="60.39"/><rect class="e" x="320.02" y="212.29" width="12.98" height="57.86"/><rect class="e" x="338.05" y="207.59" width="12.98" height="58.58"/><rect class="e" x="356.07" y="206.14" width="12.98" height="58.58"/><rect class="e" x="374.1" y="210.48" width="12.98" height="58.22"/><rect class="e" x="392.13" y="200.72" width="12.98" height="59.3"/><rect class="e" x="410.15" y="179.02" width="12.98" height="64.73"/><rect class="e" x="428.18" y="149.01" width="12.98" height="77.02"/><rect class="e" x="446.2" y="128.04" width="12.98" height="88.59"/><rect class="e" x="464.23" y="126.95" width="12.98" height="91.48"/><rect class="f" x="103.71" y="292.92" width="12.98" height="71.23"/><rect class="f" x="121.74" y="301.24" width="12.98" height="62.92"/><rect class="f" x="139.76" y="294.37" width="12.98" height="69.79"/><rect class="f" x="157.79" y="287.14" width="12.98" height="77.02"/><rect class="f" x="175.82" y="287.5" width="12.98" height="76.66"/><rect class="f" x="193.84" y="273.76" width="12.98" height="90.4"/><rect class="f" x="211.87" y="273.76" width="12.98" height="90.4"/><rect class="f" x="229.89" y="275.21" width="12.98" height="88.95"/><rect class="f" x="247.92" y="272.68" width="12.98" height="91.48"/><rect class="f" x="265.94" y="278.46" width="12.98" height="85.7"/><rect class="f" x="283.97" y="275.93" width="12.98" height="88.23"/><rect class="f" x="302" y="270.14" width="12.98" height="94.02"/><rect class="f" x="320.02" y="270.14" width="12.98" height="94.02"/><rect class="f" x="338.05" y="266.17" width="12.98" height="97.99"/><rect class="f" x="356.07" y="264.72" width="12.98" height="99.44"/><rect class="f" x="374.1" y="268.7" width="12.98" height="95.46"/><rect class="f" x="392.13" y="260.02" width="12.98" height="104.14"/><rect class="f" x="410.15" y="243.75" width="12.98" height="120.41"/><rect class="f" x="428.18" y="226.03" width="12.98" height="138.13"/><rect class="f" x="446.2" y="216.63" width="12.98" height="147.53"/><rect class="f" x="464.23" y="218.44" width="12.98" height="145.72"/><text class="b" transform="translate(464.58 377.42)">&apos;16</text><text class="b" transform="translate(446.55 377.42)">&apos;15</text><text class="b" transform="translate(428.53 377.42)">&apos;14</text><text class="b" transform="translate(410.5 377.42)">&apos;13</text><text class="b" transform="translate(392.48 377.42)">&apos;12</text><text class="b" transform="translate(374.45 377.42)">&apos;11</text><text class="b" transform="translate(356.43 377.42)">&apos;10</text><text class="b" transform="translate(338.4 377.42)">&apos;09</text><text class="b" transform="translate(320.37 377.42)">&apos;08</text><text class="b" transform="translate(302.35 377.42)">&apos;07</text><text class="b" transform="translate(284.32 377.42)">&apos;06</text><text class="b" transform="translate(266.3 377.42)">&apos;05</text><text class="b" transform="translate(248.27 377.42)">&apos;04</text><text class="b" transform="translate(230.24 377.42)">&apos;03</text><text class="b" transform="translate(212.22 377.42)">&apos;02</text><text class="b" transform="translate(194.19 377.42)">&apos;01</text><text class="b" transform="translate(176.17 377.42)">&apos;00</text><text class="b" transform="translate(158.14 377.42)">&apos;99</text><text class="b" transform="translate(140.11 377.42)">&apos;98</text><text class="b" transform="translate(122.09 377.42)">&apos;97</text><text class="b" transform="translate(104.06 377.42)">&apos;96</text><text class="g" transform="translate(252.13 96.82)"><tspan class="h">In</tspan><tspan class="i" x="6.59" y="0">t</tspan><tspan x="9.44" y="0">ernall</tspan><tspan class="j" x="28.79" y="0">y</tspan><tspan class="k" x="32.72" y="0" xml:space="preserve"> displa</tspan><tspan class="l" x="54.98" y="0">c</tspan><tspan x="58.72" y="0">ed pe</tspan><tspan class="m" x="78.18" y="0">r</tspan><tspan x="81.07" y="0">sons</tspan></text><rect class="f" x="237.35" y="90.21" width="11.34" height="8.5"/><text class="g" transform="translate(376.79 96.82)"><tspan class="n">R</tspan><tspan class="o" x="4.75" y="0">e</tspan><tspan x="8.94" y="0">fu</tspan><tspan class="p" x="16.2" y="0">g</tspan><tspan x="20.3" y="0">ees and a</tspan><tspan class="l" x="53.2" y="0">s</tspan><tspan x="56.59" y="0">ylum-see</tspan><tspan class="q" x="88.53" y="0">k</tspan><tspan x="92.36" y="0">e</tspan><tspan class="r" x="96.59" y="0">r</tspan><tspan x="99.48" y="0">s</tspan></text><rect class="e" x="362.02" y="90.21" width="11.34" height="8.5"/><text class="s" transform="translate(86.83 75.09)"><tspan class="t">T</tspan><tspan class="u" x="4.99" y="0">r</tspan><tspan class="v" x="8.57" y="0">end </tspan><tspan class="w" x="27.66" y="0">o</tspan><tspan class="x" x="33.28" y="0">f</tspan><tspan class="y" x="36.67" y="0" xml:space="preserve"> global displa</tspan><tspan class="z" x="94.13" y="0">c</tspan><tspan class="v" x="98.86" y="0">eme</tspan><tspan class="aa" x="117.91" y="0">n</tspan><tspan class="v" x="123.48" y="0">t</tspan><tspan class="ab" x="127.2" y="0" xml:space="preserve"> | 1997 - 2016</tspan></text><text class="ac" transform="translate(86.83 96.82)"><tspan class="ad">D</tspan><tspan x="6" y="0">ispla</tspan><tspan class="l" x="21.74" y="0">c</tspan><tspan class="ae" x="25.48" y="0">ed popul</tspan><tspan class="af" x="56.09" y="0">a</tspan><tspan x="60.01" y="0">tion </tspan><tspan class="ag" x="75.99" y="0">(</tspan><tspan x="78.06" y="0">million</tspan><tspan class="ah" x="101.25" y="0">s</tspan><tspan x="104.54" y="0">)</tspan></text><text class="ai" transform="translate(86.83 390.46)"><tspan class="aj">S</tspan><tspan class="y" x="3.83" y="0">ou</tspan><tspan class="ak" x="11.8" y="0">r</tspan><tspan class="al" x="14.31" y="0">c</tspan><tspan class="am" x="17.62" y="0">e:</tspan><tspan class="an" x="23.16" y="0" xml:space="preserve"> UNHCR</tspan></text><text class="ao" transform="translate(86.83 59.84)"><tspan class="ap">F</tspan><tspan x="5.61" y="0">igu</tspan><tspan class="aq" x="18.44" y="0">r</tspan><tspan x="21.69" y="0">e 2</tspan></text></svg>