<svg xmlns="http://www.w3.org/2000/svg" viewBox="0 0 393.27 341.15"><defs><style>.a,.c,.d{fill:none;}.a{stroke:#000;stroke-miterlimit:10;}.b{font-size:9px;fill:#1d1d1b;}.ae,.b,.s{font-family:Lato-Regular, Lato;}.c{stroke:#1d1d1b;}.c,.d{stroke-linecap:round;stroke-linejoin:round;stroke-width:0.75px;stroke-dasharray:0 2;}.d{stroke:#666;}.e{fill:#2a82c5;}.f,.i{font-size:10px;}.f{fill:#010101;}.f,.r{font-family:Lato-Light, Lato;}.g{letter-spacing:0em;}.h{letter-spacing:-0.03em;}.i{fill:#0e72ba;}.i,.z{font-family:Lato-Bold, Lato;}.aa,.ab,.ac,.ad,.j,.k,.l,.m,.n,.o,.p,.q{font-weight:700;}.j{letter-spacing:-0.1em;}.k{letter-spacing:-0.01em;}.l{letter-spacing:0em;}.m{letter-spacing:-0.01em;}.n{letter-spacing:-0.02em;}.p{letter-spacing:-0.01em;}.q{letter-spacing:-0.01em;}.s{font-size:8px;fill:#878787;}.t{letter-spacing:-0.01em;}.u{letter-spacing:-0.01em;}.v{letter-spacing:0em;}.w{letter-spacing:-0.01em;}.x{letter-spacing:-0.01em;}.y{letter-spacing:-0.02em;}.z{font-size:7px;fill:#808386;}.aa{letter-spacing:0em;}.ab{letter-spacing:-0.01em;}.ac{letter-spacing:-0.01em;}.ad{letter-spacing:0em;}</style></defs><title>bar-chart-example-simple</title><line class="a" x1="14.35" y1="312.85" x2="392.9" y2="312.85"/><text class="b" transform="translate(5.22 317.51)">0</text><text class="b" transform="translate(0 281.35)">10</text><text class="b" transform="translate(0 245.19)">20</text><text class="b" transform="translate(0 209.03)">30</text><text class="b" transform="translate(0 172.87)">40</text><text class="b" transform="translate(0 136.71)">50</text><text class="b" transform="translate(0 100.55)">60</text><text class="b" transform="translate(0 64.39)">70</text><line class="c" x1="14.35" y1="312.85" x2="392.9" y2="312.85"/><line class="d" x1="14.35" y1="276.69" x2="392.9" y2="276.69"/><line class="d" x1="14.35" y1="240.53" x2="392.9" y2="240.53"/><line class="d" x1="14.35" y1="204.37" x2="392.9" y2="204.37"/><line class="d" x1="14.35" y1="168.21" x2="392.9" y2="168.21"/><line class="d" x1="14.35" y1="132.05" x2="392.9" y2="132.05"/><line class="d" x1="14.35" y1="95.89" x2="392.9" y2="95.89"/><line class="d" x1="14.35" y1="59.73" x2="392.9" y2="59.73"/><rect class="e" x="16.88" y="177.87" width="12.98" height="134.98"/><rect class="e" x="34.9" y="190.23" width="12.98" height="122.62"/><rect class="e" x="52.93" y="185.1" width="12.98" height="127.75"/><rect class="e" x="70.96" y="176.57" width="12.98" height="136.29"/><rect class="e" x="88.98" y="174.65" width="12.98" height="138.2"/><rect class="e" x="107.01" y="160.55" width="12.98" height="152.3"/><rect class="e" x="125.03" y="165.65" width="12.98" height="147.21"/><rect class="e" x="143.06" y="170.64" width="12.98" height="142.22"/><rect class="e" x="161.09" y="168.25" width="12.98" height="144.6"/><rect class="e" x="179.11" y="177.22" width="12.98" height="135.64"/><rect class="e" x="197.14" y="170.13" width="12.98" height="142.72"/><rect class="e" x="215.16" y="158.49" width="12.98" height="154.37"/><rect class="e" x="233.19" y="161.05" width="12.98" height="151.8"/><rect class="e" x="251.22" y="156.46" width="12.98" height="156.39"/><rect class="e" x="269.24" y="154.8" width="12.98" height="158.05"/><rect class="e" x="287.27" y="159.17" width="12.98" height="153.68"/><rect class="e" x="305.29" y="149.56" width="12.98" height="163.3"/><rect class="e" x="323.32" y="127.71" width="12.98" height="185.14"/><rect class="e" x="341.35" y="97.59" width="12.98" height="215.26"/><rect class="e" x="359.37" y="76.73" width="12.98" height="236.12"/><rect class="e" x="377.4" y="75.64" width="12.98" height="237.21"/><text class="b" transform="translate(377.75 326.11)">&apos;16</text><text class="b" transform="translate(359.72 326.11)">&apos;15</text><text class="b" transform="translate(341.7 326.11)">&apos;14</text><text class="b" transform="translate(323.67 326.11)">&apos;13</text><text class="b" transform="translate(305.64 326.11)">&apos;12</text><text class="b" transform="translate(287.62 326.11)">&apos;11</text><text class="b" transform="translate(269.59 326.11)">&apos;10</text><text class="b" transform="translate(251.57 326.11)">&apos;09</text><text class="b" transform="translate(233.54 326.11)">&apos;08</text><text class="b" transform="translate(215.51 326.11)">&apos;07</text><text class="b" transform="translate(197.49 326.11)">&apos;06</text><text class="b" transform="translate(179.46 326.11)">&apos;05</text><text class="b" transform="translate(161.44 326.11)">&apos;04</text><text class="b" transform="translate(143.41 326.11)">&apos;03</text><text class="b" transform="translate(125.39 326.11)">&apos;02</text><text class="b" transform="translate(107.36 326.11)">&apos;01</text><text class="b" transform="translate(89.33 326.11)">&apos;00</text><text class="b" transform="translate(71.31 326.11)">&apos;99</text><text class="b" transform="translate(53.28 326.11)">&apos;98</text><text class="b" transform="translate(35.26 326.11)">&apos;97</text><text class="b" transform="translate(17.23 326.11)">&apos;96</text><text class="f" transform="translate(0 8.54)"><tspan class="g">F</tspan><tspan x="5.61" y="0">igu</tspan><tspan class="h" x="18.44" y="0">r</tspan><tspan x="21.69" y="0">e 1</tspan></text><text class="i" transform="translate(0 23.79)"><tspan class="j">T</tspan><tspan class="k" x="4.99" y="0">r</tspan><tspan class="l" x="8.57" y="0">end </tspan><tspan class="m" x="27.66" y="0">o</tspan><tspan class="n" x="33.28" y="0">f</tspan><tspan class="o" x="36.67" y="0" xml:space="preserve"> global displa</tspan><tspan class="p" x="94.13" y="0">c</tspan><tspan class="l" x="98.86" y="0">eme</tspan><tspan class="q" x="117.91" y="0">n</tspan><tspan class="l" x="123.48" y="0">t</tspan><tspan class="r" x="127.2" y="0" xml:space="preserve"> | 1997 - 2016</tspan></text><text class="s" transform="translate(0 45.52)"><tspan class="t">D</tspan><tspan x="6" y="0">ispla</tspan><tspan class="u" x="21.74" y="0">c</tspan><tspan class="v" x="25.48" y="0">ed popul</tspan><tspan class="w" x="56.09" y="0">a</tspan><tspan x="60.01" y="0">tion </tspan><tspan class="x" x="75.99" y="0">(</tspan><tspan x="78.06" y="0">million</tspan><tspan class="y" x="101.25" y="0">s</tspan><tspan x="104.54" y="0">)</tspan></text><text class="z" transform="translate(0 339.15)"><tspan class="aa">S</tspan><tspan class="o" x="3.83" y="0">ou</tspan><tspan class="ab" x="11.8" y="0">r</tspan><tspan class="ac" x="14.31" y="0">c</tspan><tspan class="ad" x="17.62" y="0">e:</tspan><tspan class="ae" x="23.16" y="0" xml:space="preserve"> UNHCR</tspan></text></svg>