<svg xmlns="http://www.w3.org/2000/svg" viewBox="0 0 566.93 425.2"><defs><style>.a,.c,.d{fill:none;}.a{stroke:#000;stroke-miterlimit:10;}.b{font-size:9px;fill:#1d1d1b;}.ae,.b,.s{font-family:Lato-Regular, Lato;}.c{stroke:#1d1d1b;}.c,.d{stroke-linecap:round;stroke-linejoin:round;stroke-width:0.75px;stroke-dasharray:0 2;}.d{stroke:#666;}.e{fill:#2a82c5;}.f,.i{font-size:10px;}.f{fill:#010101;}.f,.r{font-family:Lato-Light, Lato;}.g{letter-spacing:0em;}.h{letter-spacing:-0.03em;}.i{fill:#0e72ba;}.i,.z{font-family:Lato-Bold, Lato;}.aa,.ab,.ac,.ad,.j,.k,.l,.m,.n,.o,.p,.q{font-weight:700;}.j{letter-spacing:-0.1em;}.k{letter-spacing:-0.01em;}.l{letter-spacing:0em;}.m{letter-spacing:-0.01em;}.n{letter-spacing:-0.02em;}.p{letter-spacing:-0.01em;}.q{letter-spacing:-0.01em;}.s{font-size:8px;fill:#878787;}.t{letter-spacing:-0.01em;}.u{letter-spacing:-0.01em;}.v{letter-spacing:0em;}.w{letter-spacing:-0.01em;}.x{letter-spacing:-0.01em;}.y{letter-spacing:-0.02em;}.z{font-size:7px;fill:#808386;}.aa{letter-spacing:0em;}.ab{letter-spacing:-0.01em;}.ac{letter-spacing:-0.01em;}.ad{letter-spacing:0em;}</style></defs><title>bar-chart-example-simple</title><line class="a" x1="101.19" y1="364.16" x2="479.73" y2="364.16"/><text class="b" transform="translate(92.05 368.81)">0</text><text class="b" transform="translate(86.83 332.65)">10</text><text class="b" transform="translate(86.83 296.49)">20</text><text class="b" transform="translate(86.83 260.33)">30</text><text class="b" transform="translate(86.83 224.17)">40</text><text class="b" transform="translate(86.83 188.01)">50</text><text class="b" transform="translate(86.83 151.85)">60</text><text class="b" transform="translate(86.83 115.69)">70</text><line class="c" x1="101.19" y1="364.16" x2="479.73" y2="364.16"/><line class="d" x1="101.19" y1="328" x2="479.73" y2="328"/><line class="d" x1="101.19" y1="291.84" x2="479.73" y2="291.84"/><line class="d" x1="101.19" y1="255.68" x2="479.73" y2="255.68"/><line class="d" x1="101.19" y1="219.52" x2="479.73" y2="219.52"/><line class="d" x1="101.19" y1="183.36" x2="479.73" y2="183.36"/><line class="d" x1="101.19" y1="147.2" x2="479.73" y2="147.2"/><line class="d" x1="101.19" y1="111.04" x2="479.73" y2="111.04"/><rect class="e" x="103.71" y="229.17" width="12.98" height="134.98"/><rect class="e" x="121.74" y="241.54" width="12.98" height="122.62"/><rect class="e" x="139.76" y="236.41" width="12.98" height="127.75"/><rect class="e" x="157.79" y="227.87" width="12.98" height="136.29"/><rect class="e" x="175.82" y="225.96" width="12.98" height="138.2"/><rect class="e" x="193.84" y="211.85" width="12.98" height="152.3"/><rect class="e" x="211.87" y="216.95" width="12.98" height="147.21"/><rect class="e" x="229.89" y="221.94" width="12.98" height="142.22"/><rect class="e" x="247.92" y="219.56" width="12.98" height="144.6"/><rect class="e" x="265.94" y="228.52" width="12.98" height="135.64"/><rect class="e" x="283.97" y="221.44" width="12.98" height="142.72"/><rect class="e" x="302" y="209.79" width="12.98" height="154.37"/><rect class="e" x="320.02" y="212.36" width="12.98" height="151.8"/><rect class="e" x="338.05" y="207.77" width="12.98" height="156.39"/><rect class="e" x="356.07" y="206.11" width="12.98" height="158.05"/><rect class="e" x="374.1" y="210.48" width="12.98" height="153.68"/><rect class="e" x="392.13" y="200.86" width="12.98" height="163.3"/><rect class="e" x="410.15" y="179.02" width="12.98" height="185.14"/><rect class="e" x="428.18" y="148.9" width="12.98" height="215.26"/><rect class="e" x="446.2" y="128.04" width="12.98" height="236.12"/><rect class="e" x="464.23" y="126.95" width="12.98" height="237.21"/><text class="b" transform="translate(464.58 377.42)">&apos;16</text><text class="b" transform="translate(446.55 377.42)">&apos;15</text><text class="b" transform="translate(428.53 377.42)">&apos;14</text><text class="b" transform="translate(410.5 377.42)">&apos;13</text><text class="b" transform="translate(392.48 377.42)">&apos;12</text><text class="b" transform="translate(374.45 377.42)">&apos;11</text><text class="b" transform="translate(356.43 377.42)">&apos;10</text><text class="b" transform="translate(338.4 377.42)">&apos;09</text><text class="b" transform="translate(320.37 377.42)">&apos;08</text><text class="b" transform="translate(302.35 377.42)">&apos;07</text><text class="b" transform="translate(284.32 377.42)">&apos;06</text><text class="b" transform="translate(266.3 377.42)">&apos;05</text><text class="b" transform="translate(248.27 377.42)">&apos;04</text><text class="b" transform="translate(230.24 377.42)">&apos;03</text><text class="b" transform="translate(212.22 377.42)">&apos;02</text><text class="b" transform="translate(194.19 377.42)">&apos;01</text><text class="b" transform="translate(176.17 377.42)">&apos;00</text><text class="b" transform="translate(158.14 377.42)">&apos;99</text><text class="b" transform="translate(140.11 377.42)">&apos;98</text><text class="b" transform="translate(122.09 377.42)">&apos;97</text><text class="b" transform="translate(104.06 377.42)">&apos;96</text><text class="f" transform="translate(86.83 59.84)"><tspan class="g">F</tspan><tspan x="5.61" y="0">igu</tspan><tspan class="h" x="18.44" y="0">r</tspan><tspan x="21.69" y="0">e 1</tspan></text><text class="i" transform="translate(86.83 75.09)"><tspan class="j">T</tspan><tspan class="k" x="4.99" y="0">r</tspan><tspan class="l" x="8.57" y="0">end </tspan><tspan class="m" x="27.66" y="0">o</tspan><tspan class="n" x="33.28" y="0">f</tspan><tspan class="o" x="36.67" y="0" xml:space="preserve"> global displa</tspan><tspan class="p" x="94.13" y="0">c</tspan><tspan class="l" x="98.86" y="0">eme</tspan><tspan class="q" x="117.91" y="0">n</tspan><tspan class="l" x="123.48" y="0">t</tspan><tspan class="r" x="127.2" y="0" xml:space="preserve"> | 1997 - 2016</tspan></text><text class="s" transform="translate(86.83 96.82)"><tspan class="t">D</tspan><tspan x="6" y="0">ispla</tspan><tspan class="u" x="21.74" y="0">c</tspan><tspan class="v" x="25.48" y="0">ed popul</tspan><tspan class="w" x="56.09" y="0">a</tspan><tspan x="60.01" y="0">tion </tspan><tspan class="x" x="75.99" y="0">(</tspan><tspan x="78.06" y="0">million</tspan><tspan class="y" x="101.25" y="0">s</tspan><tspan x="104.54" y="0">)</tspan></text><text class="z" transform="translate(86.83 390.46)"><tspan class="aa">S</tspan><tspan class="o" x="3.83" y="0">ou</tspan><tspan class="ab" x="11.8" y="0">r</tspan><tspan class="ac" x="14.31" y="0">c</tspan><tspan class="ad" x="17.62" y="0">e:</tspan><tspan class="ae" x="23.16" y="0" xml:space="preserve"> UNHCR</tspan></text></svg>