<svg xmlns="http://www.w3.org/2000/svg" viewBox="0 0 405.83 315.04"><defs><style>.a,.f,.t{font-size:9px;}.a,.bf{fill:#1d1d1b;}.a,.ao,.bb,.bf,.f,.t{font-family:Lato-Regular, Lato;}.b,.c{fill:none;stroke-width:0.75px;}.b{stroke:#666;stroke-linecap:round;stroke-linejoin:round;stroke-dasharray:0 2;}.c{stroke:#000;}.c,.d,.e{stroke-miterlimit:10;}.bh,.d{fill:#2a82c5;}.d{stroke:#2a82c5;}.bg,.e{fill:#dadada;}.e{stroke:#dadada;}.f,.t{fill:#575756;}.g{letter-spacing:-0.04em;}.h{letter-spacing:-0.01em;}.i{letter-spacing:-0.01em;}.j{letter-spacing:0em;}.k{letter-spacing:-0.01em;}.l{letter-spacing:-0.02em;}.m{letter-spacing:-0.01em;}.n{letter-spacing:-0.01em;}.o{letter-spacing:-0.01em;}.p{letter-spacing:-0.01em;}.q{letter-spacing:-0.02em;}.r{letter-spacing:-0.02em;}.s{letter-spacing:-0.02em;}.t{letter-spacing:-0.02em;}.u{letter-spacing:0em;}.v{letter-spacing:-0.02em;}.w{letter-spacing:-0.01em;}.x{letter-spacing:-0.03em;}.y{letter-spacing:-0.01em;}.z{letter-spacing:-0.04em;}.aa{letter-spacing:-0.02em;}.ab{letter-spacing:-0.1em;}.ac{letter-spacing:-0.03em;}.ad{letter-spacing:-0.01em;}.ae,.bc{font-size:10px;}.ae{fill:#006ab4;}.ae,.aw{font-family:Lato-Bold, Lato;}.af,.ag,.ah,.ai,.aj,.ak,.al,.am,.ax,.ay,.az,.ba{font-weight:700;}.af{letter-spacing:-0.01em;}.ah{letter-spacing:-0.02em;}.ai{letter-spacing:-0.01em;}.aj{letter-spacing:-0.01em;}.ak{letter-spacing:-0.01em;}.al{letter-spacing:0em;}.am{letter-spacing:-0.01em;}.an,.bc{font-family:Lato-Light, Lato;}.ao,.bf{font-size:8px;}.ao{fill:#878787;}.ap{letter-spacing:-0.03em;}.aq{letter-spacing:-0.01em;}.ar{letter-spacing:-0.01em;}.as{letter-spacing:-0.01em;}.at{letter-spacing:0em;}.au{letter-spacing:-0.01em;}.av{letter-spacing:-0.02em;}.aw{font-size:7px;fill:#808386;}.ax{letter-spacing:0em;}.ay{letter-spacing:-0.01em;}.az{letter-spacing:-0.01em;}.ba{letter-spacing:0em;}.bc{fill:#010101;}.bd{letter-spacing:0em;}.be{letter-spacing:-0.03em;}</style></defs><title>bar-chart-example-horizontal</title><text class="a" transform="translate(46.11 298.51)">0.0</text><text class="a" transform="translate(103.47 298.51)">0.5</text><text class="a" transform="translate(160.83 298.51)">1.0</text><text class="a" transform="translate(218.19 298.51)">1.5</text><text class="a" transform="translate(275.55 298.51)">2.0</text><text class="a" transform="translate(332.91 298.51)">2.5</text><text class="a" transform="translate(390.27 298.51)">3.0</text><line class="b" x1="52.39" y1="288.42" x2="52.39" y2="64.89"/><line class="b" x1="109.75" y1="288.42" x2="109.75" y2="64.89"/><line class="b" x1="167.11" y1="288.42" x2="167.11" y2="64.89"/><line class="b" x1="224.47" y1="288.42" x2="224.47" y2="64.89"/><line class="b" x1="281.83" y1="288.42" x2="281.83" y2="64.89"/><line class="b" x1="339.19" y1="288.42" x2="339.19" y2="64.89"/><line class="b" x1="396.55" y1="288.42" x2="396.55" y2="64.89"/><line class="c" x1="52.39" y1="288.42" x2="52.39" y2="64.89"/><rect class="d" x="52.39" y="76.55" width="329.18" height="7.96"/><rect class="d" x="52.39" y="98.91" width="155.16" height="7.96"/><rect class="d" x="52.39" y="121.26" width="116.21" height="7.96"/><rect class="d" x="52.39" y="143.61" width="112.36" height="7.96"/><rect class="d" x="52.39" y="165.97" width="107.93" height="7.96"/><rect class="d" x="52.39" y="188.32" width="90.82" height="7.96"/><rect class="d" x="52.39" y="210.67" width="78.61" height="7.96"/><rect class="d" x="52.39" y="233.03" width="76.8" height="7.96"/><rect class="d" x="52.39" y="255.38" width="51.85" height="7.96"/><rect class="d" x="52.39" y="277.73" width="51.75" height="7.96"/><rect class="e" x="52.39" y="67.61" width="291.54" height="7.96"/><rect class="e" x="52.39" y="89.97" width="179.09" height="7.96"/><rect class="e" x="52.39" y="112.32" width="122.85" height="7.96"/><rect class="e" x="52.39" y="134.67" width="112.36" height="7.96"/><rect class="e" x="52.39" y="157.03" width="54.74" height="7.96"/><rect class="e" x="52.39" y="179.38" width="84.44" height="7.96"/><rect class="e" x="52.39" y="201.73" width="76.19" height="7.96"/><rect class="e" x="52.39" y="224.09" width="36.26" height="7.96"/><rect class="e" x="52.39" y="246.44" width="43.95" height="7.96"/><rect class="e" x="52.39" y="268.79" width="63.54" height="7.96"/><text class="f" transform="translate(24.71 279.79)"><tspan class="g">K</tspan><tspan x="5.62" y="0">e</tspan><tspan class="h" x="10.37" y="0">n</tspan><tspan class="i" x="15.28" y="0">y</tspan><tspan class="j" x="19.83" y="0">a</tspan></text><text class="f" transform="translate(26.23 253.44)">DR <tspan class="k" x="14.79" y="0">o</tspan><tspan class="l" x="19.79" y="0">f</tspan><tspan x="22.78" y="0"></tspan><tspan x="-18.28" y="9">the </tspan><tspan class="m" x="-2.98" y="9">C</tspan><tspan x="2.94" y="9">on</tspan><tspan class="n" x="13.07" y="9">g</tspan><tspan class="j" x="17.68" y="9">o</tspan></text><text class="f" transform="translate(13.26 235.08)"><tspan class="o">G</tspan><tspan x="6.52" y="0">erma</tspan><tspan class="p" x="26.42" y="0">n</tspan><tspan class="q" x="31.33" y="0">y</tspan></text><text class="f" transform="translate(20.33 212.73)"><tspan class="r">J</tspan><tspan x="3.64" y="0">o</tspan><tspan class="s" x="8.74" y="0">r</tspan><tspan x="11.84" y="0">dan </tspan></text><text class="t" transform="translate(16.83 190.38)">E<tspan class="u" x="5" y="0">thiopia</tspan></text><text class="f" transform="translate(18.92 168.02)"><tspan class="v">U</tspan><tspan x="6.4" y="0">ganda</tspan></text><text class="f" transform="translate(2.7 140.92)"><tspan class="w">I</tspan><tspan x="2.38" y="0">slamic </tspan><tspan class="x" x="29.04" y="0">R</tspan><tspan x="34.39" y="0">ep.</tspan><tspan class="k" x="20.86" y="9">o</tspan><tspan class="l" x="25.87" y="9">f</tspan><tspan x="28.85" y="9"> </tspan><tspan class="y" x="31.16" y="9">Ir</tspan><tspan class="j" x="36.81" y="9">an</tspan></text><text class="f" transform="translate(15.31 123.32)"><tspan class="z">L</tspan><tspan x="4.29" y="0">ebanon</tspan></text><text class="f" transform="translate(15.93 100.96)"><tspan class="aa">P</tspan><tspan x="5.26" y="0">akistan</tspan></text><text class="f" transform="translate(22.98 78.61)"><tspan class="ab">T</tspan><tspan x="4.37" y="0">ur</tspan><tspan class="ac" x="12.67" y="0">k</tspan><tspan class="ad" x="16.98" y="0">e</tspan><tspan class="q" x="21.62" y="0">y</tspan></text><text class="ae" transform="translate(2.7 26.35)"><tspan class="af">M</tspan><tspan class="ag" x="9.32" y="0">ajo</tspan><tspan class="ah" x="22.68" y="0">r</tspan><tspan class="ag" x="26.2" y="0"> </tspan><tspan class="ai" x="28.63" y="0">r</tspan><tspan class="aj" x="32.21" y="0">e</tspan><tspan class="ag" x="37.48" y="0">fu</tspan><tspan class="ak" x="46.7" y="0">g</tspan><tspan class="al" x="51.89" y="0">ee-hosting </tspan><tspan class="ak" x="101.87" y="0">c</tspan><tspan class="ag" x="106.6" y="0">ou</tspan><tspan class="am" x="117.98" y="0">nt</tspan><tspan class="ag" x="123.55" y="0">ies</tspan><tspan class="an" x="139.72" y="0" xml:space="preserve"> | 2005 - 2016</tspan></text><text class="ao" transform="translate(301.51 313.07)"><tspan class="ap">R</tspan><tspan class="aq" x="4.75" y="0">e</tspan><tspan x="8.94" y="0">fu</tspan><tspan class="ar" x="16.2" y="0">g</tspan><tspan x="20.3" y="0">ee popul</tspan><tspan class="as" x="50.64" y="0">a</tspan><tspan class="at" x="54.57" y="0">tion </tspan><tspan class="au" x="70.54" y="0">(</tspan><tspan class="at" x="72.62" y="0">million</tspan><tspan class="av" x="95.81" y="0">s</tspan><tspan x="99.1" y="0">)</tspan></text><text class="aw" transform="translate(2.7 312.73)"><tspan class="ax">S</tspan><tspan class="ag" x="3.83" y="0">ou</tspan><tspan class="ay" x="11.8" y="0">r</tspan><tspan class="az" x="14.31" y="0">c</tspan><tspan class="ba" x="17.62" y="0">e:</tspan><tspan class="bb" x="23.16" y="0" xml:space="preserve"> UNHCR</tspan></text><text class="bc" transform="translate(2.7 11.1)"><tspan class="bd">F</tspan><tspan x="5.61" y="0">igu</tspan><tspan class="be" x="18.44" y="0">r</tspan><tspan x="21.69" y="0">e 4</tspan></text><text class="bf" transform="translate(298.41 48.07)">end-2015</text><rect class="bg" x="283.49" y="41.46" width="11.34" height="8.5"/><text class="bf" transform="translate(368.05 48.07)">end-2016</text><rect class="bh" x="353.15" y="41.46" width="11.34" height="8.5"/></svg>