<svg xmlns="http://www.w3.org/2000/svg" viewBox="0 0 566.93 425.2"><defs><style>.a,.v{font-size:10px;}.a{fill:#006ab4;}.a,.y{font-family:Lato-Bold, Lato;}.aa,.ab,.b,.c,.d,.e,.f,.g,.h,.i,.j,.k,.l,.m,.n,.o,.p,.q,.z{font-weight:700;}.b{letter-spacing:-0.01em;}.d{letter-spacing:-0.01em;}.e{letter-spacing:-0.01em;}.f{letter-spacing:-0.03em;}.g{letter-spacing:-0.01em;}.h{letter-spacing:-0.02em;}.i{letter-spacing:-0.01em;}.j{letter-spacing:-0.02em;}.k{letter-spacing:0em;}.l{letter-spacing:-0.02em;}.m{letter-spacing:-0.01em;}.n{letter-spacing:-0.03em;}.o{letter-spacing:0em;}.p{letter-spacing:0em;}.q{letter-spacing:0em;}.r,.v{font-family:Lato-Light, Lato;}.s,.t,.u{font-family:Lato-ThinItalic, Lato;font-style:italic;}.aq,.s{letter-spacing:0em;}.u{letter-spacing:-0.02em;}.v{fill:#010101;}.w{letter-spacing:0em;}.x{letter-spacing:-0.03em;}.y{font-size:7px;fill:#808386;}.z{letter-spacing:-0.01em;}.aa{letter-spacing:-0.01em;}.ab{letter-spacing:0em;}.ac,.ae,.aj,.am{font-family:Lato-Regular, Lato;}.ad,.af{fill:none;}.ad{stroke:#000;stroke-miterlimit:10;}.ae{font-size:9px;fill:#1d1d1b;}.af{stroke:#666;stroke-linecap:round;stroke-linejoin:round;stroke-width:0.75px;stroke-dasharray:0 2;}.ag{fill:#2a82c5;}.ah{fill:#6f7190;}.ai{fill:#7dc7be;}.aj,.am{font-size:8px;fill:#231f20;}.ak{letter-spacing:-0.02em;}.al{letter-spacing:-0.01em;}.am{letter-spacing:-0.01em;}.an{letter-spacing:0em;}.ao{letter-spacing:-0.03em;}.ap{letter-spacing:-0.03em;}.ar{letter-spacing:-0.01em;}.as{letter-spacing:-0.03em;}</style></defs><title>bar-chart-example-multiple</title><text class="a" transform="translate(85.04 105.14)"><tspan class="b">M</tspan><tspan class="c" x="9.32" y="0">ain </tspan><tspan class="d" x="25" y="0">c</tspan><tspan class="c" x="29.73" y="0">ou</tspan><tspan class="e" x="41.12" y="0">n</tspan><tspan class="c" x="46.69" y="0">tr</tspan><tspan class="f" x="54.14" y="0">y</tspan><tspan class="c" x="59.16" y="0"> </tspan><tspan class="g" x="61.59" y="0">o</tspan><tspan class="h" x="67.21" y="0">f</tspan><tspan class="c" x="70.61" y="0" xml:space="preserve"> origin </tspan><tspan class="i" x="100.94" y="0">f</tspan><tspan class="c" x="104.39" y="0">o</tspan><tspan class="j" x="110.14" y="0">r</tspan><tspan class="k" x="113.66" y="0" xml:space="preserve"> n</tspan><tspan class="e" x="121.73" y="0">e</tspan><tspan class="l" x="127" y="0">w</tspan><tspan class="c" x="134.82" y="0" xml:space="preserve"> a</tspan><tspan class="m" x="142.32" y="0">s</tspan><tspan class="c" x="146.62" y="0">ylum-see</tspan><tspan class="n" x="187.2" y="0">k</tspan><tspan class="o" x="192.28" y="0">e</tspan><tspan class="p" x="197.62" y="0">r</tspan><tspan class="q" x="201.34" y="0">s</tspan><tspan class="r" x="205.73" y="0" xml:space="preserve"> | 2013 - 2016, </tspan><tspan class="s" x="273.98" y="0">(</tspan><tspan class="t" x="276.4" y="0">thousand</tspan><tspan class="u" x="314.02" y="0">s</tspan><tspan class="t" x="317.74" y="0">)</tspan></text><text class="v" transform="translate(85.04 89.89)"><tspan class="w">F</tspan><tspan x="5.61" y="0">igu</tspan><tspan class="x" x="18.44" y="0">r</tspan><tspan x="21.69" y="0">e 6</tspan></text><text class="y" transform="translate(85.04 364.87)"><tspan class="p">S</tspan><tspan class="c" x="3.83" y="0">ou</tspan><tspan class="z" x="11.8" y="0">r</tspan><tspan class="aa" x="14.31" y="0">c</tspan><tspan class="ab" x="17.62" y="0">e:</tspan><tspan class="ac" x="23.16" y="0" xml:space="preserve"> UNHCR</tspan></text><line class="ad" x1="105.76" y1="339.59" x2="480.86" y2="339.59"/><text class="ae" transform="translate(95.68 342.68)">0</text><text class="ae" transform="translate(85.24 302.4)">100</text><text class="ae" transform="translate(85.24 262.12)">200</text><text class="ae" transform="translate(85.24 221.84)">300</text><text class="ae" transform="translate(85.24 181.56)">400</text><text class="ae" transform="translate(85.24 141.28)">500</text><line class="af" x1="105.76" y1="299.31" x2="480.86" y2="299.31"/><line class="af" x1="105.76" y1="259.03" x2="480.86" y2="259.03"/><line class="af" x1="105.76" y1="218.75" x2="480.86" y2="218.75"/><line class="af" x1="105.76" y1="178.47" x2="480.86" y2="178.47"/><line class="af" x1="105.76" y1="138.19" x2="480.86" y2="138.19"/><rect class="ag" x="166.4" y="311.16" width="22.51" height="28.43"/><rect class="ag" x="260.18" y="269.12" width="22.51" height="70.46"/><rect class="ag" x="353.95" y="174.67" width="22.51" height="164.92"/><rect class="ag" x="447.73" y="199.55" width="22.51" height="140.04"/><rect class="ah" x="141.39" y="316.63" width="22.51" height="22.96"/><rect class="ah" x="235.17" y="305.72" width="22.51" height="33.87"/><rect class="ah" x="328.95" y="230.07" width="22.51" height="109.51"/><rect class="ah" x="422.72" y="243.43" width="22.51" height="96.16"/><rect class="ai" x="116.39" y="319.62" width="22.51" height="19.97"/><rect class="ai" x="210.16" y="295.71" width="22.51" height="43.88"/><rect class="ai" x="303.94" y="255.32" width="22.51" height="84.27"/><rect class="ai" x="397.72" y="265.53" width="22.51" height="74.06"/><text class="ae" transform="translate(423.54 352.42)">2016</text><text class="ae" transform="translate(329.76 352.42)">2015</text><text class="ae" transform="translate(235.98 352.42)">2014</text><text class="ae" transform="translate(142.21 352.42)">2013</text><rect class="ah" x="308.79" y="120.24" width="11.34" height="8.5"/><rect class="ai" x="247.97" y="120.24" width="11.34" height="8.5"/><text class="aj" transform="translate(324.19 126.85)"><tspan class="ak">A</tspan><tspan class="al" x="5.24" y="0">f</tspan><tspan x="8" y="0">ghanistan</tspan></text><text class="am" transform="translate(262.94 126.85)">Ir<tspan class="an" x="5.03" y="0">aq</tspan></text><text class="aj" transform="translate(408.26 126.85)"><tspan class="ao">S</tspan><tspan x="4.13" y="0">yrian</tspan><tspan class="ap" x="21.53" y="0"> </tspan><tspan class="aq" x="23.31" y="0">A</tspan><tspan class="ar" x="28.71" y="0">r</tspan><tspan x="31.56" y="0">ab </tspan><tspan class="as" x="42.06" y="0">R</tspan><tspan x="46.81" y="0">epublic</tspan></text><rect class="ag" x="391.76" y="120.24" width="11.34" height="8.5"/></svg>