<svg xmlns="http://www.w3.org/2000/svg" viewBox="0 0 396.2 285.52"><defs><style>.a,.v{font-size:10px;}.a{fill:#006ab4;}.a,.y{font-family:Lato-Bold, Lato;}.aa,.ab,.b,.c,.d,.e,.f,.g,.h,.i,.j,.k,.l,.m,.n,.o,.p,.q,.z{font-weight:700;}.b{letter-spacing:-0.01em;}.d{letter-spacing:-0.01em;}.e{letter-spacing:-0.01em;}.f{letter-spacing:-0.03em;}.g{letter-spacing:-0.01em;}.h{letter-spacing:-0.02em;}.i{letter-spacing:-0.01em;}.j{letter-spacing:-0.02em;}.k{letter-spacing:0em;}.l{letter-spacing:-0.02em;}.m{letter-spacing:-0.01em;}.n{letter-spacing:-0.03em;}.o{letter-spacing:0em;}.p{letter-spacing:0em;}.q{letter-spacing:0em;}.r,.v{font-family:Lato-Light, Lato;}.s,.t,.u{font-family:Lato-ThinItalic, Lato;font-style:italic;}.aq,.s{letter-spacing:0em;}.u{letter-spacing:-0.02em;}.v{fill:#010101;}.w{letter-spacing:0em;}.x{letter-spacing:-0.03em;}.y{font-size:7px;fill:#808386;}.z{letter-spacing:-0.01em;}.aa{letter-spacing:-0.01em;}.ab{letter-spacing:0em;}.ac,.ae,.aj,.am{font-family:Lato-Regular, Lato;}.ad,.af{fill:none;}.ad{stroke:#000;stroke-miterlimit:10;}.ae{font-size:9px;fill:#1d1d1b;}.af{stroke:#666;stroke-linecap:round;stroke-linejoin:round;stroke-width:0.75px;stroke-dasharray:0 2;}.ag{fill:#2a82c5;}.ah{fill:#6f7190;}.ai{fill:#7dc7be;}.aj,.am{font-size:8px;fill:#231f20;}.ak{letter-spacing:-0.02em;}.al{letter-spacing:-0.01em;}.am{letter-spacing:-0.01em;}.an{letter-spacing:0em;}.ao{letter-spacing:-0.03em;}.ap{letter-spacing:-0.03em;}.ar{letter-spacing:-0.01em;}.as{letter-spacing:-0.03em;}</style></defs><title>bar-chart-example-multiple</title><text class="a" transform="translate(0 23.79)"><tspan class="b">M</tspan><tspan class="c" x="9.32" y="0">ain </tspan><tspan class="d" x="25" y="0">c</tspan><tspan class="c" x="29.73" y="0">ou</tspan><tspan class="e" x="41.12" y="0">n</tspan><tspan class="c" x="46.69" y="0">tr</tspan><tspan class="f" x="54.14" y="0">y</tspan><tspan class="c" x="59.16" y="0"> </tspan><tspan class="g" x="61.59" y="0">o</tspan><tspan class="h" x="67.21" y="0">f</tspan><tspan class="c" x="70.61" y="0" xml:space="preserve"> origin </tspan><tspan class="i" x="100.94" y="0">f</tspan><tspan class="c" x="104.39" y="0">o</tspan><tspan class="j" x="110.14" y="0">r</tspan><tspan class="k" x="113.66" y="0" xml:space="preserve"> n</tspan><tspan class="e" x="121.73" y="0">e</tspan><tspan class="l" x="127" y="0">w</tspan><tspan class="c" x="134.82" y="0" xml:space="preserve"> a</tspan><tspan class="m" x="142.32" y="0">s</tspan><tspan class="c" x="146.62" y="0">ylum-see</tspan><tspan class="n" x="187.2" y="0">k</tspan><tspan class="o" x="192.28" y="0">e</tspan><tspan class="p" x="197.62" y="0">r</tspan><tspan class="q" x="201.34" y="0">s</tspan><tspan class="r" x="205.73" y="0" xml:space="preserve"> | 2013 - 2016, </tspan><tspan class="s" x="273.98" y="0">(</tspan><tspan class="t" x="276.4" y="0">thousand</tspan><tspan class="u" x="314.02" y="0">s</tspan><tspan class="t" x="317.74" y="0">)</tspan></text><text class="v" transform="translate(0 8.54)"><tspan class="w">F</tspan><tspan x="5.61" y="0">igu</tspan><tspan class="x" x="18.44" y="0">r</tspan><tspan x="21.69" y="0">e 6</tspan></text><text class="y" transform="translate(0 283.52)"><tspan class="p">S</tspan><tspan class="c" x="3.83" y="0">ou</tspan><tspan class="z" x="11.8" y="0">r</tspan><tspan class="aa" x="14.31" y="0">c</tspan><tspan class="ab" x="17.62" y="0">e:</tspan><tspan class="ac" x="23.16" y="0" xml:space="preserve"> UNHCR</tspan></text><line class="ad" x1="20.72" y1="258.24" x2="395.83" y2="258.24"/><text class="ae" transform="translate(10.64 261.33)">0</text><text class="ae" transform="translate(0.2 221.05)">100</text><text class="ae" transform="translate(0.2 180.77)">200</text><text class="ae" transform="translate(0.2 140.49)">300</text><text class="ae" transform="translate(0.2 100.21)">400</text><text class="ae" transform="translate(0.2 59.93)">500</text><line class="af" x1="20.72" y1="217.96" x2="395.83" y2="217.96"/><line class="af" x1="20.72" y1="177.68" x2="395.83" y2="177.68"/><line class="af" x1="20.72" y1="137.4" x2="395.83" y2="137.4"/><line class="af" x1="20.72" y1="97.12" x2="395.83" y2="97.12"/><line class="af" x1="20.72" y1="56.84" x2="395.83" y2="56.84"/><rect class="ag" x="81.36" y="229.81" width="22.51" height="28.43"/><rect class="ag" x="175.14" y="187.78" width="22.51" height="70.46"/><rect class="ag" x="268.91" y="93.32" width="22.51" height="164.92"/><rect class="ag" x="362.69" y="118.21" width="22.51" height="140.04"/><rect class="ah" x="56.35" y="235.28" width="22.51" height="22.96"/><rect class="ah" x="150.13" y="224.37" width="22.51" height="33.87"/><rect class="ah" x="243.91" y="148.73" width="22.51" height="109.51"/><rect class="ah" x="337.68" y="162.08" width="22.51" height="96.16"/><rect class="ai" x="31.35" y="238.27" width="22.51" height="19.97"/><rect class="ai" x="125.12" y="214.36" width="22.51" height="43.88"/><rect class="ai" x="218.9" y="173.97" width="22.51" height="84.27"/><rect class="ai" x="312.68" y="184.18" width="22.51" height="74.06"/><text class="ae" transform="translate(338.5 271.07)">2016</text><text class="ae" transform="translate(244.72 271.07)">2015</text><text class="ae" transform="translate(150.94 271.07)">2014</text><text class="ae" transform="translate(57.17 271.07)">2013</text><rect class="ah" x="223.75" y="38.89" width="11.34" height="8.5"/><rect class="ai" x="162.93" y="38.89" width="11.34" height="8.5"/><text class="aj" transform="translate(239.15 45.5)"><tspan class="ak">A</tspan><tspan class="al" x="5.24" y="0">f</tspan><tspan x="8" y="0">ghanistan</tspan></text><text class="am" transform="translate(177.91 45.5)">Ir<tspan class="an" x="5.03" y="0">aq</tspan></text><text class="aj" transform="translate(323.22 45.5)"><tspan class="ao">S</tspan><tspan x="4.13" y="0">yrian</tspan><tspan class="ap" x="21.53" y="0"> </tspan><tspan class="aq" x="23.31" y="0">A</tspan><tspan class="ar" x="28.71" y="0">r</tspan><tspan x="31.56" y="0">ab </tspan><tspan class="as" x="42.06" y="0">R</tspan><tspan x="46.81" y="0">epublic</tspan></text><rect class="ag" x="306.73" y="38.89" width="11.34" height="8.5"/></svg>