<svg xmlns="http://www.w3.org/2000/svg" viewBox="0 0 393.27 341.15"><defs><style>.a,.c,.d{fill:none;}.a{stroke:#000;stroke-miterlimit:10;}.b{font-size:9px;}.b,.g{fill:#1d1d1b;}.ac,.an,.b,.g{font-family:Lato-Regular, Lato;}.c{stroke:#1d1d1b;}.c,.d{stroke-linecap:round;stroke-linejoin:round;stroke-width:0.75px;stroke-dasharray:0 2;}.d{stroke:#666;}.e{fill:#6f7190;}.f{fill:#2a82c5;}.ac,.g{font-size:8px;}.h{letter-spacing:-0.01em;}.i{letter-spacing:0em;}.j{letter-spacing:-0.02em;}.k{letter-spacing:0em;}.l{letter-spacing:-0.01em;}.m{letter-spacing:0em;}.n{letter-spacing:-0.03em;}.o{letter-spacing:-0.01em;}.p{letter-spacing:-0.01em;}.q{letter-spacing:-0.03em;}.r{letter-spacing:0em;}.ao,.s{font-size:10px;}.s{fill:#006ab4;}.ai,.s{font-family:Lato-Bold, Lato;}.aa,.aj,.ak,.al,.am,.t,.u,.v,.w,.x,.y,.z{font-weight:700;}.t{letter-spacing:-0.1em;}.u{letter-spacing:-0.01em;}.v{letter-spacing:0em;}.w{letter-spacing:-0.01em;}.x{letter-spacing:-0.02em;}.z{letter-spacing:-0.01em;}.aa{letter-spacing:-0.01em;}.ab,.ao{font-family:Lato-Light, Lato;}.ac{fill:#878787;}.ad{letter-spacing:-0.01em;}.ae{letter-spacing:0em;}.af{letter-spacing:-0.01em;}.ag{letter-spacing:-0.01em;}.ah{letter-spacing:-0.02em;}.ai{font-size:7px;fill:#808386;}.aj{letter-spacing:0em;}.ak{letter-spacing:-0.01em;}.al{letter-spacing:-0.01em;}.am{letter-spacing:0em;}.ao{fill:#010101;}.ap{letter-spacing:0em;}.aq{letter-spacing:-0.03em;}</style></defs><title>bar-chart-example-stacked</title><line class="a" x1="14.35" y1="312.85" x2="392.9" y2="312.85"/><text class="b" transform="translate(5.22 317.51)">0</text><text class="b" transform="translate(0 281.35)">10</text><text class="b" transform="translate(0 245.19)">20</text><text class="b" transform="translate(0 209.03)">30</text><text class="b" transform="translate(0 172.87)">40</text><text class="b" transform="translate(0 136.71)">50</text><text class="b" transform="translate(0 100.55)">60</text><text class="b" transform="translate(0 64.39)">70</text><line class="c" x1="14.35" y1="312.85" x2="392.9" y2="312.85"/><line class="d" x1="14.35" y1="276.69" x2="392.9" y2="276.69"/><line class="d" x1="14.35" y1="240.53" x2="392.9" y2="240.53"/><line class="d" x1="14.35" y1="204.37" x2="392.9" y2="204.37"/><line class="d" x1="14.35" y1="168.21" x2="392.9" y2="168.21"/><line class="d" x1="14.35" y1="132.05" x2="392.9" y2="132.05"/><line class="d" x1="14.35" y1="95.89" x2="392.9" y2="95.89"/><line class="d" x1="14.35" y1="59.73" x2="392.9" y2="59.73"/><rect class="e" x="16.88" y="177.98" width="12.98" height="63.64"/><rect class="e" x="34.9" y="190.27" width="12.98" height="59.66"/><rect class="e" x="52.93" y="185.21" width="12.98" height="57.86"/><rect class="e" x="70.96" y="176.53" width="12.98" height="59.3"/><rect class="e" x="88.98" y="174.72" width="12.98" height="61.47"/><rect class="e" x="107.01" y="160.62" width="12.98" height="61.83"/><rect class="e" x="125.03" y="165.68" width="12.98" height="56.77"/><rect class="e" x="143.06" y="170.74" width="12.98" height="53.15"/><rect class="e" x="161.09" y="168.21" width="12.98" height="53.15"/><rect class="e" x="179.11" y="177.25" width="12.98" height="49.9"/><rect class="e" x="197.14" y="170.02" width="12.98" height="54.6"/><rect class="e" x="215.16" y="158.45" width="12.98" height="60.39"/><rect class="e" x="233.19" y="160.98" width="12.98" height="57.86"/><rect class="e" x="251.22" y="156.28" width="12.98" height="58.58"/><rect class="e" x="269.24" y="154.83" width="12.98" height="58.58"/><rect class="e" x="287.27" y="159.17" width="12.98" height="58.22"/><rect class="e" x="305.29" y="149.41" width="12.98" height="59.3"/><rect class="e" x="323.32" y="127.71" width="12.98" height="64.73"/><rect class="e" x="341.35" y="97.7" width="12.98" height="77.02"/><rect class="e" x="359.37" y="76.73" width="12.98" height="88.59"/><rect class="e" x="377.4" y="75.64" width="12.98" height="91.48"/><rect class="f" x="16.88" y="241.62" width="12.98" height="71.23"/><rect class="f" x="34.9" y="249.93" width="12.98" height="62.92"/><rect class="f" x="52.93" y="243.06" width="12.98" height="69.79"/><rect class="f" x="70.96" y="235.83" width="12.98" height="77.02"/><rect class="f" x="88.98" y="236.19" width="12.98" height="76.66"/><rect class="f" x="107.01" y="222.45" width="12.98" height="90.4"/><rect class="f" x="125.03" y="222.45" width="12.98" height="90.4"/><rect class="f" x="143.06" y="223.9" width="12.98" height="88.95"/><rect class="f" x="161.09" y="221.37" width="12.98" height="91.48"/><rect class="f" x="179.11" y="227.15" width="12.98" height="85.7"/><rect class="f" x="197.14" y="224.62" width="12.98" height="88.23"/><rect class="f" x="215.16" y="218.84" width="12.98" height="94.02"/><rect class="f" x="233.19" y="218.84" width="12.98" height="94.02"/><rect class="f" x="251.22" y="214.86" width="12.98" height="97.99"/><rect class="f" x="269.24" y="213.41" width="12.98" height="99.44"/><rect class="f" x="287.27" y="217.39" width="12.98" height="95.46"/><rect class="f" x="305.29" y="208.71" width="12.98" height="104.14"/><rect class="f" x="323.32" y="192.44" width="12.98" height="120.41"/><rect class="f" x="341.35" y="174.72" width="12.98" height="138.13"/><rect class="f" x="359.37" y="165.32" width="12.98" height="147.53"/><rect class="f" x="377.4" y="167.13" width="12.98" height="145.72"/><text class="b" transform="translate(377.75 326.11)">&apos;16</text><text class="b" transform="translate(359.72 326.11)">&apos;15</text><text class="b" transform="translate(341.7 326.11)">&apos;14</text><text class="b" transform="translate(323.67 326.11)">&apos;13</text><text class="b" transform="translate(305.64 326.11)">&apos;12</text><text class="b" transform="translate(287.62 326.11)">&apos;11</text><text class="b" transform="translate(269.59 326.11)">&apos;10</text><text class="b" transform="translate(251.57 326.11)">&apos;09</text><text class="b" transform="translate(233.54 326.11)">&apos;08</text><text class="b" transform="translate(215.51 326.11)">&apos;07</text><text class="b" transform="translate(197.49 326.11)">&apos;06</text><text class="b" transform="translate(179.46 326.11)">&apos;05</text><text class="b" transform="translate(161.44 326.11)">&apos;04</text><text class="b" transform="translate(143.41 326.11)">&apos;03</text><text class="b" transform="translate(125.39 326.11)">&apos;02</text><text class="b" transform="translate(107.36 326.11)">&apos;01</text><text class="b" transform="translate(89.33 326.11)">&apos;00</text><text class="b" transform="translate(71.31 326.11)">&apos;99</text><text class="b" transform="translate(53.28 326.11)">&apos;98</text><text class="b" transform="translate(35.26 326.11)">&apos;97</text><text class="b" transform="translate(17.23 326.11)">&apos;96</text><text class="g" transform="translate(165.29 45.52)"><tspan class="h">In</tspan><tspan class="i" x="6.59" y="0">t</tspan><tspan x="9.44" y="0">ernall</tspan><tspan class="j" x="28.79" y="0">y</tspan><tspan class="k" x="32.72" y="0" xml:space="preserve"> displa</tspan><tspan class="l" x="54.98" y="0">c</tspan><tspan x="58.72" y="0">ed pe</tspan><tspan class="m" x="78.18" y="0">r</tspan><tspan x="81.07" y="0">sons</tspan></text><rect class="f" x="150.52" y="38.9" width="11.34" height="8.5"/><text class="g" transform="translate(289.96 45.52)"><tspan class="n">R</tspan><tspan class="o" x="4.75" y="0">e</tspan><tspan x="8.94" y="0">fu</tspan><tspan class="p" x="16.2" y="0">g</tspan><tspan x="20.3" y="0">ees and a</tspan><tspan class="l" x="53.2" y="0">s</tspan><tspan x="56.59" y="0">ylum-see</tspan><tspan class="q" x="88.53" y="0">k</tspan><tspan x="92.36" y="0">e</tspan><tspan class="r" x="96.59" y="0">r</tspan><tspan x="99.48" y="0">s</tspan></text><rect class="e" x="275.18" y="38.9" width="11.34" height="8.5"/><text class="s" transform="translate(0 23.79)"><tspan class="t">T</tspan><tspan class="u" x="4.99" y="0">r</tspan><tspan class="v" x="8.57" y="0">end </tspan><tspan class="w" x="27.66" y="0">o</tspan><tspan class="x" x="33.28" y="0">f</tspan><tspan class="y" x="36.67" y="0" xml:space="preserve"> global displa</tspan><tspan class="z" x="94.13" y="0">c</tspan><tspan class="v" x="98.86" y="0">eme</tspan><tspan class="aa" x="117.91" y="0">n</tspan><tspan class="v" x="123.48" y="0">t</tspan><tspan class="ab" x="127.2" y="0" xml:space="preserve"> | 1997 - 2016</tspan></text><text class="ac" transform="translate(0 45.52)"><tspan class="ad">D</tspan><tspan x="6" y="0">ispla</tspan><tspan class="l" x="21.74" y="0">c</tspan><tspan class="ae" x="25.48" y="0">ed popul</tspan><tspan class="af" x="56.09" y="0">a</tspan><tspan x="60.01" y="0">tion </tspan><tspan class="ag" x="75.99" y="0">(</tspan><tspan x="78.06" y="0">million</tspan><tspan class="ah" x="101.25" y="0">s</tspan><tspan x="104.54" y="0">)</tspan></text><text class="ai" transform="translate(0 339.15)"><tspan class="aj">S</tspan><tspan class="y" x="3.83" y="0">ou</tspan><tspan class="ak" x="11.8" y="0">r</tspan><tspan class="al" x="14.31" y="0">c</tspan><tspan class="am" x="17.62" y="0">e:</tspan><tspan class="an" x="23.16" y="0" xml:space="preserve"> UNHCR</tspan></text><text class="ao" transform="translate(0 8.54)"><tspan class="ap">F</tspan><tspan x="5.61" y="0">igu</tspan><tspan class="aq" x="18.44" y="0">r</tspan><tspan x="21.69" y="0">e 2</tspan></text></svg>