<svg xmlns="http://www.w3.org/2000/svg" viewBox="0 0 566.93 425.2"><defs><style>.a,.b,.c{fill:none;}.a{stroke:#000;stroke-miterlimit:10;}.b{font-size:18.2px;}.aa,.b,.e,.g{font-family:Lato-Regular, Lato;}.d{fill:#dadada;}.ab,.e,.h{font-size:10px;}.e{fill:#575756;}.f{fill:#2a82c5;}.g{font-size:9px;fill:#1d1d1b;}.h{fill:#006ab4;}.h,.v{font-family:Lato-Bold, Lato;}.i,.j,.k,.l,.m,.n,.o,.p,.q,.w,.x,.y,.z{font-weight:700;}.i{letter-spacing:-0.03em;}.j{letter-spacing:-0.01em;}.l{letter-spacing:-0.01em;}.m{letter-spacing:-0.01em;}.n{letter-spacing:-0.01em;}.o{letter-spacing:-0.01em;}.p{letter-spacing:0em;}.q{letter-spacing:-0.01em;}.ab,.r{font-family:Lato-Light, Lato;}.r{letter-spacing:0em;}.s,.t,.u{font-family:Lato-LightItalic, Lato;font-style:italic;}.s{letter-spacing:-0.01em;}.u{letter-spacing:-0.02em;}.v{font-size:7px;fill:#808386;}.w{letter-spacing:0em;}.x{letter-spacing:-0.01em;}.y{letter-spacing:-0.01em;}.z{letter-spacing:0em;}.ab{fill:#010101;}.ac{letter-spacing:0em;}.ad{letter-spacing:-0.03em;}</style></defs><title>bar-chart-example-highlight</title><line class="a" x1="88.66" y1="339.16" x2="476.89" y2="339.16"/><text class="b" transform="translate(72.04 345.98)">0</text><text class="b" transform="translate(72.04 308.35)">2</text><text class="b" transform="translate(72.04 270.72)">4</text><text class="b" transform="translate(72.04 233.08)">6</text><text class="b" transform="translate(72.04 195.45)">8</text><text class="b" transform="translate(61.49 157.82)">10</text><text class="b" transform="translate(61.49 120.19)">12</text><rect class="c" x="95.46" y="237.55" width="34.94" height="101.61"/><rect class="d" x="95.46" y="237.55" width="34.94" height="101.61"/><text class="e" transform="translate(104.85 234.43)">5.4</text><rect class="c" x="143.98" y="207.26" width="34.94" height="131.9"/><rect class="d" x="143.98" y="207.26" width="34.94" height="131.9"/><text class="e" transform="translate(157.46 204.13)">7</text><rect class="c" x="192.51" y="209.33" width="34.94" height="129.83"/><rect class="d" x="192.51" y="209.33" width="34.94" height="129.83"/><text class="e" transform="translate(201.91 206.2)">6.9</text><rect class="c" x="241.04" y="222.5" width="34.94" height="116.66"/><rect class="d" x="241.04" y="222.5" width="34.94" height="116.66"/><text class="e" transform="translate(250.44 219.37)">6.2</text><rect class="c" x="289.57" y="224.38" width="34.94" height="114.78"/><rect class="d" x="289.57" y="224.38" width="34.94" height="114.78"/><text class="e" transform="translate(298.97 221.26)">6.1</text><rect class="c" x="338.1" y="222.5" width="34.94" height="116.66"/><rect class="d" x="338.1" y="222.5" width="34.94" height="116.66"/><text class="e" transform="translate(347.5 219.37)">6.2</text><rect class="c" x="386.63" y="218.73" width="34.94" height="120.42"/><rect class="d" x="386.63" y="218.73" width="34.94" height="120.42"/><text class="e" transform="translate(396.02 215.61)">6.4</text><rect class="c" x="435.16" y="115.24" width="34.94" height="223.91"/><rect class="f" x="435.16" y="115.24" width="34.94" height="223.91"/><text class="e" transform="translate(441.65 112.12)">11.9</text><text class="g" transform="translate(446.49 353.33)">&apos;16</text><text class="g" transform="translate(397.96 353.33)">&apos;15</text><text class="g" transform="translate(349.43 353.33)">&apos;14</text><text class="g" transform="translate(300.9 353.33)">&apos;13</text><text class="g" transform="translate(252.37 353.33)">&apos;12</text><text class="g" transform="translate(203.85 353.33)">&apos;11</text><text class="g" transform="translate(155.32 353.33)">&apos;10</text><text class="g" transform="translate(106.79 353.33)">&apos;09</text><text class="h" transform="translate(87.83 74.53)"><tspan class="i">R</tspan><tspan class="j" x="6.09" y="0">e</tspan><tspan class="k" x="11.36" y="0">fu</tspan><tspan class="l" x="20.58" y="0">g</tspan><tspan class="k" x="25.77" y="0">ee in a p</tspan><tspan class="m" x="62.68" y="0">r</tspan><tspan class="n" x="66.26" y="0">o</tspan><tspan class="k" x="71.91" y="0">t</tspan><tspan class="o" x="75.63" y="0">r</tspan><tspan class="k" x="79.29" y="0">ac</tspan><tspan class="p" x="89.19" y="0">t</tspan><tspan class="k" x="92.87" y="0">ed situ</tspan><tspan class="q" x="122.61" y="0">a</tspan><tspan class="k" x="127.61" y="0">tion</tspan><tspan class="r" x="145.43" y="0" xml:space="preserve"> | 2009 - 2016, </tspan><tspan class="s" x="213.68" y="0">(</tspan><tspan class="t" x="216.05" y="0">million</tspan><tspan class="u" x="242.55" y="0">s</tspan><tspan class="t" x="246.29" y="0">)</tspan></text><text class="v" transform="translate(87.83 365.78)"><tspan class="w">S</tspan><tspan class="k" x="3.83" y="0">ou</tspan><tspan class="x" x="11.8" y="0">r</tspan><tspan class="y" x="14.31" y="0">c</tspan><tspan class="z" x="17.62" y="0">e:</tspan><tspan class="aa" x="23.16" y="0" xml:space="preserve"> UNHCR</tspan></text><text class="ab" transform="translate(87.83 59.28)"><tspan class="ac">F</tspan><tspan x="5.61" y="0">igu</tspan><tspan class="ad" x="18.44" y="0">r</tspan><tspan x="21.69" y="0">e 3</tspan></text></svg>