<svg xmlns="http://www.w3.org/2000/svg" viewBox="0 0 390.06 317.04"><defs><style>.a,.b{fill:none;}.a{stroke:#000;stroke-miterlimit:10;}.c{fill:#dadada;}.aa,.d,.g{font-size:10px;}.d{fill:#575756;}.d,.f,.z{font-family:Lato-Regular, Lato;}.e{fill:#2a82c5;}.f{font-size:9px;fill:#1d1d1b;}.g{fill:#006ab4;}.g,.u{font-family:Lato-Bold, Lato;}.h,.i,.j,.k,.l,.m,.n,.o,.p,.v,.w,.x,.y{font-weight:700;}.h{letter-spacing:-0.03em;}.i{letter-spacing:-0.01em;}.k{letter-spacing:-0.01em;}.l{letter-spacing:-0.01em;}.m{letter-spacing:-0.01em;}.n{letter-spacing:-0.01em;}.o{letter-spacing:0em;}.p{letter-spacing:-0.01em;}.aa,.q{font-family:Lato-Light, Lato;}.q{letter-spacing:0em;}.r,.s,.t{font-family:Lato-LightItalic, Lato;font-style:italic;}.r{letter-spacing:-0.01em;}.t{letter-spacing:-0.02em;}.u{font-size:7px;fill:#808386;}.v{letter-spacing:0em;}.w{letter-spacing:-0.01em;}.x{letter-spacing:-0.01em;}.y{letter-spacing:0em;}.aa{fill:#010101;}.ab{letter-spacing:0em;}.ac{letter-spacing:-0.03em;}</style></defs><title>bar-chart-example-highlight</title><line class="a" x1="1.83" y1="288.42" x2="390.06" y2="288.42"/><rect class="b" x="8.62" y="186.81" width="34.94" height="101.61"/><rect class="c" x="8.62" y="186.81" width="34.94" height="101.61"/><text class="d" transform="translate(18.02 183.69)">5.4</text><rect class="b" x="57.15" y="156.52" width="34.94" height="131.9"/><rect class="c" x="57.15" y="156.52" width="34.94" height="131.9"/><text class="d" transform="translate(70.63 153.39)">7</text><rect class="b" x="105.68" y="158.59" width="34.94" height="129.83"/><rect class="c" x="105.68" y="158.59" width="34.94" height="129.83"/><text class="d" transform="translate(115.08 155.46)">6.9</text><rect class="b" x="154.21" y="171.76" width="34.94" height="116.66"/><rect class="c" x="154.21" y="171.76" width="34.94" height="116.66"/><text class="d" transform="translate(163.61 168.64)">6.2</text><rect class="b" x="202.74" y="173.64" width="34.94" height="114.78"/><rect class="c" x="202.74" y="173.64" width="34.94" height="114.78"/><text class="d" transform="translate(212.13 170.52)">6.1</text><rect class="b" x="251.27" y="171.76" width="34.94" height="116.66"/><rect class="c" x="251.27" y="171.76" width="34.94" height="116.66"/><text class="d" transform="translate(260.66 168.64)">6.2</text><rect class="b" x="299.79" y="167.99" width="34.94" height="120.42"/><rect class="c" x="299.79" y="167.99" width="34.94" height="120.42"/><text class="d" transform="translate(309.19 164.87)">6.4</text><rect class="b" x="348.32" y="64.5" width="34.94" height="223.91"/><rect class="e" x="348.32" y="64.5" width="34.94" height="223.91"/><text class="d" transform="translate(354.82 61.38)">11.9</text><text class="f" transform="translate(359.65 302.59)">&apos;16</text><text class="f" transform="translate(311.13 302.59)">&apos;15</text><text class="f" transform="translate(262.6 302.59)">&apos;14</text><text class="f" transform="translate(214.07 302.59)">&apos;13</text><text class="f" transform="translate(165.54 302.59)">&apos;12</text><text class="f" transform="translate(117.01 302.59)">&apos;11</text><text class="f" transform="translate(68.48 302.59)">&apos;10</text><text class="f" transform="translate(19.96 302.59)">&apos;09</text><text class="g" transform="translate(1 23.79)"><tspan class="h">R</tspan><tspan class="i" x="6.09" y="0">e</tspan><tspan class="j" x="11.36" y="0">fu</tspan><tspan class="k" x="20.58" y="0">g</tspan><tspan class="j" x="25.77" y="0">ee in a p</tspan><tspan class="l" x="62.68" y="0">r</tspan><tspan class="m" x="66.26" y="0">o</tspan><tspan class="j" x="71.91" y="0">t</tspan><tspan class="n" x="75.63" y="0">r</tspan><tspan class="j" x="79.29" y="0">ac</tspan><tspan class="o" x="89.19" y="0">t</tspan><tspan class="j" x="92.87" y="0">ed situ</tspan><tspan class="p" x="122.61" y="0">a</tspan><tspan class="j" x="127.61" y="0">tion</tspan><tspan class="q" x="145.43" y="0" xml:space="preserve"> | 2009 - 2016, </tspan><tspan class="r" x="213.68" y="0">(</tspan><tspan class="s" x="216.05" y="0">million</tspan><tspan class="t" x="242.55" y="0">s</tspan><tspan class="s" x="246.29" y="0">)</tspan></text><text class="u" transform="translate(1 315.04)"><tspan class="v">S</tspan><tspan class="j" x="3.83" y="0">ou</tspan><tspan class="w" x="11.8" y="0">r</tspan><tspan class="x" x="14.31" y="0">c</tspan><tspan class="y" x="17.62" y="0">e:</tspan><tspan class="z" x="23.16" y="0" xml:space="preserve"> UNHCR</tspan></text><text class="aa" transform="translate(1 8.54)"><tspan class="ab">F</tspan><tspan x="5.61" y="0">igu</tspan><tspan class="ac" x="18.44" y="0">r</tspan><tspan x="21.69" y="0">e 3</tspan></text></svg>