<svg xmlns="http://www.w3.org/2000/svg" viewBox="0 0 496.05 345.81"><defs><style>.a,.b,.c,.cm,.cn,.co{fill:none;stroke-miterlimit:10;}.a,.b{stroke:#808285;stroke-linecap:round;}.a,.b,.c{stroke-width:0.75px;}.b{stroke-dasharray:0 4;}.c{stroke:#231f20;stroke-linecap:square;}.bd,.d{font-size:9px;}.d,.n{fill:#231f20;}.aa,.ab,.bd,.bl,.bw,.cr,.d,.e,.n,.x,.y,.z{font-family:Lato-Regular, Lato;}.bj,.bw,.cr,.e,.n{font-size:8px;}.e,.r{fill:#808285;}.f{letter-spacing:-0.03em;}.g{letter-spacing:0em;}.h{letter-spacing:-0.03em;}.i{letter-spacing:0em;}.j{letter-spacing:-0.02em;}.k{letter-spacing:-0.04em;}.l{letter-spacing:-0.02em;}.m{fill:#d0d2d3;}.o{letter-spacing:-0.04em;}.p{letter-spacing:-0.01em;}.q{letter-spacing:0em;}.r{font-size:7px;}.af,.bj,.r{font-family:Lato-Bold, Lato;}.al,.am,.an,.ao,.ap,.aq,.ar,.as,.at,.au,.av,.aw,.bk,.s,.t,.u,.v,.w{font-weight:700;}.ba,.ce,.s{letter-spacing:0em;}.u{letter-spacing:-0.01em;}.v{letter-spacing:-0.01em;}.w,.z{letter-spacing:0em;}.y{letter-spacing:-0.04em;}.aa,.cj{letter-spacing:-0.02em;}.ab{letter-spacing:-0.01em;}.ac,.af{font-size:10px;}.ac,.ax,.ay,.az,.ba,.bb,.bc{font-family:Lato-Light, Lato;}.ad{letter-spacing:0em;}.ae{letter-spacing:-0.03em;}.af{fill:#0072bc;}.ag{letter-spacing:0em;}.ah{letter-spacing:-0.01em;}.ai{letter-spacing:-0.02em;}.aj{letter-spacing:-0.01em;}.ak{letter-spacing:-0.02em;}.al{letter-spacing:-0.01em;}.am{letter-spacing:-0.01em;}.an{letter-spacing:0em;}.ao{letter-spacing:-0.03em;}.ap{letter-spacing:-0.02em;}.aq{letter-spacing:-0.01em;}.ar{letter-spacing:-0.03em;}.as{letter-spacing:-0.01em;}.at,.bo{letter-spacing:-0.02em;}.au{letter-spacing:-0.03em;}.av{letter-spacing:-0.09em;}.aw{letter-spacing:-0.01em;}.ay{letter-spacing:-0.01em;}.az{letter-spacing:-0.01em;}.bb{letter-spacing:-0.02em;}.bc{letter-spacing:-0.01em;}.be{letter-spacing:-0.01em;}.bf{letter-spacing:-0.01em;}.bg{letter-spacing:-0.02em;}.bh{letter-spacing:-0.01em;}.bi{letter-spacing:-0.02em;}.bj,.bw,.cr{fill:#ef4a60;}.bk,.bz{letter-spacing:0em;}.bl,.cg{letter-spacing:-0.01em;}.bm{letter-spacing:-0.01em;}.bn{letter-spacing:-0.02em;}.bp{letter-spacing:-0.01em;}.bq{letter-spacing:-0.03em;}.br{letter-spacing:-0.01em;}.bs{letter-spacing:0em;}.bt{letter-spacing:-0.01em;}.bu{letter-spacing:-0.01em;}.bv{letter-spacing:-0.03em;}.bx{letter-spacing:-0.04em;}.by{letter-spacing:-0.03em;}.ca{letter-spacing:0em;}.cb{letter-spacing:-0.01em;}.cc{letter-spacing:-0.01em;}.cd{letter-spacing:-0.06em;}.cf{letter-spacing:-0.01em;}.ch{letter-spacing:-0.02em;}.ci{letter-spacing:-0.02em;}.ck{letter-spacing:-0.02em;}.cl{letter-spacing:-0.11em;}.cm,.cn,.co{stroke:#ef4a60;}.cm,.cn{stroke-width:0.5px;}.cn{stroke-dasharray:2 4;}.cp{letter-spacing:-0.02em;}.cq{letter-spacing:-0.01em;}.cr{letter-spacing:0em;}.cs{letter-spacing:-0.02em;}.ct{letter-spacing:-0.03em;}.cu{letter-spacing:-0.01em;}.cv{letter-spacing:0em;}</style></defs><title>basic-elements-print</title><line class="a" x1="108.11" y1="142.87" x2="108.11" y2="142.87"/><line class="b" x1="112.1" y1="142.87" x2="473.95" y2="142.87"/><line class="a" x1="475.95" y1="142.87" x2="475.95" y2="142.87"/><line class="a" x1="108.11" y1="171.88" x2="108.11" y2="171.88"/><line class="b" x1="112.1" y1="171.88" x2="473.95" y2="171.88"/><line class="a" x1="475.95" y1="171.88" x2="475.95" y2="171.88"/><line class="a" x1="108.11" y1="200.9" x2="108.11" y2="200.9"/><line class="b" x1="112.1" y1="200.9" x2="473.95" y2="200.9"/><line class="a" x1="475.95" y1="200.9" x2="475.95" y2="200.9"/><line class="a" x1="108.11" y1="229.91" x2="108.11" y2="229.91"/><line class="b" x1="112.1" y1="229.91" x2="473.95" y2="229.91"/><line class="a" x1="475.95" y1="229.91" x2="475.95" y2="229.91"/><line class="a" x1="108.11" y1="258.92" x2="108.11" y2="258.92"/><line class="b" x1="112.1" y1="258.92" x2="473.95" y2="258.92"/><line class="a" x1="475.95" y1="258.92" x2="475.95" y2="258.92"/><line class="c" x1="108.11" y1="288.07" x2="475.95" y2="288.07"/><text class="d" transform="translate(112.11 300.56)">Label</text><text class="d" transform="translate(160.51 300.56)">Label</text><text class="d" transform="translate(208.91 300.56)">Label</text><text class="d" transform="translate(257.32 300.56)">Label</text><text class="d" transform="translate(305.72 300.56)">Label</text><text class="d" transform="translate(354.13 300.56)">Label</text><text class="d" transform="translate(402.53 300.56)">Label</text><text class="d" transform="translate(450.94 300.56)">Label</text><text class="e" transform="translate(416.93 313.85)">X<tspan class="f" x="5.19" y="0"> </tspan><tspan class="g" x="6.97" y="0">Axis</tspan><tspan class="h" x="21.76" y="0"> </tspan><tspan class="i" x="23.56" y="0">T</tspan><tspan x="28.26" y="0">itle </tspan><tspan class="j" x="41.21" y="0">(</tspan><tspan x="43.17" y="0">unit)</tspan></text><text class="d" transform="translate(79.1 145.52)">Label</text><text class="d" transform="translate(79.1 174.54)">Label</text><text class="d" transform="translate(79.1 203.55)">Label</text><text class="d" transform="translate(79.1 232.56)">Label</text><text class="d" transform="translate(79.1 261.58)">Label</text><text class="d" transform="translate(79.1 290.59)">Label</text><text class="e" transform="translate(79.1 131.65)"><tspan class="k">Y</tspan><tspan class="f" x="4.68" y="0"> </tspan><tspan x="6.46" y="0">Axis</tspan><tspan class="h" x="21.24" y="0"> </tspan><tspan class="i" x="23.05" y="0">T</tspan><tspan x="27.75" y="0">itle </tspan><tspan class="l" x="40.7" y="0">(</tspan><tspan x="42.66" y="0">unit)</tspan></text><rect class="m" x="421.02" y="124.54" width="8" height="8"/><text class="n" transform="translate(433.02 131.9)"><tspan class="o">L</tspan><tspan x="3.82" y="0">e</tspan><tspan class="p" x="8.04" y="0">g</tspan><tspan x="12.14" y="0">end i</tspan><tspan class="q" x="29.27" y="0">t</tspan><tspan x="32.12" y="0">em</tspan></text><rect class="m" x="358.1" y="124.54" width="8" height="8"/><text class="n" transform="translate(370.1 131.9)"><tspan class="o">L</tspan><tspan x="3.82" y="0">e</tspan><tspan class="p" x="8.04" y="0">g</tspan><tspan x="12.14" y="0">end i</tspan><tspan class="q" x="29.27" y="0">t</tspan><tspan x="32.12" y="0">em</tspan></text><text class="r" transform="translate(79.1 314)"><tspan class="s">S</tspan><tspan class="t" x="3.83" y="0">ou</tspan><tspan class="u" x="11.8" y="0">r</tspan><tspan class="v" x="14.31" y="0">c</tspan><tspan class="w" x="17.62" y="0">e:</tspan><tspan class="x" x="23.16" y="0"> </tspan><tspan class="y" x="24.95" y="0">L</tspan><tspan class="z" x="28.29" y="0">o</tspan><tspan class="aa" x="32.26" y="0">r</tspan><tspan class="z" x="34.66" y="0">em </tspan><tspan class="ab" x="45.91" y="0">I</tspan><tspan class="z" x="47.82" y="0">psum</tspan></text><text class="ac" transform="translate(79.1 68.93)"><tspan class="ad">F</tspan><tspan x="5.61" y="0">igu</tspan><tspan class="ae" x="18.44" y="0">r</tspan><tspan x="21.69" y="0">e XX</tspan></text><text class="af" transform="translate(79.1 82.99)"><tspan class="t"><tspan class="ag">T</tspan><tspan x="5.96" y="0">itle </tspan><tspan class="ah" x="22.47" y="0">o</tspan><tspan class="ai" x="28.09" y="0">f</tspan><tspan x="31.48" y="0" xml:space="preserve"> the Chart - </tspan><tspan class="aj" x="84.42" y="0">S</tspan><tspan x="89.83" y="0">hould be as </tspan><tspan class="aj" x="142.79" y="0">S</tspan><tspan x="148.21" y="0">hort as </tspan><tspan class="ak" x="181.37" y="0">P</tspan><tspan x="187.32" y="0">ossible</tspan></tspan><tspan class="t" x="0" y="12">but </tspan><tspan class="al" x="17.46" y="12">D</tspan><tspan class="am" x="25" y="12">e</tspan><tspan class="t" x="30.27" y="12">fini</tspan><tspan class="an" x="44.46" y="12">t</tspan><tspan class="t" x="48.13" y="12">el</tspan><tspan class="ao" x="55.96" y="12">y</tspan><tspan class="t" x="60.98" y="12"> </tspan><tspan class="ap" x="63.41" y="12">N</tspan><tspan class="aq" x="70.96" y="12">o</tspan><tspan class="t" x="76.61" y="12">t </tspan><tspan class="ar" x="82.76" y="12">L</tspan><tspan class="t" x="87.69" y="12">on</tspan><tspan class="as" x="99.08" y="12">g</tspan><tspan class="t" x="104.27" y="12">e</tspan><tspan class="at" x="109.61" y="12">r</tspan><tspan class="t" x="113.13" y="12" xml:space="preserve"> than</tspan><tspan class="au" x="135.63" y="12"> </tspan><tspan class="av" x="137.76" y="12">T</tspan><tspan class="aw" x="142.9" y="12">w</tspan><tspan class="t" x="150.84" y="12">o Lines</tspan><tspan class="ax" x="182.12" y="12" xml:space="preserve"> | </tspan><tspan class="ay" x="189.94" y="12">D</tspan><tspan class="az" x="197.4" y="12">a</tspan><tspan class="ba" x="202.18" y="12">t</tspan><tspan class="ax" x="205.59" y="12">e o</tspan><tspan class="bb" x="219.1" y="12">r</tspan><tspan class="ax" x="222.42" y="12"> </tspan><tspan class="bc" x="225.14" y="12">U</tspan><tspan class="ax" x="232.27" y="12">nits</tspan></text><text class="bd" transform="translate(79.1 108.37)"><tspan class="be">S</tspan><tspan x="4.79" y="0">u</tspan><tspan class="bf" x="9.81" y="0">b</tspan><tspan x="14.79" y="0">title i</tspan><tspan class="bg" x="34.9" y="0">f</tspan><tspan x="37.89" y="0" xml:space="preserve"> ne</tspan><tspan class="bh" x="49.97" y="0">c</tspan><tspan x="54.18" y="0">essar</tspan><tspan class="bi" x="74.48" y="0">y</tspan></text><text class="bj" transform="translate(341.63 45.75)"><tspan class="bk">T<tspan class="g" x="4.76" y="0">itle</tspan></tspan><tspan class="bl"><tspan x="0" y="9.6">B</tspan><tspan class="g" x="5.11" y="9.6">old</tspan></tspan><tspan class="x"><tspan x="0" y="19.2">Lig</tspan><tspan class="bm" x="10.19" y="19.2">h</tspan><tspan x="14.6" y="19.2">t </tspan><tspan class="bn" x="19.51" y="19.2">f</tspan><tspan x="22.18" y="19.2">o</tspan><tspan class="bo" x="26.72" y="19.2">r</tspan><tspan x="29.46" y="19.2" xml:space="preserve"> d</tspan><tspan class="bp" x="35.99" y="19.2">a</tspan><tspan class="q" x="39.92" y="19.2">t</tspan><tspan x="42.76" y="19.2">e</tspan><tspan class="bq" x="46.99" y="19.2">/</tspan><tspan x="50.4" y="19.2">units</tspan><tspan x="0" y="28.8">10 </tspan><tspan class="br" x="11.33" y="28.8">p</tspan><tspan class="bs" x="15.76" y="28.8">t</tspan><tspan x="0" y="38.4">CMYK: 99 50 0 0</tspan></tspan></text><text class="bj" transform="translate(33.4 94.24)"><tspan class="t"><tspan class="bt">S</tspan><tspan class="bs" x="4.32" y="0">u</tspan><tspan class="bu" x="8.83" y="0">b</tspan><tspan x="13.31" y="0">title</tspan></tspan><tspan class="x"><tspan class="bv" x="1.49" y="9.6">R</tspan><tspan x="6.24" y="9.6">egula</tspan><tspan class="bo" x="24.95" y="9.6">r</tspan><tspan x="13.71" y="19.2">9 </tspan><tspan class="bp" x="20.4" y="19.2">p</tspan><tspan class="bs" x="24.83" y="19.2">t</tspan><tspan x="-33.4" y="28.8">CMYK: 0 0 0 100</tspan></tspan></text><text class="bw" transform="translate(57.16 75.31)">4<tspan class="bp" x="4.64" y="0">p</tspan><tspan class="bs" x="9.07" y="0">t</tspan></text><text class="bj" transform="translate(152.65 131.68)"><tspan class="t"><tspan class="bx">Y</tspan><tspan class="f" x="4.86" y="0"> </tspan><tspan x="6.53" y="0">Axis</tspan><tspan class="by" x="21.81" y="0"> </tspan><tspan class="bz" x="23.51" y="0">T</tspan><tspan x="28.28" y="0">itle</tspan></tspan><tspan class="x"><tspan class="bv" x="0" y="9.6">R</tspan><tspan x="4.75" y="9.6">egula</tspan><tspan class="bo" x="23.46" y="9.6">r</tspan><tspan x="0" y="19.2">8 </tspan><tspan class="br" x="6.69" y="19.2">p</tspan><tspan x="11.12" y="19.2">t</tspan><tspan x="0" y="28.8">CMYK: 0 0 0 60</tspan></tspan></text><text class="bj" transform="translate(140.1 30.71)"><tspan class="t"><tspan class="ca">F</tspan><tspan x="4.52" y="0">igu</tspan><tspan class="cb" x="15.29" y="0">r</tspan><tspan x="18.16" y="0">e </tspan><tspan class="cc" x="24.37" y="0">N</tspan><tspan class="g" x="30.46" y="0">umber</tspan></tspan><tspan class="x"><tspan x="0" y="9.6">Lig</tspan><tspan class="bm" x="10.19" y="9.6">h</tspan><tspan x="14.6" y="9.6">t</tspan><tspan x="0" y="19.2">10 </tspan><tspan class="br" x="11.33" y="19.2">p</tspan><tspan class="bs" x="15.76" y="19.2">t</tspan><tspan x="0" y="28.8">CMYK: 0 0 0 100</tspan></tspan></text><text class="bj" transform="translate(355.87 313.87)"><tspan class="t">X<tspan class="f" x="5.36" y="0"> </tspan><tspan x="7.04" y="0">Axis</tspan><tspan class="by" x="22.32" y="0"> </tspan><tspan class="bz" x="24.02" y="0">T</tspan><tspan x="28.78" y="0">itle</tspan></tspan><tspan class="x"><tspan class="bv" x="13.85" y="9.6">R</tspan><tspan x="18.6" y="9.6">egula</tspan><tspan class="bo" x="37.31" y="9.6">r</tspan><tspan x="26.06" y="19.2">8 </tspan><tspan class="bp" x="32.75" y="19.2">p</tspan><tspan class="bs" x="37.18" y="19.2">t</tspan><tspan x="-16.4" y="28.8">CMYK: 0 0 0 60</tspan></tspan></text><text class="bj" transform="translate(380.55 247.61)"><tspan class="t">X<tspan class="f" x="5.36" y="0"> </tspan><tspan x="7.04" y="0">Axis Line</tspan></tspan><tspan class="x"><tspan class="cd" x="0" y="9.6">W</tspan><tspan x="7.83" y="9.6">eig</tspan><tspan class="bm" x="18.14" y="9.6">h</tspan><tspan x="22.54" y="9.6">t: 0.75</tspan><tspan class="bp" x="45.27" y="9.6">p</tspan><tspan class="bs" x="49.7" y="9.6">t</tspan><tspan class="i" x="0" y="19.2">S</tspan><tspan x="4.32" y="19.2">olid</tspan><tspan x="0" y="28.8">CMYK: 0 0 0 100</tspan></tspan></text><text class="bj" transform="translate(164.53 314.86)"><tspan class="t"><tspan class="ce">S</tspan><tspan x="4.38" y="0">ou</tspan><tspan class="cb" x="13.48" y="0">r</tspan><tspan class="cf" x="16.35" y="0">c</tspan><tspan x="20.14" y="0">es</tspan></tspan><tspan class="x"><tspan class="cg" x="0" y="9.6">B</tspan><tspan class="g" x="5.11" y="9.6">old</tspan><tspan class="ch" x="16.02" y="9.6"> </tspan><tspan class="bm" x="17.9" y="9.6">w</tspan><tspan x="24.13" y="9.6">o</tspan><tspan class="ci" x="28.66" y="9.6">r</tspan><tspan x="31.42" y="9.6">d “</tspan><tspan class="i" x="40.87" y="9.6">S</tspan><tspan x="45.19" y="9.6">ou</tspan><tspan class="cj" x="54.18" y="9.6">r</tspan><tspan class="cf" x="56.93" y="9.6">c</tspan><tspan class="ck" x="60.68" y="9.6">e</tspan><tspan class="cl" x="64.76" y="9.6">”</tspan><tspan x="66.84" y="9.6">, </tspan><tspan class="bv" x="70.7" y="9.6">R</tspan><tspan class="g" x="75.45" y="9.6">est </tspan><tspan class="cj" x="88.06" y="9.6">r</tspan><tspan x="90.8" y="9.6">egula</tspan><tspan class="bo" x="109.51" y="9.6">r</tspan><tspan x="0" y="19.2">7 </tspan><tspan class="br" x="6.69" y="19.2">p</tspan><tspan x="11.12" y="19.2">t</tspan><tspan x="0" y="28.8">CMYK: 0 0 0 60</tspan></tspan></text><text class="bj" transform="translate(21.34 265.82)"><tspan class="t">Axis Labels</tspan><tspan class="x"><tspan class="bv" x="13.55" y="9.6">R</tspan><tspan x="18.3" y="9.6">egula</tspan><tspan class="bo" x="37.01" y="9.6">r</tspan><tspan x="25.77" y="19.2">9 </tspan><tspan class="bp" x="32.46" y="19.2">p</tspan><tspan class="bs" x="36.89" y="19.2">t</tspan><tspan x="-21.34" y="28.8">CMYK: 0 0 0 100</tspan></tspan></text><line class="cm" x1="79.1" y1="14.04" x2="79.1" y2="15.04"/><line class="cn" x1="79.1" y1="19.04" x2="79.1" y2="311"/><line class="cm" x1="79.1" y1="313" x2="79.1" y2="314"/><line class="cm" x1="475.95" y1="14.04" x2="475.95" y2="15.04"/><line class="cn" x1="475.95" y1="19.04" x2="475.95" y2="311"/><line class="cm" x1="475.95" y1="313" x2="475.95" y2="314"/><polyline class="cm" points="329.62 76.28 332.62 79.28 332.62 96.28 329.62 99.28"/><polyline class="cm" points="332.62 87.78 337.63 87.78 337.63 38.86"/><polyline class="cm" points="127.08 60.29 130.08 61.73 130.08 69.86 127.08 71.29"/><polyline class="cm" points="130.08 65.79 135.1 65.79 135.1 25.66"/><line class="cm" x1="144.6" y1="129.29" x2="148.6" y2="129.29"/><polyline class="cm" points="74.09 100.76 71.09 102.2 71.09 110.33 74.09 111.76"/><polyline class="cm" points="141.6 134.79 144.6 133.36 144.6 125.22 141.6 123.79"/><polyline class="cm" points="74.09 253.42 71.09 254.86 71.09 262.99 74.09 264.42"/><polyline class="cm" points="108.11 292.41 105.11 293.85 105.11 301.98 108.11 303.41"/><polyline class="cm" points="412.93 305.99 409.93 307.42 409.93 315.55 412.93 316.99"/><line class="cm" x1="71.1" y1="106.26" x2="66.08" y2="106.26"/><line class="cm" x1="409.93" y1="311.49" x2="399.93" y2="311.49"/><polyline class="cm" points="147.53 306.48 150.53 307.92 150.53 316.05 147.53 317.48"/><line class="cm" x1="150.53" y1="311.98" x2="160.53" y2="311.98"/><line class="co" x1="365.55" y1="288.07" x2="465.55" y2="288.07"/><line class="co" x1="365.82" y1="142.87" x2="465.82" y2="142.87"/><line class="cm" x1="375.55" y1="288.07" x2="375.55" y2="240.72"/><text class="bj" transform="translate(380.55 153.76)"><tspan class="t"><tspan class="cp">H</tspan><tspan x="6.04" y="0">ori</tspan><tspan class="cf" x="15.65" y="0">z</tspan><tspan x="19.26" y="0">o</tspan><tspan class="bm" x="23.85" y="0">n</tspan><tspan x="28.31" y="0">tal </tspan><tspan class="cq" x="39.28" y="0">G</tspan><tspan class="bs" x="45.02" y="0">ridlines</tspan></tspan><tspan class="x"><tspan class="cd" x="0" y="9.6">W</tspan><tspan x="7.83" y="9.6">eig</tspan><tspan class="bm" x="18.14" y="9.6">h</tspan><tspan x="22.54" y="9.6">t: 0.75</tspan><tspan class="bp" x="45.27" y="9.6">p</tspan><tspan class="bs" x="49.7" y="9.6">t</tspan><tspan class="bm" x="0" y="19.2">D</tspan><tspan class="bt" x="6.03" y="19.2">o</tspan><tspan class="q" x="10.49" y="19.2">tt</tspan><tspan x="15.94" y="19.2">ed</tspan><tspan x="0" y="28.8">CMYK: 0 0 0 60</tspan></tspan></text><text class="cr" transform="translate(71.92 233.17) rotate(-90)">A<tspan class="g" x="5.4" y="0">lign all eleme</tspan><tspan class="bm" x="50.82" y="0">n</tspan><tspan class="g" x="55.23" y="0">ts</tspan></text><text class="cr" transform="translate(486.81 194.8) rotate(-90)">A<tspan class="g" x="5.4" y="0">lign all eleme</tspan><tspan class="bm" x="50.82" y="0">n</tspan><tspan class="g" x="55.23" y="0">ts</tspan></text><text class="bw" transform="translate(246.05 6.87)"><tspan class="cs">M</tspan><tspan class="g" x="7.31" y="0">ax</tspan><tspan class="cj" x="15.27" y="0"> </tspan><tspan x="17.15" y="0">width: 14 cm</tspan></text><line class="cm" x1="79.1" y1="14.04" x2="475.95" y2="14.04"/><polyline class="cm" points="71.09 258.92 66.08 258.92 66.08 297.91 105.11 297.91"/><text class="bj" transform="translate(298.17 131.43)"><tspan class="t"><tspan class="ct">L</tspan><tspan class="bs" x="3.95" y="0">e</tspan><tspan class="bt" x="8.22" y="0">g</tspan><tspan x="12.37" y="0">end </tspan><tspan class="cu" x="27.64" y="0">I</tspan><tspan class="cv" x="29.9" y="0">t</tspan><tspan x="32.84" y="0">em</tspan></tspan><tspan class="x"><tspan class="bv" x="17.61" y="9.6">R</tspan><tspan x="22.36" y="9.6">egula</tspan><tspan class="bo" x="41.07" y="9.6">r</tspan><tspan x="29.83" y="19.2">8 </tspan><tspan class="bp" x="36.52" y="19.2">p</tspan><tspan class="bs" x="40.95" y="19.2">t</tspan><tspan x="-17.28" y="28.8">CMYK: 0 0 0 100</tspan></tspan></text><polyline class="cm" points="354.1 123.04 351.1 124.47 351.1 132.6 354.1 134.04"/><line class="cm" x1="351.1" y1="128.54" x2="346.1" y2="128.54"/><polyline class="cm" points="75.09 68.63 71.09 68.63 73.09 68.63 73.09 75.27 71.09 75.27 75.09 75.27"/><text class="bw" transform="translate(168.14 104.41)">4<tspan class="bp" x="4.64" y="0">p</tspan><tspan class="bs" x="9.07" y="0">t</tspan></text><polyline class="cm" points="166.14 97.74 162.14 97.74 164.14 97.74 164.14 104.37 162.14 104.37 166.14 104.37"/><text class="bw" transform="translate(108.11 138.84)">4<tspan class="bp" x="4.64" y="0">p</tspan><tspan class="bs" x="9.07" y="0">t</tspan></text><polyline class="cm" points="106.11 132.16 102.11 132.16 104.11 132.16 104.11 138.8 102.11 138.8 106.11 138.8"/><text class="bw" transform="translate(98.14 119.86)">12<tspan class="br" x="9.28" y="0">p</tspan><tspan x="13.71" y="0">t</tspan></text><polyline class="cm" points="96.14 110.73 92.14 110.73 94.14 110.73 94.14 124.28 92.14 124.28 96.14 124.28"/><text class="bw" transform="translate(484.11 307.84)">4<tspan class="bp" x="4.64" y="0">p</tspan><tspan class="bs" x="9.07" y="0">t</tspan></text><polyline class="cm" points="482.11 301.16 478.11 301.16 480.11 301.16 480.11 307.8 478.11 307.8 482.11 307.8"/></svg>