<svg xmlns="http://www.w3.org/2000/svg" viewBox="0 0 765.63 504.27"><defs><style>.a,.b,.bs,.bt,.bu,.bv{fill:none;stroke-miterlimit:10;}.a{stroke:#ccc;}.b{stroke:#231f20;}.c,.d,.z{font-size:12px;}.c{fill:#231f20;}.ba,.bw,.c,.d,.da,.u,.v,.w,.x,.y{font-family:Lato-Regular, Lato;}.d{fill:#666;}.e{letter-spacing:-0.03em;}.f{letter-spacing:0em;}.g{letter-spacing:-0.03em;}.h{letter-spacing:0em;}.i{letter-spacing:-0.02em;}.j{fill:#d0d2d3;}.k{letter-spacing:-0.04em;}.l{letter-spacing:0em;}.m{letter-spacing:-0.01em;}.n{letter-spacing:0em;}.bw,.o{font-size:11px;}.o{fill:#999;}.ac,.bi,.o{font-family:Lato-Bold, Lato;}.ai,.aj,.ak,.al,.am,.an,.ao,.ap,.aq,.ar,.as,.at,.p,.q,.r,.s,.t{font-weight:700;}.p{letter-spacing:0em;}.r{letter-spacing:-0.01em;}.s{letter-spacing:-0.01em;}.t,.x{letter-spacing:0em;}.v{letter-spacing:-0.04em;}.w{letter-spacing:-0.02em;}.y{letter-spacing:-0.01em;}.au,.av,.aw,.ax,.ay,.az,.z{font-family:Lato-Light, Lato;}.aa{letter-spacing:0em;}.ab{letter-spacing:-0.03em;}.ac{font-size:18px;fill:#0072bc;}.ad{letter-spacing:0em;}.ae{letter-spacing:-0.01em;}.af{letter-spacing:-0.02em;}.ag{letter-spacing:-0.01em;}.ah{letter-spacing:-0.02em;}.ai{letter-spacing:-0.01em;}.aj{letter-spacing:-0.01em;}.ak{letter-spacing:0em;}.al{letter-spacing:-0.03em;}.am{letter-spacing:-0.02em;}.an{letter-spacing:-0.01em;}.ao{letter-spacing:-0.03em;}.ap{letter-spacing:-0.01em;}.aq,.ce{letter-spacing:-0.02em;}.ar{letter-spacing:-0.03em;}.as{letter-spacing:-0.09em;}.at{letter-spacing:-0.01em;}.av{letter-spacing:-0.01em;}.aw{letter-spacing:-0.01em;}.ax{letter-spacing:0em;}.ay{letter-spacing:-0.02em;}.az{letter-spacing:-0.01em;}.ba{font-size:14px;}.bb{letter-spacing:-0.01em;}.bc{letter-spacing:-0.01em;}.bd{letter-spacing:-0.02em;}.be{letter-spacing:-0.01em;}.bf{letter-spacing:-0.02em;}.bg{letter-spacing:-0.04em;}.bh{letter-spacing:-0.03em;}.bi{font-size:10px;}.bi,.bw,.da{fill:#ef4a60;}.bj{letter-spacing:0em;}.bk{letter-spacing:-0.01em;}.bl{letter-spacing:-0.01em;}.bm{letter-spacing:-0.02em;}.bn{letter-spacing:-0.01em;}.bo{letter-spacing:0em;}.bp{letter-spacing:-0.02em;}.bq{letter-spacing:-0.01em;}.br{letter-spacing:-0.01em;}.bs,.bt,.bu,.bv{stroke:#ef4a60;}.bs,.bt,.bu{stroke-width:0.5px;}.bt{stroke-dasharray:1.99 3.97;}.bu{stroke-dasharray:1.99 3.97;}.bx{letter-spacing:0em;}.by{letter-spacing:0em;}.bz{letter-spacing:-0.01em;}.ca{letter-spacing:0em;}.cb{letter-spacing:-0.22em;}.cc{letter-spacing:-0.04em;}.cd{letter-spacing:0em;}.cf{letter-spacing:-0.01em;}.cg{letter-spacing:0em;}.ch{letter-spacing:-0.03em;}.ci{letter-spacing:-0.02em;}.cj{letter-spacing:-0.01em;}.ck{letter-spacing:-0.01em;}.cl{letter-spacing:-0.02em;}.cm{letter-spacing:-0.02em;}.cn{letter-spacing:-0.01em;}.co{letter-spacing:-0.03em;}.cp{letter-spacing:-0.03em;}.cq{letter-spacing:-0.01em;}.cr{letter-spacing:0em;}.cs{letter-spacing:-0.04em;}.ct{letter-spacing:-0.03em;}.cu{letter-spacing:0em;}.cv{letter-spacing:-0.04em;}.cw{letter-spacing:0em;}.cx{letter-spacing:-0.02em;}.cy{letter-spacing:-0.01em;}.cz{letter-spacing:-0.02em;}.da{font-size:8px;}.db{letter-spacing:0em;}</style></defs><title>basic-elements-web</title><line class="a" x1="128.69" y1="171.45" x2="742.69" y2="171.45"/><line class="a" x1="128.69" y1="220.25" x2="742.69" y2="220.25"/><line class="a" x1="128.69" y1="269.05" x2="742.69" y2="269.05"/><line class="a" x1="128.69" y1="317.85" x2="742.69" y2="317.85"/><line class="a" x1="128.69" y1="366.65" x2="742.69" y2="366.65"/><line class="b" x1="128.69" y1="415.45" x2="742.69" y2="415.45"/><text class="c" transform="translate(136.69 433.74)">Label</text><text class="c" transform="translate(218.11 433.74)">Label</text><text class="c" transform="translate(299.54 433.74)">Label</text><text class="c" transform="translate(380.96 433.74)">Label</text><text class="c" transform="translate(462.39 433.74)">Label</text><text class="c" transform="translate(543.82 433.74)">Label</text><text class="c" transform="translate(625.24 433.74)">Label</text><text class="c" transform="translate(706.67 433.74)">Label</text><text class="d" transform="translate(654.16 455.26)">X<tspan class="e" x="7.79" y="0"> </tspan><tspan class="f" x="10.46" y="0">Axis</tspan><tspan class="g" x="32.63" y="0"> </tspan><tspan class="h" x="35.35" y="0">T</tspan><tspan x="42.4" y="0">itle </tspan><tspan class="i" x="61.82" y="0">(</tspan><tspan x="64.76" y="0">unit)</tspan></text><text class="c" transform="translate(92.67 174.1)">Label</text><text class="c" transform="translate(92.67 223.78)">Label</text><text class="c" transform="translate(92.67 272.58)">Label</text><text class="c" transform="translate(92.67 321.38)">Label</text><text class="c" transform="translate(92.67 370.18)">Label</text><text class="c" transform="translate(92.67 418.98)">Label</text><rect class="j" x="666.3" y="145.28" width="8" height="8"/><text class="c" transform="translate(678.3 152.64)"><tspan class="k">L</tspan><tspan class="l" x="5.72" y="0">e</tspan><tspan class="m" x="12.06" y="0">g</tspan><tspan class="l" x="18.2" y="0">end i</tspan><tspan class="n" x="43.91" y="0">t</tspan><tspan x="48.18" y="0">em</tspan></text><rect class="j" x="577.91" y="145.28" width="8" height="8"/><text class="c" transform="translate(589.91 152.64)"><tspan class="k">L</tspan><tspan class="l" x="5.72" y="0">e</tspan><tspan class="m" x="12.06" y="0">g</tspan><tspan class="l" x="18.2" y="0">end i</tspan><tspan class="n" x="43.91" y="0">t</tspan><tspan x="48.18" y="0">em</tspan></text><text class="o" transform="translate(92.67 455.35)"><tspan class="p">S</tspan><tspan class="q" x="6.02" y="0">ou</tspan><tspan class="r" x="18.54" y="0">r</tspan><tspan class="s" x="22.48" y="0">c</tspan><tspan class="t" x="27.69" y="0">e:</tspan><tspan class="u" x="36.39" y="0"> </tspan><tspan class="v" x="39.21" y="0">L</tspan><tspan class="u" x="44.46" y="0">o</tspan><tspan class="w" x="50.69" y="0">r</tspan><tspan class="x" x="54.47" y="0">em </tspan><tspan class="y" x="72.14" y="0">I</tspan><tspan class="x" x="75.14" y="0">psum</tspan></text><text class="z" transform="translate(92.67 45.89)"><tspan class="aa">F</tspan><tspan x="6.73" y="0">igu</tspan><tspan class="ab" x="22.12" y="0">r</tspan><tspan x="26.03" y="0">e XX</tspan></text><text class="ac" transform="translate(92.67 70.43)"><tspan class="q"><tspan class="ad">T</tspan><tspan x="10.72" y="0">itle </tspan><tspan class="ae" x="40.44" y="0">o</tspan><tspan class="af" x="50.56" y="0">f</tspan><tspan x="56.67" y="0" xml:space="preserve"> the Chart - </tspan><tspan class="ag" x="151.95" y="0">S</tspan><tspan x="161.69" y="0">hould be as </tspan><tspan class="ag" x="257.02" y="0">S</tspan><tspan x="266.77" y="0">hort as </tspan><tspan class="ah" x="326.47" y="0">P</tspan><tspan x="337.19" y="0">ossible</tspan></tspan><tspan class="q" x="0" y="21.6">but </tspan><tspan class="ai" x="31.44" y="21.6">D</tspan><tspan class="aj" x="45.01" y="21.6">e</tspan><tspan class="q" x="54.49" y="21.6">fini</tspan><tspan class="ak" x="80.02" y="21.6">t</tspan><tspan class="q" x="86.64" y="21.6">el</tspan><tspan class="al" x="100.73" y="21.6">y</tspan><tspan class="q" x="109.77" y="21.6"> </tspan><tspan class="am" x="114.15" y="21.6">N</tspan><tspan class="an" x="127.74" y="21.6">o</tspan><tspan class="q" x="137.9" y="21.6">t </tspan><tspan class="ao" x="148.97" y="21.6">L</tspan><tspan class="q" x="157.85" y="21.6">on</tspan><tspan class="ap" x="178.35" y="21.6">g</tspan><tspan class="q" x="187.69" y="21.6">e</tspan><tspan class="aq" x="197.3" y="21.6">r</tspan><tspan class="q" x="203.64" y="21.6" xml:space="preserve"> than</tspan><tspan class="ar" x="244.15" y="21.6"> </tspan><tspan class="as" x="247.97" y="21.6">T</tspan><tspan class="at" x="257.22" y="21.6">w</tspan><tspan class="q" x="271.51" y="21.6">o Lines </tspan><tspan class="au" x="332.2" y="21.6">| </tspan><tspan class="av" x="341.38" y="21.6">D</tspan><tspan class="aw" x="354.81" y="21.6">a</tspan><tspan class="ax" x="363.42" y="21.6">t</tspan><tspan class="au" x="369.56" y="21.6">e o</tspan><tspan class="ay" x="393.88" y="21.6">r</tspan><tspan class="au" x="399.85" y="21.6"> </tspan><tspan class="az" x="404.74" y="21.6">U</tspan><tspan class="au" x="417.58" y="21.6">nits</tspan></text><text class="ba" transform="translate(92.67 115.29)"><tspan class="bb">S</tspan><tspan x="7.45" y="0">u</tspan><tspan class="bc" x="15.26" y="0">b</tspan><tspan x="23.01" y="0">title i</tspan><tspan class="bd" x="54.29" y="0">f</tspan><tspan x="58.94" y="0" xml:space="preserve"> ne</tspan><tspan class="be" x="77.73" y="0">c</tspan><tspan x="84.29" y="0">essar</tspan><tspan class="bf" x="115.85" y="0">y</tspan></text><text class="d" transform="translate(92.67 151.9)"><tspan class="bg">Y</tspan><tspan class="bh" x="7.01" y="0"> </tspan><tspan x="9.68" y="0">Axis</tspan><tspan class="g" x="31.86" y="0"> </tspan><tspan class="h" x="34.57" y="0">T</tspan><tspan x="41.62" y="0">itle </tspan><tspan class="i" x="61.04" y="0">(</tspan><tspan x="63.98" y="0">unit)</tspan></text><text class="bi" transform="translate(155.99 8.61)"><tspan class="q"><tspan class="bj">F</tspan><tspan x="5.65" y="0">igu</tspan><tspan class="bk" x="19.11" y="0">r</tspan><tspan x="22.69" y="0">e </tspan><tspan class="bl" x="30.46" y="0">N</tspan><tspan x="38.07" y="0">umber</tspan></tspan><tspan class="u"><tspan class="bm" x="0" y="12">f</tspan><tspan x="3.34" y="12">o</tspan><tspan class="bn" x="9.01" y="12">n</tspan><tspan x="14.52" y="12">t-</tspan><tspan class="bn" x="21.82" y="12">w</tspan><tspan x="29.6" y="12">eig</tspan><tspan class="bn" x="42.48" y="12">h</tspan><tspan x="47.99" y="12">t: 300;</tspan><tspan class="bm" x="0" y="24">f</tspan><tspan x="3.34" y="24">o</tspan><tspan class="bn" x="9.01" y="24">n</tspan><tspan x="14.52" y="24">t-si</tspan><tspan class="bl" x="28.55" y="24">z</tspan><tspan class="bo" x="32.97" y="24">e: 12</tspan><tspan class="bp" x="54.91" y="24">p</tspan><tspan x="60.32" y="24">x;</tspan><tspan class="bq" x="0" y="36">c</tspan><tspan x="4.69" y="36">olor: </tspan><tspan class="br" x="27.08" y="36">r</tspan><tspan x="30.61" y="36">gb(0,0,0);</tspan></tspan></text><line class="bs" x1="92.67" y1="37.15" x2="92.67" y2="38.15"/><line class="bt" x1="92.67" y1="42.12" x2="92.67" y2="451.25"/><line class="bs" x1="92.67" y1="453.24" x2="92.67" y2="454.24"/><line class="bs" x1="742.69" y1="37.15" x2="742.69" y2="38.15"/><line class="bu" x1="742.69" y1="42.12" x2="742.69" y2="451.42"/><line class="bs" x1="742.69" y1="453.41" x2="742.69" y2="454.41"/><polyline class="bs" points="542.44 59.01 545.44 63.71 545.44 90.32 542.44 95.01"/><polyline class="bs" points="545.44 78.05 550.46 78.05 550.46 22.13"/><polyline class="bs" points="143.68 36.35 146.68 37.79 146.68 45.92 143.68 47.35"/><polyline class="bs" points="146.97 41.85 151.99 41.85 151.99 1.72"/><polyline class="bs" points="88.67 105.51 85.67 107.21 85.67 116.82 88.67 118.51"/><polyline class="bs" points="88.67 361.15 85.67 362.58 85.67 370.71 88.67 372.15"/><polyline class="bs" points="132.69 424.71 129.69 426.14 129.69 434.27 132.69 435.71"/><line class="bs" x1="85.67" y1="112.01" x2="80.65" y2="112.01"/><line class="bv" x1="571.83" y1="171.45" x2="730.68" y2="171.45"/><line class="bv" x1="571.83" y1="415.45" x2="730.68" y2="415.45"/><line class="bs" x1="576.55" y1="229.56" x2="576.55" y2="171.45"/><line class="bs" x1="576.55" y1="415.45" x2="576.55" y2="357.33"/><text class="bw" transform="translate(756.13 271.89) rotate(-90)"><tspan class="bx">A</tspan><tspan class="by" x="7.42" y="0">lign all eleme</tspan><tspan class="bz" x="69.88" y="0">n</tspan><tspan x="75.94" y="0">ts</tspan></text><text class="bw" transform="translate(85.72 271.89) rotate(-90)"><tspan class="bx">A</tspan><tspan class="by" x="7.42" y="0">lign all eleme</tspan><tspan class="bz" x="69.88" y="0">n</tspan><tspan x="75.94" y="0">ts</tspan></text><text class="bi" transform="translate(554.46 30.75)"><tspan class="q"><tspan class="ca">T</tspan><tspan x="5.96" y="0">itle</tspan></tspan><tspan class="u"><tspan class="bm" x="0" y="12">f</tspan><tspan x="3.34" y="12">o</tspan><tspan class="bn" x="9.01" y="12">n</tspan><tspan x="14.52" y="12">t-</tspan><tspan class="bn" x="21.82" y="12">w</tspan><tspan x="29.6" y="12">eig</tspan><tspan class="bn" x="42.48" y="12">h</tspan><tspan x="47.99" y="12">t: 700; </tspan><tspan class="cb" x="79.21" y="12">/</tspan><tspan x="81.5" y="12">/</tspan><tspan class="cc" x="86.02" y="12">F</tspan><tspan class="cd" x="91.24" y="12">o</tspan><tspan class="ce" x="96.91" y="12">r</tspan><tspan x="100.34" y="12" xml:space="preserve"> title</tspan><tspan class="bm" x="0" y="24">f</tspan><tspan x="3.34" y="24">o</tspan><tspan class="bn" x="9.01" y="24">n</tspan><tspan x="14.52" y="24">t-</tspan><tspan class="bn" x="21.82" y="24">w</tspan><tspan x="29.6" y="24">eig</tspan><tspan class="bn" x="42.48" y="24">h</tspan><tspan x="47.99" y="24">t: 300; </tspan><tspan class="cb" x="79.21" y="24">/</tspan><tspan x="81.5" y="24">/</tspan><tspan class="cc" x="86.02" y="24">F</tspan><tspan class="cd" x="91.24" y="24">o</tspan><tspan class="ce" x="96.91" y="24">r</tspan><tspan x="100.34" y="24" xml:space="preserve"> d</tspan><tspan class="cf" x="108.5" y="24">a</tspan><tspan class="cg" x="113.4" y="24">t</tspan><tspan class="bo" x="116.96" y="24">e</tspan><tspan class="ch" x="122.24" y="24">/</tspan><tspan class="bo" x="126.51" y="24">units</tspan><tspan class="bm" x="0" y="36">f</tspan><tspan x="3.34" y="36">o</tspan><tspan class="bn" x="9.01" y="36">n</tspan><tspan x="14.52" y="36">t-si</tspan><tspan class="bl" x="28.55" y="36">z</tspan><tspan class="bo" x="32.97" y="36">e: 18</tspan><tspan class="bp" x="54.91" y="36">p</tspan><tspan x="60.32" y="36">x;</tspan><tspan class="bq" x="0" y="48">c</tspan><tspan x="4.69" y="48">olor: </tspan><tspan class="br" x="27.08" y="48">r</tspan><tspan x="30.61" y="48">gb(0,114,188);</tspan></tspan></text><text class="bi" transform="translate(580.55 192.06)"><tspan class="q"><tspan class="ci">H</tspan><tspan x="7.55" y="0">ori</tspan><tspan class="bq" x="19.56" y="0">z</tspan><tspan x="24.07" y="0">o</tspan><tspan class="cj" x="29.81" y="0">n</tspan><tspan class="bo" x="35.38" y="0">tal </tspan><tspan class="ck" x="49.09" y="0">G</tspan><tspan class="cd" x="56.28" y="0">ridlines</tspan></tspan><tspan class="u"><tspan x="0" y="12">bo</tspan><tspan class="cl" x="11.27" y="12">r</tspan><tspan x="14.71" y="12">de</tspan><tspan class="cm" x="25.59" y="12">r</tspan><tspan class="bo" x="29.03" y="12">-width: 1</tspan><tspan class="bp" x="68.62" y="12">p</tspan><tspan x="74.03" y="12">x;</tspan><tspan x="0" y="24">bo</tspan><tspan class="cl" x="11.27" y="24">r</tspan><tspan x="14.71" y="24">de</tspan><tspan class="cm" x="25.59" y="24">r</tspan><tspan class="bo" x="29.03" y="24">-</tspan><tspan class="cj" x="32.75" y="24">w</tspan><tspan class="bo" x="40.53" y="24">eig</tspan><tspan class="bn" x="53.41" y="24">h</tspan><tspan x="58.92" y="24">t: solid;</tspan><tspan x="0" y="36">bo</tspan><tspan class="cl" x="11.27" y="36">r</tspan><tspan x="14.71" y="36">de</tspan><tspan class="cm" x="25.59" y="36">r</tspan><tspan class="bo" x="29.03" y="36">-</tspan><tspan class="bq" x="32.75" y="36">c</tspan><tspan class="cd" x="37.43" y="36">olor: </tspan><tspan class="cn" x="59.83" y="36">r</tspan><tspan class="bo" x="63.35" y="36">gb(204,204,204); </tspan></tspan></text><text class="bi" transform="translate(580.55 364.76)"><tspan class="q">X<tspan class="co" x="6.71" y="0"> </tspan><tspan x="8.8" y="0">Axis Line</tspan></tspan><tspan class="u"><tspan x="0" y="12">bo</tspan><tspan class="cl" x="11.27" y="12">r</tspan><tspan x="14.71" y="12">de</tspan><tspan class="cm" x="25.59" y="12">r</tspan><tspan class="bo" x="29.03" y="12">-width: 1</tspan><tspan class="bp" x="68.62" y="12">p</tspan><tspan x="74.03" y="12">x;</tspan><tspan x="0" y="24">bo</tspan><tspan class="cl" x="11.27" y="24">r</tspan><tspan x="14.71" y="24">de</tspan><tspan class="cm" x="25.59" y="24">r</tspan><tspan class="bo" x="29.03" y="24">-</tspan><tspan class="cj" x="32.75" y="24">w</tspan><tspan class="bo" x="40.53" y="24">eig</tspan><tspan class="bn" x="53.41" y="24">h</tspan><tspan x="58.92" y="24">t: solid;</tspan><tspan x="0" y="36">bo</tspan><tspan class="cl" x="11.27" y="36">r</tspan><tspan x="14.71" y="36">de</tspan><tspan class="cm" x="25.59" y="36">r</tspan><tspan class="bo" x="29.03" y="36">-</tspan><tspan class="bq" x="32.75" y="36">c</tspan><tspan class="cd" x="37.43" y="36">olor: </tspan><tspan class="cn" x="59.83" y="36">r</tspan><tspan class="bo" x="63.35" y="36">gb(0,0,0); </tspan></tspan></text><text class="bi" transform="translate(42.03 96.98)"><tspan class="q"><tspan class="bq">S</tspan><tspan x="5.4" y="0">u</tspan><tspan class="bn" x="11.04" y="0">b</tspan><tspan class="cd" x="16.64" y="0">title</tspan></tspan><tspan class="u"><tspan class="bm" x="-42.03" y="12">f</tspan><tspan x="-38.69" y="12">o</tspan><tspan class="bn" x="-33.02" y="12">n</tspan><tspan x="-27.51" y="12">t-</tspan><tspan class="bn" x="-20.21" y="12">w</tspan><tspan x="-12.43" y="12">eig</tspan><tspan class="bn" x="0.45" y="12">h</tspan><tspan x="5.96" y="12">t: 400;</tspan><tspan class="bm" x="-33.29" y="24">f</tspan><tspan x="-29.95" y="24">o</tspan><tspan class="bn" x="-24.28" y="24">n</tspan><tspan x="-18.77" y="24">t-si</tspan><tspan class="bl" x="-4.74" y="24">z</tspan><tspan class="bo" x="-0.32" y="24">e: 14</tspan><tspan class="bp" x="21.62" y="24">p</tspan><tspan x="27.02" y="24">x;</tspan><tspan class="bq" x="-36.68" y="36">c</tspan><tspan x="-32" y="36">olor: </tspan><tspan class="br" x="-9.6" y="36">r</tspan><tspan x="-6.07" y="36">gb(0,0,0);</tspan></tspan></text><text class="bi" transform="translate(26.96 383.39)"><tspan class="q">Axis Labels</tspan><tspan class="u"><tspan class="bm" x="-26.96" y="12">f</tspan><tspan x="-23.62" y="12">o</tspan><tspan class="bn" x="-17.95" y="12">n</tspan><tspan x="-12.44" y="12">t-</tspan><tspan class="bn" x="-5.14" y="12">w</tspan><tspan x="2.65" y="12">eig</tspan><tspan class="bn" x="15.52" y="12">h</tspan><tspan x="21.03" y="12">t: 400;</tspan><tspan class="bm" x="-18.22" y="24">f</tspan><tspan x="-14.88" y="24">o</tspan><tspan class="bn" x="-9.21" y="24">n</tspan><tspan x="-3.7" y="24">t-si</tspan><tspan class="bl" x="10.33" y="24">z</tspan><tspan class="bo" x="14.75" y="24">e: 12</tspan><tspan class="bp" x="36.69" y="24">p</tspan><tspan x="42.1" y="24">x;</tspan><tspan class="bq" x="-21.61" y="36">c</tspan><tspan x="-16.92" y="36">olor: </tspan><tspan class="br" x="5.48" y="36">r</tspan><tspan x="9" y="36">gb(0,0,0);</tspan></tspan></text><polyline class="bs" points="573.91 143.78 570.91 145.22 570.91 153.35 573.91 154.78"/><line class="bs" x1="570.91" y1="149.28" x2="546.46" y2="149.28"/><polyline class="bs" points="650.16 446.23 647.16 447.66 647.16 455.79 650.16 457.23"/><line class="bs" x1="647.16" y1="451.73" x2="634.16" y2="451.73"/><polyline class="bs" points="197.92 446.68 200.92 448.12 200.92 456.25 197.92 457.68"/><line class="bs" x1="200.92" y1="452.18" x2="213.92" y2="452.18"/><text class="bi" transform="translate(487.69 134.36)"><tspan class="q"><tspan class="cp">L</tspan><tspan x="4.94" y="0">e</tspan><tspan class="bq" x="10.27" y="0">g</tspan><tspan class="bo" x="15.46" y="0">end </tspan><tspan class="cq" x="34.55" y="0">I</tspan><tspan class="cr" x="37.38" y="0">t</tspan><tspan class="bo" x="41.05" y="0">em</tspan></tspan><tspan class="u"><tspan class="bm" x="-21.88" y="12">f</tspan><tspan x="-18.54" y="12">o</tspan><tspan class="bn" x="-12.88" y="12">n</tspan><tspan x="-7.36" y="12">t-</tspan><tspan class="bn" x="-0.06" y="12">w</tspan><tspan x="7.72" y="12">eig</tspan><tspan class="bn" x="20.6" y="12">h</tspan><tspan x="26.11" y="12">t: 400;</tspan><tspan class="bm" x="-13.14" y="24">f</tspan><tspan x="-9.8" y="24">o</tspan><tspan class="bn" x="-4.13" y="24">n</tspan><tspan x="1.38" y="24">t-si</tspan><tspan class="bl" x="15.41" y="24">z</tspan><tspan class="bo" x="19.83" y="24">e: 12</tspan><tspan class="bp" x="41.77" y="24">p</tspan><tspan x="47.17" y="24">x;</tspan><tspan class="bq" x="-16.53" y="36">c</tspan><tspan x="-11.85" y="36">olor: </tspan><tspan class="br" x="10.55" y="36">r</tspan><tspan x="14.08" y="36">gb(0,0,0);</tspan></tspan></text><polyline class="bs" points="184.66 142.78 187.66 144.22 187.66 152.35 184.66 153.78"/><line class="bs" x1="219.89" y1="148.28" x2="187.66" y2="148.28"/><text class="bi" transform="translate(223.95 134.36)"><tspan class="q"><tspan class="cs">Y</tspan><tspan class="co" x="6.07" y="0"> </tspan><tspan x="8.17" y="0">Axis</tspan><tspan class="ct" x="27.26" y="0"> </tspan><tspan class="ca" x="29.39" y="0">T</tspan><tspan class="cd" x="35.35" y="0">itle</tspan></tspan><tspan class="u"><tspan class="bm" x="0" y="12">f</tspan><tspan x="3.34" y="12">o</tspan><tspan class="bn" x="9.01" y="12">n</tspan><tspan x="14.52" y="12">t-</tspan><tspan class="bn" x="21.82" y="12">w</tspan><tspan x="29.6" y="12">eig</tspan><tspan class="bn" x="42.48" y="12">h</tspan><tspan x="47.99" y="12">t: 400;</tspan><tspan class="bm" x="0" y="24">f</tspan><tspan x="3.34" y="24">o</tspan><tspan class="bn" x="9.01" y="24">n</tspan><tspan x="14.52" y="24">t-si</tspan><tspan class="bl" x="28.55" y="24">z</tspan><tspan class="bo" x="32.97" y="24">e: 12</tspan><tspan class="bp" x="54.91" y="24">p</tspan><tspan x="60.32" y="24">x;</tspan><tspan class="bq" x="0" y="36">c</tspan><tspan x="4.69" y="36">olor: </tspan><tspan class="br" x="27.08" y="36">r</tspan><tspan x="30.61" y="36">gb(102,102,102);</tspan></tspan></text><text class="bi" transform="translate(580.09 453.58)"><tspan class="q">X<tspan class="co" x="6.71" y="0"> </tspan><tspan x="8.8" y="0">Axis</tspan><tspan class="ct" x="27.9" y="0"> </tspan><tspan class="ca" x="30.02" y="0">T</tspan><tspan class="cd" x="35.98" y="0">itle</tspan></tspan><tspan class="u"><tspan class="bm" x="-26.59" y="12">f</tspan><tspan x="-23.25" y="12">o</tspan><tspan class="bn" x="-17.58" y="12">n</tspan><tspan x="-12.07" y="12">t-</tspan><tspan class="bn" x="-4.77" y="12">w</tspan><tspan x="3.02" y="12">eig</tspan><tspan class="bn" x="15.89" y="12">h</tspan><tspan x="21.4" y="12">t: 400;</tspan><tspan class="bm" x="-17.85" y="24">f</tspan><tspan x="-14.51" y="24">o</tspan><tspan class="bn" x="-8.84" y="24">n</tspan><tspan x="-3.33" y="24">t-si</tspan><tspan class="bl" x="10.7" y="24">z</tspan><tspan class="bo" x="15.13" y="24">e: 12</tspan><tspan class="bp" x="37.06" y="24">p</tspan><tspan x="42.47" y="24">x;</tspan><tspan class="bq" x="-56.04" y="36">c</tspan><tspan x="-51.35" y="36">olor: </tspan><tspan class="br" x="-28.95" y="36">r</tspan><tspan x="-25.43" y="36">gb(102,102,102);</tspan></tspan></text><text class="bi" transform="translate(217.92 453.58)"><tspan class="q"><tspan class="cu">S</tspan><tspan x="5.47" y="0">ou</tspan><tspan class="bk" x="16.85" y="0">r</tspan><tspan class="bq" x="20.44" y="0">c</tspan><tspan x="25.17" y="0">es</tspan></tspan><tspan class="u"><tspan class="bm" x="0" y="12">f</tspan><tspan x="3.34" y="12">o</tspan><tspan class="bn" x="9.01" y="12">n</tspan><tspan x="14.52" y="12">t-</tspan><tspan class="bn" x="21.82" y="12">w</tspan><tspan x="29.6" y="12">eig</tspan><tspan class="bn" x="42.48" y="12">h</tspan><tspan x="47.99" y="12">t: 700; </tspan><tspan class="cb" x="79.21" y="12">/</tspan><tspan x="81.5" y="12">/ </tspan><tspan class="cv" x="88.58" y="12">F</tspan><tspan x="93.8" y="12">o</tspan><tspan class="ce" x="99.47" y="12">r</tspan><tspan x="102.9" y="12" xml:space="preserve"> the</tspan><tspan class="cm" x="119.9" y="12"> </tspan><tspan class="bn" x="122.26" y="12">w</tspan><tspan x="130.04" y="12">o</tspan><tspan class="cl" x="135.71" y="12">r</tspan><tspan x="139.16" y="12">d “</tspan><tspan class="cw" x="150.97" y="12">S</tspan><tspan x="156.37" y="12">ou</tspan><tspan class="cx" x="167.61" y="12">r</tspan><tspan class="cy" x="171.05" y="12">c</tspan><tspan class="cz" x="175.73" y="12">e</tspan><tspan class="bq" x="180.84" y="12">”</tspan><tspan class="bm" x="0" y="24">f</tspan><tspan x="3.34" y="24">o</tspan><tspan class="bn" x="9.01" y="24">n</tspan><tspan x="14.52" y="24">t-</tspan><tspan class="bn" x="21.82" y="24">w</tspan><tspan x="29.6" y="24">eig</tspan><tspan class="bn" x="42.48" y="24">h</tspan><tspan x="47.99" y="24">t: 400; </tspan><tspan class="cb" x="79.21" y="24">/</tspan><tspan x="81.5" y="24">/ </tspan><tspan class="cv" x="88.58" y="24">F</tspan><tspan x="93.8" y="24">o</tspan><tspan class="ce" x="99.47" y="24">r</tspan><tspan x="102.9" y="24" xml:space="preserve"> the </tspan><tspan class="cm" x="122.46" y="24">r</tspan><tspan x="125.9" y="24">est</tspan><tspan class="bm" x="0" y="36">f</tspan><tspan x="3.34" y="36">o</tspan><tspan class="bn" x="9.01" y="36">n</tspan><tspan x="14.52" y="36">t-si</tspan><tspan class="bl" x="28.55" y="36">z</tspan><tspan class="bo" x="32.97" y="36">e: 11</tspan><tspan class="bp" x="54.91" y="36">p</tspan><tspan x="60.32" y="36">x;</tspan><tspan class="bq" x="0" y="48">c</tspan><tspan x="4.69" y="48">olor: </tspan><tspan class="br" x="27.08" y="48">r</tspan><tspan x="30.61" y="48">gb(153,153,153);</tspan></tspan></text><polyline class="bs" points="85.67 366.65 81.54 366.65 81.54 430.21 129.69 430.21"/><text class="da" transform="translate(69.72 54.56)">8<tspan class="bp" x="4.64" y="0">p</tspan><tspan x="8.96" y="0">x</tspan></text><polyline class="bs" points="88.67 47.35 84.67 47.35 86.67 47.35 86.67 57.05 84.67 57.05 88.67 57.05"/><text class="da" transform="translate(218.67 102.48)">8<tspan class="bp" x="4.64" y="0">p</tspan><tspan x="8.96" y="0">x</tspan></text><polyline class="bs" points="216.67 95.27 212.67 95.27 214.67 95.27 214.67 104.97 212.67 104.97 216.67 104.97"/><text class="da" transform="translate(127.67 161.31)">8<tspan class="bp" x="4.64" y="0">p</tspan><tspan x="8.96" y="0">x</tspan></text><polyline class="bs" points="125.67 154.1 121.67 154.1 123.67 154.1 123.67 163.8 121.67 163.8 125.67 163.8"/><text class="da" transform="translate(127.67 133.14)">24<tspan class="bp" x="9.28" y="0">p</tspan><tspan class="db" x="13.6" y="0">x</tspan></text><polyline class="bs" points="125.67 118.51 121.67 118.51 123.67 118.51 123.67 143.05 121.67 143.05 125.67 143.05"/><text class="da" transform="translate(752.68 443.73)">8<tspan class="bp" x="4.64" y="0">p</tspan><tspan x="8.96" y="0">x</tspan></text><polyline class="bs" points="750.68 436.52 746.68 436.52 748.68 436.52 748.68 446.23 746.68 446.23 750.68 446.23"/></svg>