<svg xmlns="http://www.w3.org/2000/svg" viewBox="0 0 846 591.61"><defs><style>.a,.x{font-size:14px;}.a,.aj,.q{font-family:Lato-Bold, Lato;}.aj,.b,.q{font-weight:700;}.c{letter-spacing:-0.06em;}.d{letter-spacing:-0.02em;}.e,.l{font-size:12px;}.aa,.ag,.aq,.e,.x{font-family:Lato-Regular, Lato;}.f{letter-spacing:-0.01em;}.g{letter-spacing:0em;}.h{letter-spacing:-0.01em;}.i{letter-spacing:-0.02em;}.j{letter-spacing:-0.03em;}.k{letter-spacing:0em;}.l{font-family:Lato-Light, Lato;}.m{letter-spacing:0em;}.n{letter-spacing:-0.03em;}.o{letter-spacing:-0.01em;}.p{letter-spacing:0em;}.q,.s{font-size:18px;fill:#0072b9;}.r{letter-spacing:0em;}.t{letter-spacing:0em;}.u{letter-spacing:-0.01em;}.v{letter-spacing:-0.01em;}.w{letter-spacing:-0.01em;}.y{letter-spacing:-0.01em;}.z{letter-spacing:-0.01em;}.aa{fill:#666;}.ab{letter-spacing:-0.04em;}.ac{letter-spacing:-0.04em;}.ad{letter-spacing:-0.03em;}.ae{letter-spacing:-0.03em;}.af{letter-spacing:0em;}.ah{letter-spacing:-0.01em;}.ai{letter-spacing:-0.01em;}.ak{letter-spacing:-0.01em;}.al{letter-spacing:-0.01em;}.am{letter-spacing:-0.04em;}.an{letter-spacing:-0.01em;}.ao{letter-spacing:-0.01em;}.ap{letter-spacing:0em;}.aq{font-size:11px;fill:#969696;}.ar{letter-spacing:0em;}.as{letter-spacing:-0.02em;}.at{letter-spacing:-0.01em;}.au{letter-spacing:-0.01em;}.av{letter-spacing:0em;}.aw{letter-spacing:-0.01em;}.ax{letter-spacing:-0.02em;}.ay{letter-spacing:-0.04em;}.az{letter-spacing:0em;}.ba{letter-spacing:-0.01em;}.bb{letter-spacing:-0.02em;}.bc{fill:none;stroke:#000;stroke-miterlimit:10;}</style></defs><title>chart-typography</title><text class="a" transform="translate(286.36 133.47)"><tspan class="b">TYPE<tspan class="c" x="34.19" y="0">F</tspan><tspan class="d" x="41.28" y="0">A</tspan><tspan x="50.7" y="0">CE</tspan></tspan><tspan class="e"><tspan x="7.65" y="14.4">Pri</tspan><tspan class="f" x="21.62" y="14.4">n</tspan><tspan class="g" x="28.24" y="14.4">t/</tspan><tspan class="h" x="37.96" y="14.4">w</tspan><tspan x="47.3" y="14.4">eb</tspan></tspan></text><text class="a" transform="translate(438.11 133.47)"><tspan class="b">SIZE</tspan><tspan class="e"><tspan x="-12.18" y="14.4">Pri</tspan><tspan class="f" x="1.8" y="14.4">n</tspan><tspan class="g" x="8.41" y="14.4">t/</tspan><tspan class="h" x="18.14" y="14.4">w</tspan><tspan x="27.48" y="14.4">eb</tspan></tspan></text><text class="a" transform="translate(608.28 133.47)"><tspan class="b"><tspan class="i">C</tspan><tspan x="9.04" y="0">O</tspan><tspan class="j" x="20.36" y="0">L</tspan><tspan class="k" x="27.27" y="0">OUR</tspan></tspan><tspan class="e"><tspan x="2.64" y="14.4">Pri</tspan><tspan class="f" x="16.61" y="14.4">n</tspan><tspan class="g" x="23.22" y="14.4">t/</tspan><tspan class="h" x="32.95" y="14.4">w</tspan><tspan x="42.29" y="14.4">eb</tspan></tspan></text><text class="l" transform="translate(98 178.34)"><tspan class="m">F</tspan><tspan x="6.73" y="0">igu</tspan><tspan class="n" x="22.12" y="0">r</tspan><tspan x="26.03" y="0">e </tspan><tspan class="o" x="35.54" y="0">N</tspan><tspan class="p" x="44.5" y="0">umbe</tspan><tspan class="d" x="73.63" y="0">r</tspan><tspan class="q"><tspan class="r" x="0" y="32">T</tspan><tspan x="10.72" y="32">itle</tspan></tspan><tspan class="s"><tspan class="t" x="0" y="64">T</tspan><tspan x="10.4" y="64">itle </tspan><tspan class="u" x="38.82" y="64">D</tspan><tspan class="v" x="52.24" y="64">a</tspan><tspan class="t" x="60.86" y="64">t</tspan><tspan x="67" y="64">e/</tspan><tspan class="w" x="84.2" y="64">U</tspan><tspan x="97.05" y="64">nit</tspan></tspan><tspan class="x"><tspan class="y" x="0" y="96">S</tspan><tspan x="7.46" y="96">u</tspan><tspan class="z" x="15.26" y="96">b</tspan><tspan x="23.01" y="96">title</tspan></tspan><tspan class="aa"><tspan x="0" y="128">X &amp;</tspan><tspan class="ab" x="19.4" y="128"> </tspan><tspan class="ac" x="22.01" y="128">Y</tspan><tspan class="ad" x="29.02" y="128"> </tspan><tspan x="31.69" y="128">Axis</tspan><tspan class="ae" x="53.87" y="128"> </tspan><tspan class="af" x="56.58" y="128">T</tspan><tspan x="63.63" y="128">itle</tspan></tspan><tspan class="ag"><tspan x="0" y="160">X &amp;</tspan><tspan class="ab" x="19.4" y="160"> </tspan><tspan class="ac" x="22.01" y="160">Y</tspan><tspan class="ad" x="29.02" y="160"> </tspan><tspan x="31.69" y="160">Axis Labels</tspan><tspan class="ah" x="0" y="192">D</tspan><tspan class="ai" x="8.97" y="192">a</tspan><tspan x="14.86" y="192">ta Labels</tspan></tspan><tspan class="aj"><tspan class="ak" x="0" y="224">D</tspan><tspan class="h" x="8.98" y="224">a</tspan><tspan x="14.98" y="224">ta highlig</tspan><tspan class="al" x="63.74" y="224">h</tspan><tspan x="70.42" y="224">t</tspan></tspan><tspan class="ag"><tspan class="am" x="0" y="256">L</tspan><tspan class="p" x="5.72" y="256">e</tspan><tspan class="an" x="12.06" y="256">g</tspan><tspan class="p" x="18.2" y="256">end </tspan><tspan class="ao" x="41.03" y="256">I</tspan><tspan class="ap" x="44.21" y="256">t</tspan><tspan x="48.49" y="256">ems</tspan></tspan><tspan class="aq"><tspan class="ar" x="0" y="288">S</tspan><tspan x="5.93" y="288">ou</tspan><tspan class="as" x="18.3" y="288">r</tspan><tspan class="at" x="22.08" y="288">c</tspan><tspan x="27.24" y="288">es</tspan></tspan></text><text class="x" transform="translate(262.12 179.11)">L<tspan class="au" x="7.19" y="0">a</tspan><tspan class="av" x="14.06" y="0">t</tspan><tspan x="19.04" y="0">o lig</tspan><tspan class="aw" x="44.5" y="0">h</tspan><tspan x="52.22" y="0">t/300</tspan><tspan x="0" y="32">L</tspan><tspan class="au" x="7.19" y="32">a</tspan><tspan class="av" x="14.06" y="32">t</tspan><tspan x="19.04" y="32">o bold/700</tspan><tspan x="0" y="64">L</tspan><tspan class="au" x="7.19" y="64">a</tspan><tspan class="av" x="14.06" y="64">t</tspan><tspan x="19.04" y="64">o lig</tspan><tspan class="aw" x="44.5" y="64">h</tspan><tspan x="52.22" y="64">t/300</tspan><tspan x="0" y="96">L</tspan><tspan class="au" x="7.19" y="96">a</tspan><tspan class="av" x="14.06" y="96">t</tspan><tspan x="19.04" y="96">o </tspan><tspan class="ax" x="30.56" y="96">r</tspan><tspan x="35.37" y="96">egula</tspan><tspan class="ay" x="68.11" y="96">r</tspan><tspan class="az" x="72.63" y="96">/400</tspan><tspan x="0" y="128">L</tspan><tspan class="au" x="7.19" y="128">a</tspan><tspan class="av" x="14.06" y="128">t</tspan><tspan x="19.04" y="128">o </tspan><tspan class="ax" x="30.56" y="128">r</tspan><tspan x="35.37" y="128">egula</tspan><tspan class="ay" x="68.11" y="128">r</tspan><tspan class="az" x="72.63" y="128">/400</tspan><tspan x="0" y="160">L</tspan><tspan class="au" x="7.19" y="160">a</tspan><tspan class="av" x="14.06" y="160">t</tspan><tspan x="19.04" y="160">o </tspan><tspan class="ax" x="30.56" y="160">r</tspan><tspan x="35.37" y="160">egula</tspan><tspan class="ay" x="68.11" y="160">r</tspan><tspan class="az" x="72.63" y="160">/400</tspan><tspan x="0" y="192">L</tspan><tspan class="au" x="7.19" y="192">a</tspan><tspan class="av" x="14.06" y="192">t</tspan><tspan x="19.04" y="192">o </tspan><tspan class="ax" x="30.56" y="192">r</tspan><tspan x="35.37" y="192">egula</tspan><tspan class="ay" x="68.11" y="192">r</tspan><tspan class="az" x="72.63" y="192">/400</tspan><tspan x="0" y="224">L</tspan><tspan class="au" x="7.19" y="224">a</tspan><tspan class="av" x="14.06" y="224">t</tspan><tspan x="19.04" y="224">o bold/700</tspan><tspan x="0" y="256">L</tspan><tspan class="au" x="7.19" y="256">a</tspan><tspan class="av" x="14.06" y="256">t</tspan><tspan x="19.04" y="256">o </tspan><tspan class="ax" x="30.56" y="256">r</tspan><tspan x="35.37" y="256">egula</tspan><tspan class="ay" x="68.11" y="256">r</tspan><tspan class="az" x="72.63" y="256">/400</tspan><tspan x="0" y="288">L</tspan><tspan class="au" x="7.19" y="288">a</tspan><tspan class="av" x="14.06" y="288">t</tspan><tspan x="19.04" y="288">o </tspan><tspan class="ax" x="30.56" y="288">r</tspan><tspan x="35.37" y="288">egula</tspan><tspan class="ay" x="68.11" y="288">r</tspan><tspan class="az" x="72.63" y="288">/400</tspan></text><text class="x" transform="translate(527.07 179.11)">CMYK: 0 0 0 100/<tspan class="ba" x="113.24" y="0">R</tspan><tspan class="k" x="121.92" y="0">GB: 0 0 0</tspan><tspan x="0" y="32">CMYK: 99 50 0 0/</tspan><tspan class="ba" x="113.24" y="32">R</tspan><tspan class="k" x="121.92" y="32">GB: 0 114 188</tspan><tspan x="0" y="64">CMYK: 99 50 0 0/</tspan><tspan class="ba" x="113.24" y="64">R</tspan><tspan class="k" x="121.92" y="64">GB: 0 114 188</tspan><tspan x="0" y="96">CMYK: 0 0 0 100/</tspan><tspan class="ba" x="113.24" y="96">R</tspan><tspan class="k" x="121.92" y="96">GB: 0 0 0</tspan><tspan x="0" y="128">CMYK: 0 0 0 60/</tspan><tspan class="ba" x="105.13" y="128">R</tspan><tspan x="113.8" y="128">GB: 102 102 102</tspan><tspan x="0" y="160">CMYK: 0 0 0 100/</tspan><tspan class="ba" x="113.24" y="160">R</tspan><tspan class="k" x="121.92" y="160">GB: 0 0 0</tspan><tspan x="0" y="192">CMYK: 0 0 0 100/</tspan><tspan class="ba" x="113.24" y="192">R</tspan><tspan class="k" x="121.92" y="192">GB: 0 0 0</tspan><tspan x="0" y="224">CMYK: 0 0 0 100/</tspan><tspan class="ba" x="113.24" y="224">R</tspan><tspan class="k" x="121.92" y="224">GB: 0 0 0</tspan><tspan x="0" y="256">CMYK: 0 0 0 100/</tspan><tspan class="ba" x="113.24" y="256">R</tspan><tspan class="k" x="121.92" y="256">GB: 0 0 0</tspan><tspan x="0" y="288">CMYK: 0 0 0 60/</tspan><tspan class="ba" x="105.13" y="288">R</tspan><tspan x="113.8" y="288">GB: 153 153 153</tspan></text><text class="x" transform="translate(425.62 179.11)">10/12<tspan class="bb" x="38.81" y="0">p</tspan><tspan x="46.37" y="0">x</tspan><tspan x="0" y="32">10/18</tspan><tspan class="bb" x="38.81" y="32">p</tspan><tspan x="46.37" y="32">x</tspan><tspan x="0" y="64">10/18</tspan><tspan class="bb" x="38.81" y="64">p</tspan><tspan x="46.37" y="64">x</tspan><tspan x="8.12" y="96">9/14</tspan><tspan class="bb" x="38.81" y="96">p</tspan><tspan class="k" x="46.37" y="96">x</tspan><tspan x="8.12" y="128">8/12</tspan><tspan class="bb" x="38.81" y="128">p</tspan><tspan class="k" x="46.37" y="128">x</tspan><tspan x="8.12" y="160">9/12</tspan><tspan class="bb" x="38.81" y="160">p</tspan><tspan class="k" x="46.37" y="160">x</tspan><tspan x="8.12" y="192">8/12</tspan><tspan class="bb" x="38.81" y="192">p</tspan><tspan class="k" x="46.37" y="192">x</tspan><tspan x="8.12" y="224">9/12</tspan><tspan class="bb" x="38.81" y="224">p</tspan><tspan class="k" x="46.37" y="224">x</tspan><tspan x="8.12" y="256">9/12</tspan><tspan class="bb" x="38.81" y="256">p</tspan><tspan class="k" x="46.37" y="256">x</tspan><tspan x="8.12" y="288">8/11</tspan><tspan class="bb" x="38.81" y="288">p</tspan><tspan class="k" x="46.37" y="288">x</tspan></text><line class="bc" x1="90" y1="159.1" x2="755" y2="159.1"/></svg>