<svg xmlns="http://www.w3.org/2000/svg" viewBox="0 0 443.66 388.24"><defs><style>.a{fill:#0072b9;}</style></defs><title>fonts-main</title><path class="a" d="M187.79.44a9.91,9.91,0,0,1,3,.41A5.71,5.71,0,0,1,192.9,2a4.47,4.47,0,0,1,1.23,1.75A6,6,0,0,1,194.54,6a6.17,6.17,0,0,1-.42,2.31,4.66,4.66,0,0,1-1.27,1.8,5.7,5.7,0,0,1-2.1,1.18,9.44,9.44,0,0,1-3,.42h-2.41V17.8h-3.23V.44Zm0,8.73A5.13,5.13,0,0,0,189.34,9a2.91,2.91,0,0,0,1.1-.64,2.55,2.55,0,0,0,.65-1A3.93,3.93,0,0,0,191.31,6a3.54,3.54,0,0,0-.22-1.26,2.38,2.38,0,0,0-.65-1,2.82,2.82,0,0,0-1.09-.61,5.17,5.17,0,0,0-1.56-.21h-2.41V9.17Z"/><path class="a" d="M199.14,7.62a5.31,5.31,0,0,1,1.37-1.73,2.91,2.91,0,0,1,1.87-.63,2.27,2.27,0,0,1,1.37.37l-.19,2.22a.55.55,0,0,1-.18.3.45.45,0,0,1-.3.09,3.61,3.61,0,0,1-.54-.06,4,4,0,0,0-.69-.06,2.37,2.37,0,0,0-.87.15,2,2,0,0,0-.69.41,2.51,2.51,0,0,0-.54.66,5.87,5.87,0,0,0-.44.87V17.8h-3V5.48h1.74a.93.93,0,0,1,.63.17.92.92,0,0,1,.24.58Z"/><path class="a" d="M208.78,1.9a1.64,1.64,0,0,1-.16.72,1.85,1.85,0,0,1-.41.58,1.87,1.87,0,0,1-.61.41,1.85,1.85,0,0,1-.74.15,1.8,1.8,0,0,1-.73-.15,2,2,0,0,1-.59-.41,1.82,1.82,0,0,1-.4-.58A1.79,1.79,0,0,1,205,1.9a1.86,1.86,0,0,1,.15-.75,1.91,1.91,0,0,1,.4-.6,2,2,0,0,1,.59-.4,1.8,1.8,0,0,1,.73-.15,2,2,0,0,1,1.35.55,1.94,1.94,0,0,1,.41.6A1.71,1.71,0,0,1,208.78,1.9Zm-.41,3.58V17.8h-3V5.48Z"/><path class="a" d="M211.4,17.8V5.48h1.81A.72.72,0,0,1,214,6l.19.92a8.4,8.4,0,0,1,.68-.66,4.14,4.14,0,0,1,1.62-.86,3.65,3.65,0,0,1,1-.13,2.87,2.87,0,0,1,1.91.63A3.72,3.72,0,0,1,220.5,7.6a3.83,3.83,0,0,1,.72-1,4,4,0,0,1,.95-.72,4.69,4.69,0,0,1,1.1-.41,5.82,5.82,0,0,1,1.17-.13,5.08,5.08,0,0,1,1.81.31,3.49,3.49,0,0,1,1.33.92A3.86,3.86,0,0,1,228.4,8a6.35,6.35,0,0,1,.29,2V17.8h-3V10a2.67,2.67,0,0,0-.51-1.77,1.9,1.9,0,0,0-1.52-.59,2.32,2.32,0,0,0-.84.15,2.12,2.12,0,0,0-.68.45,2,2,0,0,0-.47.74,3,3,0,0,0-.17,1V17.8h-3V10a2.71,2.71,0,0,0-.5-1.8,1.83,1.83,0,0,0-1.46-.56,2.39,2.39,0,0,0-1.2.31,4.23,4.23,0,0,0-1,.87v9Z"/><path class="a" d="M231.21,7.2a7.27,7.27,0,0,1,5.11-1.94,4.92,4.92,0,0,1,1.93.35,4.09,4.09,0,0,1,1.44,1,4.23,4.23,0,0,1,.89,1.51,5.6,5.6,0,0,1,.31,1.92V17.8h-1.34a1.41,1.41,0,0,1-.65-.13.86.86,0,0,1-.36-.51l-.27-.89a9.55,9.55,0,0,1-.91.74,5,5,0,0,1-.92.53,4.28,4.28,0,0,1-1,.33,5.54,5.54,0,0,1-1.2.12,4.73,4.73,0,0,1-1.44-.21,3.16,3.16,0,0,1-1.14-.63,2.88,2.88,0,0,1-.75-1,3.79,3.79,0,0,1-.26-1.45,3,3,0,0,1,.15-.93,2.92,2.92,0,0,1,.51-.88,4.57,4.57,0,0,1,.92-.79,5.8,5.8,0,0,1,1.39-.65A12.85,12.85,0,0,1,235.5,11a17.85,17.85,0,0,1,2.5-.21V10a2.72,2.72,0,0,0-.53-1.83A1.91,1.91,0,0,0,236,7.6a3.75,3.75,0,0,0-1.2.16,5.87,5.87,0,0,0-.83.38l-.65.38a1.35,1.35,0,0,1-.66.17.92.92,0,0,1-.53-.16,1.57,1.57,0,0,1-.35-.38ZM238,12.54a15.91,15.91,0,0,0-2.16.22,5.59,5.59,0,0,0-1.4.42,1.76,1.76,0,0,0-.76.58,1.32,1.32,0,0,0-.23.74,1.26,1.26,0,0,0,.46,1.11,2,2,0,0,0,1.21.34,3.54,3.54,0,0,0,1.58-.33,5,5,0,0,0,1.3-1Z"/><path class="a" d="M246.47,7.62a5.18,5.18,0,0,1,1.37-1.73,2.91,2.91,0,0,1,1.87-.63,2.29,2.29,0,0,1,1.37.37l-.19,2.22a.55.55,0,0,1-.18.3.47.47,0,0,1-.3.09,3.61,3.61,0,0,1-.54-.06,4,4,0,0,0-.69-.06,2.33,2.33,0,0,0-.87.15,2,2,0,0,0-.69.41,2.51,2.51,0,0,0-.54.66,5,5,0,0,0-.44.87V17.8h-3V5.48h1.74a.94.94,0,0,1,.64.17.92.92,0,0,1,.24.58Z"/><path class="a" d="M263.81,5.48l-6.71,15.7a1.08,1.08,0,0,1-.34.47,1,1,0,0,1-.64.17h-2.21l2.3-4.95-5-11.39h2.61a.81.81,0,0,1,.54.17,1,1,0,0,1,.3.39l2.61,6.38a5.61,5.61,0,0,1,.23.65c.06.21.11.43.17.66.07-.23.14-.45.22-.67s.15-.44.24-.65L260.62,6a.83.83,0,0,1,.32-.4.84.84,0,0,1,.49-.16Z"/><path d="M0,89.8v-48H22.47c10.44,0,16.13,7,16.13,15.48S32.83,72.73,22.47,72.73H10.23V89.8ZM28.15,57.25c0-4-3-6.48-7-6.48H10.23v13H21.1C25.13,63.73,28.15,61.21,28.15,57.25Z"/><path d="M44.71,89.8V55h9.15v4.75A14.93,14.93,0,0,1,65,54.15v8.93a12.55,12.55,0,0,0-2.52-.21c-3,0-7.06,1.72-8.57,4v23Z"/><path d="M68.4,72.37c0-9.86,6.91-18.22,18.36-18.22s18.43,8.36,18.43,18.22S98.28,90.66,86.76,90.66,68.4,82.31,68.4,72.37Zm27.29,0c0-5.4-3.24-10.08-8.93-10.08S77.9,67,77.9,72.37s3.17,10.15,8.86,10.15S95.69,77.84,95.69,72.37Z"/><path d="M131,89.8l-7.92-11.74-8,11.74H105l12.32-17.86L105.69,55h10.23l7.2,10.73L130.25,55h10.22L128.81,71.94,141.27,89.8Z"/><path d="M144.86,45.8a5.48,5.48,0,1,1,5.47,5.47A5.52,5.52,0,0,1,144.86,45.8Zm.94,44V55h9.14V89.8Z"/><path d="M207.15,89.8v-22c0-3.24-1.44-5.54-5.19-5.54a9.24,9.24,0,0,0-7.2,4V89.8h-9.22v-22c0-3.24-1.44-5.54-5.18-5.54a9.34,9.34,0,0,0-7.2,4.1V89.8H164V55h9.15v4.53c1.44-2.09,6.05-5.4,11.38-5.4,5.11,0,8.35,2.38,9.65,6.34a14.74,14.74,0,0,1,11.95-6.34c6.41,0,10.22,3.39,10.22,10.52V89.8Z"/><path d="M246.24,89.8V86.2c-2.38,2.8-6.48,4.46-11,4.46-5.54,0-12.09-3.74-12.09-11.52,0-8.14,6.55-11.23,12.09-11.23,4.61,0,8.72,1.51,11,4.24V67.47c0-3.52-3-5.83-7.63-5.83a14.64,14.64,0,0,0-10.16,4.11L225,59.62a22.83,22.83,0,0,1,15.19-5.47c7.92,0,15.19,3.17,15.19,13.18V89.8Zm0-8.36V77.12c-1.51-2-4.39-3-7.34-3-3.6,0-6.56,1.87-6.56,5.26,0,3.24,3,5.11,6.56,5.11C241.85,84.47,244.73,83.46,246.24,81.44Z"/><path d="M316.22,89.8,293.33,58.47V89.8H283.1v-48h10.51l22.25,30.17V41.77h10.23v48Z"/><path d="M333.14,72.37c0-9.86,6.91-18.22,18.36-18.22s18.44,8.36,18.44,18.22S363,90.66,351.5,90.66,333.14,82.31,333.14,72.37Zm27.29,0c0-5.4-3.24-10.08-8.93-10.08s-8.86,4.68-8.86,10.08,3.17,10.15,8.86,10.15S360.43,77.84,360.43,72.37Z"/><path d="M385.7,89.8,371.73,55h9.79l9.08,24.19L399.67,55h9.86l-14,34.78Z"/><path d="M434.52,89.8V86.2c-2.38,2.8-6.49,4.46-11,4.46-5.55,0-12.1-3.74-12.1-11.52,0-8.14,6.55-11.23,12.1-11.23,4.61,0,8.71,1.51,11,4.24V67.47c0-3.52-3-5.83-7.64-5.83a14.62,14.62,0,0,0-10.15,4.11l-3.46-6.13a22.84,22.84,0,0,1,15.2-5.47c7.92,0,15.19,3.17,15.19,13.18V89.8Zm0-8.36V77.12c-1.52-2-4.4-3-7.35-3-3.6,0-6.55,1.87-6.55,5.26,0,3.24,2.95,5.11,6.55,5.11C430.12,84.47,433,83.46,434.52,81.44Z"/><path class="a" d="M177.18,152.4a1.19,1.19,0,0,1-.31.37.72.72,0,0,1-.4.11,1,1,0,0,1-.55-.19l-.7-.41a5.64,5.64,0,0,0-.95-.41,3.89,3.89,0,0,0-1.29-.19,3.83,3.83,0,0,0-1.18.16,2.54,2.54,0,0,0-.85.45,1.94,1.94,0,0,0-.51.69,2.3,2.3,0,0,0-.16.88,1.51,1.51,0,0,0,.34,1,2.79,2.79,0,0,0,.9.7,9.88,9.88,0,0,0,1.29.52l1.47.48a12.72,12.72,0,0,1,1.48.6,5,5,0,0,1,1.28.87,3.82,3.82,0,0,1,.91,1.27,4.45,4.45,0,0,1,.34,1.84,5.93,5.93,0,0,1-.4,2.2,5,5,0,0,1-1.18,1.79,5.37,5.37,0,0,1-1.89,1.2,7,7,0,0,1-2.55.44,8.83,8.83,0,0,1-1.63-.16,9,9,0,0,1-1.55-.47,8.2,8.2,0,0,1-1.38-.72,6.67,6.67,0,0,1-1.15-.93l.94-1.55a1,1,0,0,1,.32-.28.72.72,0,0,1,.4-.12,1.18,1.18,0,0,1,.65.25c.23.16.51.35.83.55a6.15,6.15,0,0,0,1.12.54,4.18,4.18,0,0,0,1.54.25,3.15,3.15,0,0,0,2.14-.66,2.35,2.35,0,0,0,.76-1.87,1.74,1.74,0,0,0-.35-1.12,2.75,2.75,0,0,0-.9-.73,6.94,6.94,0,0,0-1.29-.49l-1.46-.45a13,13,0,0,1-1.46-.57,5,5,0,0,1-1.29-.88,3.94,3.94,0,0,1-.9-1.35,5.12,5.12,0,0,1-.35-2,4.79,4.79,0,0,1,.38-1.85,4.69,4.69,0,0,1,1.1-1.59,5.25,5.25,0,0,1,1.78-1.12,6.49,6.49,0,0,1,2.42-.42,8.08,8.08,0,0,1,2.83.48,6.32,6.32,0,0,1,2.21,1.35Z"/><path class="a" d="M182.88,160.81a5.8,5.8,0,0,0,.33,1.64,3.39,3.39,0,0,0,.7,1.14,2.79,2.79,0,0,0,1,.67,3.73,3.73,0,0,0,1.32.22,4.15,4.15,0,0,0,1.24-.16,6.09,6.09,0,0,0,.91-.38l.69-.37a1.14,1.14,0,0,1,.57-.17.63.63,0,0,1,.55.28l.85,1.08a5.28,5.28,0,0,1-1.1,1,6.64,6.64,0,0,1-2.64,1,10.32,10.32,0,0,1-1.34.1,6.62,6.62,0,0,1-2.38-.43,5.18,5.18,0,0,1-1.92-1.26,5.83,5.83,0,0,1-1.29-2.06,8,8,0,0,1-.47-2.85,6.86,6.86,0,0,1,.41-2.37,5.46,5.46,0,0,1,3-3.24,6.13,6.13,0,0,1,2.48-.48,6.22,6.22,0,0,1,2.15.37,4.69,4.69,0,0,1,1.69,1.09,5.14,5.14,0,0,1,1.11,1.75,6.47,6.47,0,0,1,.4,2.37,2,2,0,0,1-.14.91.61.61,0,0,1-.55.23Zm5.65-1.79a3.81,3.81,0,0,0-.16-1.08,2.62,2.62,0,0,0-.49-.9,2.39,2.39,0,0,0-.82-.6,2.79,2.79,0,0,0-1.16-.22,2.72,2.72,0,0,0-2,.73,3.57,3.57,0,0,0-.94,2.07Z"/><path class="a" d="M202.23,156.89a1.27,1.27,0,0,1-.26.26.53.53,0,0,1-.36.1.88.88,0,0,1-.45-.14c-.14-.09-.31-.2-.51-.31a3.46,3.46,0,0,0-.72-.31,3,3,0,0,0-1-.14,3.1,3.1,0,0,0-1.37.28,2.65,2.65,0,0,0-1,.81,3.68,3.68,0,0,0-.58,1.28,6.75,6.75,0,0,0-.19,1.7,6.66,6.66,0,0,0,.21,1.75,3.85,3.85,0,0,0,.6,1.29,2.68,2.68,0,0,0,1,.79,2.93,2.93,0,0,0,1.28.27,3.26,3.26,0,0,0,1.14-.17,3.91,3.91,0,0,0,.74-.39l.52-.38a.79.79,0,0,1,.5-.18.61.61,0,0,1,.54.28l.85,1.08a5.4,5.4,0,0,1-1.07,1,5.87,5.87,0,0,1-1.19.62,5.66,5.66,0,0,1-1.27.33,9.61,9.61,0,0,1-1.3.1,5.54,5.54,0,0,1-2.15-.43,5.17,5.17,0,0,1-1.77-1.24,6,6,0,0,1-1.19-2,8.39,8.39,0,0,1-.05-5.21,5.58,5.58,0,0,1,1.15-2,5.18,5.18,0,0,1,1.87-1.33,6.44,6.44,0,0,1,2.57-.48,6.07,6.07,0,0,1,2.42.45,5.81,5.81,0,0,1,1.86,1.27Z"/><path class="a" d="M210.21,154.09a6.65,6.65,0,0,1,2.49.45,5.26,5.26,0,0,1,1.92,1.26,5.49,5.49,0,0,1,1.23,2,7.52,7.52,0,0,1,.43,2.63,7.62,7.62,0,0,1-.43,2.64,5.71,5.71,0,0,1-1.23,2,5.29,5.29,0,0,1-1.92,1.27,6.65,6.65,0,0,1-2.49.45,6.75,6.75,0,0,1-2.51-.45,5.29,5.29,0,0,1-1.92-1.27,5.73,5.73,0,0,1-1.24-2,7.61,7.61,0,0,1-.44-2.64,7.52,7.52,0,0,1,.44-2.63,5.51,5.51,0,0,1,1.24-2,5.26,5.26,0,0,1,1.92-1.26A6.75,6.75,0,0,1,210.21,154.09Zm0,10.41a2.62,2.62,0,0,0,2.28-1,5.16,5.16,0,0,0,.73-3,5.27,5.27,0,0,0-.73-3,3,3,0,0,0-4.59,0,5.17,5.17,0,0,0-.75,3,5.12,5.12,0,0,0,.75,3A2.67,2.67,0,0,0,210.21,164.5Z"/><path class="a" d="M221.32,155.8a7.36,7.36,0,0,1,.79-.69,5,5,0,0,1,1.87-.89,5,5,0,0,1,2.94.21,3.59,3.59,0,0,1,1.3,1,4.29,4.29,0,0,1,.79,1.48,6.25,6.25,0,0,1,.27,1.89v7.84h-3v-7.84a2.7,2.7,0,0,0-.52-1.75,1.93,1.93,0,0,0-1.57-.61,3.12,3.12,0,0,0-1.44.34,5.33,5.33,0,0,0-1.27.95v8.91h-3V154.28h1.81a.73.73,0,0,1,.76.54Z"/><path class="a" d="M242.78,148.76V166.6H241a.71.71,0,0,1-.75-.54l-.25-1.19a6,6,0,0,1-1.71,1.38,4.62,4.62,0,0,1-2.25.53,4,4,0,0,1-3.29-1.64,5.69,5.69,0,0,1-.94-2,9.93,9.93,0,0,1-.33-2.68,8.68,8.68,0,0,1,.37-2.55,6.39,6.39,0,0,1,1.07-2,5.18,5.18,0,0,1,1.67-1.35,4.88,4.88,0,0,1,2.18-.48,4.31,4.31,0,0,1,1.77.32,4.64,4.64,0,0,1,1.31.88v-6.5Zm-3,8.67a3,3,0,0,0-1.1-.87,3.39,3.39,0,0,0-1.28-.25,2.94,2.94,0,0,0-1.21.25,2.53,2.53,0,0,0-.93.77,3.66,3.66,0,0,0-.58,1.29,7.28,7.28,0,0,0-.21,1.86,8,8,0,0,0,.18,1.83,3.61,3.61,0,0,0,.49,1.22,1.86,1.86,0,0,0,.8.68,2.51,2.51,0,0,0,1,.21,3,3,0,0,0,1.57-.38,4.92,4.92,0,0,0,1.23-1.09Z"/><path class="a" d="M245.42,156a7.29,7.29,0,0,1,5.11-1.94,4.89,4.89,0,0,1,1.93.35,4.09,4.09,0,0,1,1.44,1,4.25,4.25,0,0,1,.9,1.51,5.86,5.86,0,0,1,.3,1.92v7.78h-1.34a1.41,1.41,0,0,1-.65-.13.86.86,0,0,1-.36-.51l-.26-.89a11,11,0,0,1-.91.74,5.41,5.41,0,0,1-.93.53,4.35,4.35,0,0,1-1,.33,5.7,5.7,0,0,1-1.21.12,4.73,4.73,0,0,1-1.44-.21,3.16,3.16,0,0,1-1.14-.63,2.74,2.74,0,0,1-.74-1,3.61,3.61,0,0,1-.27-1.45,2.76,2.76,0,0,1,.16-.93,2.56,2.56,0,0,1,.51-.88,4.08,4.08,0,0,1,.92-.79,5.54,5.54,0,0,1,1.38-.65,13,13,0,0,1,1.92-.45,17.7,17.7,0,0,1,2.49-.21v-.72a2.72,2.72,0,0,0-.52-1.83,2,2,0,0,0-1.53-.59,3.64,3.64,0,0,0-1.19.16,5.53,5.53,0,0,0-.84.38l-.65.38a1.35,1.35,0,0,1-.66.17.89.89,0,0,1-.52-.16A1.39,1.39,0,0,1,246,157Zm6.79,5.34a16.27,16.27,0,0,0-2.16.22,5.72,5.72,0,0,0-1.4.42,1.82,1.82,0,0,0-.76.58,1.32,1.32,0,0,0-.23.74,1.27,1.27,0,0,0,.47,1.11,1.94,1.94,0,0,0,1.2.34,3.51,3.51,0,0,0,1.58-.33,4.83,4.83,0,0,0,1.3-1Z"/><path class="a" d="M260.68,156.42a5.31,5.31,0,0,1,1.37-1.73,2.91,2.91,0,0,1,1.87-.63,2.27,2.27,0,0,1,1.37.37l-.19,2.22a.61.61,0,0,1-.17.3.5.5,0,0,1-.31.09,3.38,3.38,0,0,1-.53-.06,4.2,4.2,0,0,0-.69-.06,2.42,2.42,0,0,0-.88.15,2,2,0,0,0-.69.41,3,3,0,0,0-.54.66,5.87,5.87,0,0,0-.44.87v7.59h-3V154.28h1.74a.72.72,0,0,1,.87.75Z"/><path class="a" d="M278,154.28l-6.7,15.7a1.1,1.1,0,0,1-.35.47,1,1,0,0,1-.64.17h-2.21l2.31-5-5-11.39h2.6a.84.84,0,0,1,.55.17,1,1,0,0,1,.29.39l2.62,6.38a5.53,5.53,0,0,1,.22.65c.06.21.12.43.17.66.08-.23.15-.45.22-.67s.15-.44.24-.65l2.47-6.37a.89.89,0,0,1,.32-.4.88.88,0,0,1,.5-.16Z"/><path d="M187.36,230.6v8H156.87V186.54h9.68V230.6Z"/><path d="M192,206.81A21.91,21.91,0,0,1,207.34,201a14.91,14.91,0,0,1,5.79,1.06,12.16,12.16,0,0,1,4.32,3,12.73,12.73,0,0,1,2.69,4.52,17.4,17.4,0,0,1,.91,5.76V238.6h-4a4.06,4.06,0,0,1-1.94-.38,2.57,2.57,0,0,1-1.08-1.53l-.79-2.67a33.43,33.43,0,0,1-2.74,2.22,16.42,16.42,0,0,1-2.77,1.6,15.2,15.2,0,0,1-3.08,1,17.61,17.61,0,0,1-3.62.34,14.18,14.18,0,0,1-4.32-.63,9.49,9.49,0,0,1-3.42-1.89,8.48,8.48,0,0,1-2.23-3.13,11.09,11.09,0,0,1-.79-4.36,8.51,8.51,0,0,1,.47-2.79,8.1,8.1,0,0,1,1.53-2.64,12.64,12.64,0,0,1,2.75-2.38,17.92,17.92,0,0,1,4.16-1.94,36.33,36.33,0,0,1,5.74-1.35,56.61,56.61,0,0,1,7.49-.63v-2.16q0-3.71-1.59-5.49a5.78,5.78,0,0,0-4.57-1.78,10.76,10.76,0,0,0-3.58.5,15,15,0,0,0-2.5,1.13l-2,1.14a4,4,0,0,1-2,.5,2.58,2.58,0,0,1-1.58-.48,4.15,4.15,0,0,1-1-1.14Zm20.38,16a49.77,49.77,0,0,0-6.48.66,17.17,17.17,0,0,0-4.21,1.25,5.46,5.46,0,0,0-2.27,1.76,3.8,3.8,0,0,0-.69,2.2,3.85,3.85,0,0,0,1.39,3.34,6,6,0,0,0,3.62,1,10.54,10.54,0,0,0,4.73-1,14.12,14.12,0,0,0,3.91-3Z"/><path d="M241.21,239.17c-3.21,0-5.68-.9-7.39-2.72a10.45,10.45,0,0,1-2.58-7.5V208.32h-3.78a1.72,1.72,0,0,1-1.22-.47,1.81,1.81,0,0,1-.51-1.4v-3.53l5.94-1,1.88-10.08a2,2,0,0,1,.68-1.12,2.07,2.07,0,0,1,1.3-.39h4.6V202H250v6.34h-9.87v20A4,4,0,0,0,241,231a2.94,2.94,0,0,0,2.32,1,4.26,4.26,0,0,0,1.39-.2,8.34,8.34,0,0,0,1-.41l.74-.42a1.23,1.23,0,0,1,.65-.2,1,1,0,0,1,.64.2,2.74,2.74,0,0,1,.54.6l2.67,4.32a13.48,13.48,0,0,1-4.47,2.44A16.39,16.39,0,0,1,241.21,239.17Z"/><path d="M271.74,201.08a20.07,20.07,0,0,1,7.47,1.34A16.13,16.13,0,0,1,285,206.2a16.47,16.47,0,0,1,3.69,6,24.68,24.68,0,0,1,0,15.81,16.9,16.9,0,0,1-3.69,6,16.07,16.07,0,0,1-5.76,3.81,20.07,20.07,0,0,1-7.47,1.34,20.3,20.3,0,0,1-7.52-1.34,16.06,16.06,0,0,1-5.78-3.81,17.23,17.23,0,0,1-3.71-6,24.51,24.51,0,0,1,0-15.81,16.78,16.78,0,0,1,3.71-6,16.13,16.13,0,0,1,5.78-3.78A20.3,20.3,0,0,1,271.74,201.08Zm0,31.22c3.07,0,5.35-1,6.82-3.1s2.22-5.09,2.22-9.07-.74-7-2.22-9.11-3.75-3.13-6.82-3.13-5.43,1.05-6.93,3.15-2.25,5.13-2.25,9.09.75,7,2.25,9.05S268.62,232.3,271.74,232.3Z"/><path class="a" d="M194.26,301.2a1.05,1.05,0,0,1-.3.37.72.72,0,0,1-.4.11,1,1,0,0,1-.55-.19l-.7-.41a5.43,5.43,0,0,0-1-.41,3.81,3.81,0,0,0-1.29-.19,3.76,3.76,0,0,0-1.17.16,2.54,2.54,0,0,0-.85.45,1.73,1.73,0,0,0-.51.69,2.3,2.3,0,0,0-.17.88,1.52,1.52,0,0,0,.35,1,2.68,2.68,0,0,0,.9.7,9.88,9.88,0,0,0,1.29.52l1.47.48a12.72,12.72,0,0,1,1.48.6,5,5,0,0,1,1.28.87,3.82,3.82,0,0,1,.91,1.27,4.45,4.45,0,0,1,.34,1.84,5.93,5.93,0,0,1-.4,2.2A5,5,0,0,1,193.8,314a5.37,5.37,0,0,1-1.89,1.2,7,7,0,0,1-2.55.44,8.2,8.2,0,0,1-3.18-.63,8.2,8.2,0,0,1-1.38-.72,6.76,6.76,0,0,1-1.16-.93l1-1.55a1,1,0,0,1,.31-.28.78.78,0,0,1,.41-.12,1.18,1.18,0,0,1,.65.25c.23.16.51.35.83.55a6.15,6.15,0,0,0,1.12.54,4.18,4.18,0,0,0,1.54.25,3.17,3.17,0,0,0,2.14-.66,2.34,2.34,0,0,0,.75-1.87,1.74,1.74,0,0,0-.34-1.12,2.86,2.86,0,0,0-.9-.73,6.94,6.94,0,0,0-1.29-.49l-1.46-.45a13.13,13.13,0,0,1-1.47-.57,4.94,4.94,0,0,1-1.28-.88,4,4,0,0,1-.91-1.35,5.32,5.32,0,0,1-.34-2,4.79,4.79,0,0,1,.38-1.85,4.69,4.69,0,0,1,1.1-1.59,5.3,5.3,0,0,1,1.77-1.12,6.58,6.58,0,0,1,2.43-.42,8.08,8.08,0,0,1,2.83.48,6.41,6.41,0,0,1,2.21,1.35Z"/><path class="a" d="M208.29,303.08l-6.71,15.7a1,1,0,0,1-.34.47,1,1,0,0,1-.64.17h-2.21l2.31-4.95-5-11.39h2.6a.86.86,0,0,1,.55.17,1,1,0,0,1,.29.39l2.62,6.38c.08.22.16.43.22.65s.12.43.17.66c.07-.23.15-.45.22-.67s.15-.44.24-.65l2.47-6.37a.83.83,0,0,1,.32-.4.88.88,0,0,1,.5-.16Z"/><path class="a" d="M217,305.48a.83.83,0,0,1-.25.27.59.59,0,0,1-.34.08,1.05,1.05,0,0,1-.46-.12l-.57-.27a5.25,5.25,0,0,0-.74-.27,3.55,3.55,0,0,0-1-.12,2.3,2.3,0,0,0-1.37.37,1.18,1.18,0,0,0-.5,1,.93.93,0,0,0,.26.66,2.41,2.41,0,0,0,.68.48,8.27,8.27,0,0,0,1,.36l1.1.36a11.2,11.2,0,0,1,1.09.43,4,4,0,0,1,1,.63,2.89,2.89,0,0,1,.68.9,2.81,2.81,0,0,1,.26,1.28,4,4,0,0,1-.32,1.63,3.45,3.45,0,0,1-.94,1.3,4.39,4.39,0,0,1-1.54.85,6.53,6.53,0,0,1-2.12.31,6.36,6.36,0,0,1-1.24-.12,7.33,7.33,0,0,1-1.16-.31,7.12,7.12,0,0,1-1-.48,6.11,6.11,0,0,1-.83-.6l.68-1.13a.94.94,0,0,1,.32-.31.79.79,0,0,1,.45-.11,1,1,0,0,1,.52.15l.57.34a5.68,5.68,0,0,0,.77.34,3.46,3.46,0,0,0,1.11.15,3,3,0,0,0,.9-.12,2.33,2.33,0,0,0,.63-.33,1.38,1.38,0,0,0,.36-.48,1.51,1.51,0,0,0,.11-.56,1,1,0,0,0-.26-.7,2.07,2.07,0,0,0-.68-.48,6.78,6.78,0,0,0-1-.37l-1.12-.35a11.9,11.9,0,0,1-1.12-.45,4.05,4.05,0,0,1-1-.66,3,3,0,0,1-.68-1,3.41,3.41,0,0,1-.26-1.39,3.51,3.51,0,0,1,.3-1.44,3.33,3.33,0,0,1,.88-1.2,4.31,4.31,0,0,1,1.45-.81,5.89,5.89,0,0,1,2-.31,6.18,6.18,0,0,1,2.32.42,5.1,5.1,0,0,1,1.74,1.11Z"/><path class="a" d="M224.17,315.59a3.22,3.22,0,0,1-2.47-.91,3.5,3.5,0,0,1-.86-2.5V305.3h-1.26a.57.57,0,0,1-.4-.15.59.59,0,0,1-.17-.47V303.5l2-.32.62-3.36a.63.63,0,0,1,.66-.5h1.54v3.87h3.29v2.11h-3.29V312a1.33,1.33,0,0,0,.28.9,1,1,0,0,0,.77.32,1.29,1.29,0,0,0,.47-.07l.32-.13.25-.14a.35.35,0,0,1,.21-.07.32.32,0,0,1,.22.07,1.28,1.28,0,0,1,.18.2l.89,1.44a4.49,4.49,0,0,1-1.49.81A5.37,5.37,0,0,1,224.17,315.59Z"/><path class="a" d="M231.18,309.61a5.8,5.8,0,0,0,.33,1.64,3.39,3.39,0,0,0,.7,1.14,2.79,2.79,0,0,0,1,.67,3.73,3.73,0,0,0,1.32.22,4.15,4.15,0,0,0,1.24-.16,6.09,6.09,0,0,0,.91-.38l.69-.37a1.14,1.14,0,0,1,.57-.17.63.63,0,0,1,.55.28l.85,1.08a5.28,5.28,0,0,1-1.1,1,6.64,6.64,0,0,1-2.64,1,10.32,10.32,0,0,1-1.34.1,6.62,6.62,0,0,1-2.38-.43,5.18,5.18,0,0,1-1.92-1.26,5.83,5.83,0,0,1-1.29-2.06,8,8,0,0,1-.47-2.85,6.86,6.86,0,0,1,.41-2.37,5.46,5.46,0,0,1,3-3.24,6.13,6.13,0,0,1,2.48-.48,6.22,6.22,0,0,1,2.15.37,4.69,4.69,0,0,1,1.69,1.09,5.14,5.14,0,0,1,1.11,1.75,6.47,6.47,0,0,1,.4,2.37,2,2,0,0,1-.14.91.61.61,0,0,1-.55.23Zm5.65-1.79a3.81,3.81,0,0,0-.16-1.08,2.62,2.62,0,0,0-.49-.9,2.39,2.39,0,0,0-.82-.6,2.79,2.79,0,0,0-1.16-.22,2.72,2.72,0,0,0-2,.73,3.57,3.57,0,0,0-.94,2.07Z"/><path class="a" d="M241.71,315.4V303.08h1.81a.73.73,0,0,1,.76.54l.19.92a7,7,0,0,1,.68-.66,4.27,4.27,0,0,1,.76-.52,3.86,3.86,0,0,1,.86-.34,3.63,3.63,0,0,1,1-.13,2.88,2.88,0,0,1,1.92.63,3.8,3.8,0,0,1,1.12,1.68,3.62,3.62,0,0,1,.72-1.05,3.85,3.85,0,0,1,1-.72,4.53,4.53,0,0,1,1.1-.41,5.67,5.67,0,0,1,1.17-.13,5.08,5.08,0,0,1,1.81.31,3.49,3.49,0,0,1,1.33.92,4,4,0,0,1,.82,1.46,6.36,6.36,0,0,1,.28,2v7.84h-3v-7.84a2.62,2.62,0,0,0-.52-1.77,1.86,1.86,0,0,0-1.51-.59,2.32,2.32,0,0,0-.84.15,2.29,2.29,0,0,0-.69.45,2.12,2.12,0,0,0-.46.74,3,3,0,0,0-.17,1v7.84h-3v-7.84a2.71,2.71,0,0,0-.5-1.8,1.83,1.83,0,0,0-1.46-.56,2.45,2.45,0,0,0-1.21.31,4.37,4.37,0,0,0-1,.87v9Z"/><path d="M193.4,387.4H182.08l-4.5-11.71H157l-4.25,11.71h-11l20.07-51.54h11ZM174.24,367l-7.1-19.12-7,19.12Z"/><path d="M208.31,387.4h-9.88V350.06h9.17v5.31a16.17,16.17,0,0,1,4.24-5,7.78,7.78,0,0,1,4.27-1.19,12.59,12.59,0,0,1,6.51,1.86l-3.06,8.61a8.65,8.65,0,0,0-4.64-1.61,5.49,5.49,0,0,0-3.52,1.14,7.88,7.88,0,0,0-2.27,4.13q-.82,3-.82,12.51Z"/><path d="M226.87,345v-9.14h9.88V345Zm0,42.4V350.06h9.88V387.4Z"/><path d="M254.26,361.45l-9-1.62a13.91,13.91,0,0,1,5.21-8q3.69-2.61,11-2.6,6.62,0,9.85,1.56a9.86,9.86,0,0,1,4.55,4q1.32,2.42,1.32,8.84l-.11,11.54a39.62,39.62,0,0,0,.48,7.26,21.47,21.47,0,0,0,1.77,5h-9.77c-.26-.66-.57-1.63-.95-2.92-.16-.59-.28-1-.35-1.16a17.85,17.85,0,0,1-5.41,3.69,15.58,15.58,0,0,1-6.16,1.23q-5.76,0-9.08-3.13a10.39,10.39,0,0,1-3.33-7.91,10.67,10.67,0,0,1,1.51-5.64,9.91,9.91,0,0,1,4.24-3.8,32.89,32.89,0,0,1,7.86-2.3,54.17,54.17,0,0,0,9.6-2.43v-1c0-1.9-.47-3.25-1.41-4.06s-2.71-1.22-5.31-1.22a7.05,7.05,0,0,0-4.11,1A7.19,7.19,0,0,0,254.26,361.45Zm13.22,8c-1.27.42-3.27.92-6,1.51a17.92,17.92,0,0,0-5.37,1.72,4.11,4.11,0,0,0-1.94,3.48,4.87,4.87,0,0,0,1.55,3.59,5.42,5.42,0,0,0,3.94,1.51,8.54,8.54,0,0,0,5.09-1.76,6.19,6.19,0,0,0,2.36-3.27,19.35,19.35,0,0,0,.39-4.82Z"/><path d="M286.92,387.4V335.86h9.88V387.4Z"/></svg>