<svg xmlns="http://www.w3.org/2000/svg" viewBox="0 0 393.28 282.29"><defs><style>.a{font-size:7px;fill:#808386;}.a,.h{font-family:Lato-Bold, Lato;}.b,.c,.d,.e,.f,.i,.j,.k,.l,.m,.n,.o{font-weight:700;}.b{letter-spacing:0em;}.d{letter-spacing:-0.01em;}.e{letter-spacing:-0.01em;}.f{letter-spacing:0em;}.g,.u,.x{font-family:Lato-Regular, Lato;}.h,.q{font-size:10px;}.h{fill:#006ab4;}.i{letter-spacing:-0.02em;}.j{letter-spacing:-0.01em;}.k{letter-spacing:-0.03em;}.l{letter-spacing:-0.01em;}.m,.z{letter-spacing:-0.02em;}.n{letter-spacing:0em;}.o{letter-spacing:0em;}.p,.q{font-family:Lato-Light, Lato;}.q{fill:#010101;}.r{letter-spacing:0em;}.s{letter-spacing:-0.03em;}.t,.v,.w{fill:none;}.t{stroke:#000;}.t,.w{stroke-miterlimit:10;}.u{font-size:9px;fill:#1d1d1b;}.v{stroke:#666;stroke-linejoin:round;stroke-width:0.75px;stroke-dasharray:0 2;}.v,.w{stroke-linecap:round;}.w{stroke:#2a82c5;stroke-width:2px;}.x{font-size:8px;fill:#878787;}.y{letter-spacing:-0.01em;}.aa{letter-spacing:-0.01em;}.ab{letter-spacing:-0.02em;}.ac{letter-spacing:0em;}</style></defs><title>line-chart-example</title><text class="a" transform="translate(0.06 280.3)"><tspan class="b">S</tspan><tspan class="c" x="3.83" y="0">ou</tspan><tspan class="d" x="11.8" y="0">r</tspan><tspan class="e" x="14.31" y="0">c</tspan><tspan class="f" x="17.62" y="0">e:</tspan><tspan class="g" x="23.16" y="0" xml:space="preserve"> UNHCR</tspan></text><text class="h" transform="translate(0.06 23.79)"><tspan class="i">N</tspan><tspan class="j" x="7.55" y="0">e</tspan><tspan class="c" x="12.82" y="0">wl</tspan><tspan class="k" x="23.33" y="0">y</tspan><tspan class="c" x="28.35" y="0" xml:space="preserve"> displa</tspan><tspan class="l" x="56.63" y="0">c</tspan><tspan class="c" x="61.36" y="0">ed pe</tspan><tspan class="b" x="85.83" y="0">r</tspan><tspan class="c" x="89.54" y="0">sons pe</tspan><tspan class="m" x="123.17" y="0">r</tspan><tspan class="n" x="126.69" y="0" xml:space="preserve"> minu</tspan><tspan class="o" x="151.31" y="0">t</tspan><tspan class="c" x="154.99" y="0">e</tspan><tspan class="p" x="160.33" y="0" xml:space="preserve"> | 2003 - 2016</tspan></text><text class="q" transform="translate(0.06 8.54)"><tspan class="r">F</tspan><tspan x="5.61" y="0">igu</tspan><tspan class="s" x="18.44" y="0">r</tspan><tspan x="21.69" y="0">e 8</tspan></text><line class="t" x1="14.35" y1="252.79" x2="392.91" y2="252.79"/><text class="u" transform="translate(7.22 251.44)">0</text><text class="u" transform="translate(7.22 223.43)">5</text><text class="u" transform="translate(2 195.42)">10</text><text class="u" transform="translate(2 167.41)">15</text><text class="u" transform="translate(2 139.4)">20</text><text class="u" transform="translate(2 111.39)">25</text><text class="u" transform="translate(2 83.38)">30</text><text class="u" transform="translate(2 55.38)">35</text><line class="v" x1="14.35" y1="224.78" x2="392.91" y2="224.78"/><line class="v" x1="14.35" y1="196.77" x2="392.91" y2="196.77"/><line class="v" x1="14.35" y1="168.76" x2="392.91" y2="168.76"/><line class="v" x1="14.35" y1="140.75" x2="392.91" y2="140.75"/><line class="v" x1="14.35" y1="112.74" x2="392.91" y2="112.74"/><line class="v" x1="14.35" y1="84.73" x2="392.91" y2="84.73"/><line class="v" x1="14.35" y1="56.72" x2="392.91" y2="56.72"/><line class="w" x1="54.91" y1="211.08" x2="27.87" y2="208.76"/><line class="w" x1="81.95" y1="221.78" x2="54.91" y2="211.08"/><line class="w" x1="108.99" y1="202.4" x2="81.95" y2="221.78"/><line class="w" x1="136.03" y1="203.66" x2="108.99" y2="202.4"/><line class="w" x1="163.07" y1="190.94" x2="136.03" y2="203.66"/><line class="w" x1="190.11" y1="166.38" x2="163.07" y2="190.94"/><line class="w" x1="217.15" y1="210.55" x2="190.11" y2="166.38"/><line class="w" x1="244.19" y1="197.62" x2="217.15" y2="210.55"/><line class="w" x1="271.23" y1="161.69" x2="244.19" y2="197.62"/><line class="w" x1="298.27" y1="126.64" x2="271.23" y2="161.69"/><line class="w" x1="325.31" y1="86.49" x2="298.27" y2="126.64"/><line class="w" x1="352.35" y1="120.48" x2="325.31" y2="86.49"/><line class="w" x1="379.39" y1="143.54" x2="352.35" y2="120.48"/><text class="u" transform="translate(373.25 264.16)">&apos;16</text><text class="u" transform="translate(346.21 264.16)">&apos;15</text><text class="u" transform="translate(319.17 264.16)">&apos;14</text><text class="u" transform="translate(292.13 264.16)">&apos;13</text><text class="u" transform="translate(265.09 264.16)">&apos;12</text><text class="u" transform="translate(238.05 264.16)">&apos;11</text><text class="u" transform="translate(211.01 264.16)">&apos;10</text><text class="u" transform="translate(183.97 264.16)">&apos;09</text><text class="u" transform="translate(156.93 264.16)">&apos;08</text><text class="u" transform="translate(129.9 264.16)">&apos;07</text><text class="u" transform="translate(102.86 264.16)">&apos;06</text><text class="u" transform="translate(75.82 264.16)">&apos;05</text><text class="u" transform="translate(48.78 264.16)">&apos;04</text><text class="u" transform="translate(21.74 264.16)">&apos;03</text><text class="x" transform="translate(0 42.5)"><tspan class="y">N</tspan><tspan x="6.04" y="0">umbe</tspan><tspan class="z" x="25.78" y="0">r</tspan><tspan x="28.52" y="0"> </tspan><tspan class="aa" x="30.57" y="0">o</tspan><tspan class="ab" x="35.02" y="0">f</tspan><tspan class="ac" x="37.68" y="0" xml:space="preserve"> people</tspan></text></svg>