<svg xmlns="http://www.w3.org/2000/svg" viewBox="0 0 397.1 281.35"><defs><style>.a,.al,.c,.d,.e{fill:none;}.a{stroke:#000;}.a,.al{stroke-miterlimit:10;}.b{font-size:9px;}.ac,.b{fill:#1d1d1b;}.ac,.am,.b,.l{font-family:Lato-Regular, Lato;}.c{stroke:#666;stroke-width:0.75px;stroke-dasharray:0 2;}.al,.c,.d,.e{stroke-linecap:round;}.c,.d,.e{stroke-linejoin:round;}.d{stroke:#2a82c5;}.al,.d,.e{stroke-width:2px;}.al,.e{stroke:#e83c58;}.f{font-size:7px;fill:#808386;}.f,.m{font-family:Lato-Bold, Lato;}.g,.h,.i,.j,.k,.n,.o,.p,.q,.r,.s,.t{font-weight:700;}.g{letter-spacing:0em;}.i{letter-spacing:-0.01em;}.j{letter-spacing:-0.01em;}.k{letter-spacing:0em;}.m,.z{font-size:10px;}.m{fill:#006ab4;}.ab,.n{letter-spacing:-0.03em;}.o{letter-spacing:0em;}.p{letter-spacing:-0.01em;}.ah,.q{letter-spacing:-0.02em;}.r{letter-spacing:-0.01em;}.s{letter-spacing:-0.01em;}.t{letter-spacing:0em;}.u,.z{font-family:Lato-Light, Lato;}.v,.w,.x,.y{font-family:Lato-LightItalic, Lato;font-style:italic;}.v{letter-spacing:-0.01em;}.w{letter-spacing:0em;}.x{letter-spacing:-0.02em;}.y{letter-spacing:0em;}.z{fill:#010101;}.aa{letter-spacing:0em;}.ac,.am{font-size:8px;}.ad{letter-spacing:-0.03em;}.ae{letter-spacing:0em;}.af{letter-spacing:-0.02em;}.ag{letter-spacing:-0.01em;}.ai{letter-spacing:-0.01em;}.aj{letter-spacing:0em;}.ak{letter-spacing:-0.01em;}.am{fill:#878787;}.an{letter-spacing:-0.03em;}.ao{letter-spacing:-0.01em;}</style></defs><title>line-chart-multiple</title><line class="a" x1="13.36" y1="251.84" x2="391.91" y2="251.84"/><text class="b" transform="translate(5.22 254.5)">0</text><text class="b" transform="translate(3.22 216.28)">2</text><text class="b" transform="translate(3.22 177.07)">4</text><text class="b" transform="translate(3.22 138.36)">6</text><text class="b" transform="translate(3.22 98.65)">8</text><text class="b" transform="translate(0 58.43)">10</text><line class="c" x1="13.36" y1="212.63" x2="391.91" y2="212.63"/><line class="c" x1="13.36" y1="173.42" x2="391.91" y2="173.42"/><line class="c" x1="13.36" y1="134.2" x2="391.91" y2="134.2"/><line class="c" x1="13.36" y1="94.99" x2="391.91" y2="94.99"/><line class="c" x1="13.36" y1="55.78" x2="391.91" y2="55.78"/><line class="d" x1="64.98" y1="211.26" x2="30.56" y2="215.29"/><line class="d" x1="99.39" y1="225.15" x2="64.98" y2="211.26"/><line class="d" x1="133.8" y1="208.13" x2="99.39" y2="225.15"/><line class="d" x1="168.22" y1="194.53" x2="133.8" y2="208.13"/><line class="d" x1="202.63" y1="188.2" x2="168.22" y2="194.53"/><line class="d" x1="237.05" y1="221.54" x2="202.63" y2="188.2"/><line class="d" x1="271.46" y1="225.25" x2="237.05" y2="221.54"/><line class="d" x1="305.88" y1="216.11" x2="271.46" y2="225.25"/><line class="d" x1="340.29" y1="206.75" x2="305.88" y2="216.11"/><line class="d" x1="374.7" y1="116.56" x2="340.29" y2="206.75"/><line class="e" x1="64.98" y1="221.4" x2="30.56" y2="211.52"/><line class="e" x1="99.39" y1="229.47" x2="64.98" y2="221.4"/><line class="e" x1="133.8" y1="234.8" x2="99.39" y2="229.47"/><line class="e" x1="168.22" y1="226.55" x2="133.8" y2="234.8"/><line class="e" x1="202.63" y1="194.66" x2="168.22" y2="226.55"/><line class="e" x1="237.05" y1="150" x2="202.63" y2="194.66"/><line class="e" x1="271.46" y1="102.23" x2="237.05" y2="150"/><line class="e" x1="305.88" y1="83.39" x2="271.46" y2="102.23"/><line class="e" x1="340.29" y1="116.69" x2="305.88" y2="83.39"/><line class="e" x1="374.7" y1="154.42" x2="340.29" y2="116.69"/><text class="b" transform="translate(368.57 263.21)">&apos;16</text><text class="b" transform="translate(334.15 263.21)">&apos;15</text><text class="b" transform="translate(299.74 263.21)">&apos;14</text><text class="b" transform="translate(265.32 263.21)">&apos;13</text><text class="b" transform="translate(230.91 263.21)">&apos;12</text><text class="b" transform="translate(196.49 263.21)">&apos;11</text><text class="b" transform="translate(162.08 263.21)">&apos;10</text><text class="b" transform="translate(127.67 263.21)">&apos;09</text><text class="b" transform="translate(93.25 263.21)">&apos;08</text><text class="b" transform="translate(58.84 263.21)">&apos;07</text><text class="b" transform="translate(24.42 263.21)">&apos;06</text><text class="f" transform="translate(0.25 279.36)"><tspan class="g">S</tspan><tspan class="h" x="3.83" y="0">ou</tspan><tspan class="i" x="11.8" y="0">r</tspan><tspan class="j" x="14.31" y="0">c</tspan><tspan class="k" x="17.62" y="0">e:</tspan><tspan class="l" x="23.16" y="0" xml:space="preserve"> UNHCR</tspan></text><text class="m" transform="translate(0.25 23.79)"><tspan class="h">ID</tspan><tspan class="n" x="10.57" y="0">P</tspan><tspan class="o" x="16.48" y="0" xml:space="preserve"> n</tspan><tspan class="p" x="24.55" y="0">e</tspan><tspan class="q" x="29.82" y="0">w</tspan><tspan class="h" x="37.64" y="0" xml:space="preserve"> displa</tspan><tspan class="r" x="65.92" y="0">c</tspan><tspan class="h" x="70.65" y="0">eme</tspan><tspan class="p" x="89.7" y="0">n</tspan><tspan class="h" x="95.27" y="0">ts and </tspan><tspan class="s" x="124.64" y="0">r</tspan><tspan class="t" x="128.22" y="0">e</tspan><tspan class="h" x="133.51" y="0">turns</tspan><tspan class="u" x="156.64" y="0" xml:space="preserve"> | 2006 - 2016, </tspan><tspan class="v" x="224.89" y="0">(</tspan><tspan class="w" x="227.25" y="0">million</tspan><tspan class="x" x="253.75" y="0">s</tspan><tspan class="y" x="257.5" y="0">)</tspan></text><text class="z" transform="translate(0.25 8.54)"><tspan class="aa">F</tspan><tspan x="5.61" y="0">igu</tspan><tspan class="ab" x="18.44" y="0">r</tspan><tspan x="21.69" y="0">e 9</tspan></text><text class="ac" transform="translate(369.59 45.5)"><tspan class="ad">R</tspan><tspan class="ae" x="4.75" y="0">e</tspan><tspan x="8.95" y="0">turns</tspan></text><line class="d" x1="345.02" y1="43.15" x2="365.52" y2="43.15"/><text class="ac" transform="translate(250.55 45.5)"><tspan class="af">N</tspan><tspan class="ag" x="5.98" y="0">e</tspan><tspan class="ah" x="10.17" y="0">w</tspan><tspan x="16.29" y="0" xml:space="preserve"> displa</tspan><tspan class="ai" x="38.55" y="0">c</tspan><tspan class="aj" x="42.3" y="0">eme</tspan><tspan class="ak" x="57.32" y="0">n</tspan><tspan class="aj" x="61.73" y="0">ts</tspan></text><line class="al" x1="225.99" y1="43.15" x2="246.49" y2="43.15"/><text class="am" transform="translate(0.25 45.5)">ID<tspan class="an" x="8.32" y="0">P</tspan><tspan x="12.91" y="0" xml:space="preserve"> popul</tspan><tspan class="ao" x="34.81" y="0">a</tspan><tspan x="38.73" y="0">tion</tspan></text></svg>