<svg xmlns="http://www.w3.org/2000/svg" viewBox="0 0 396.28 335.95"><defs><style>.a,.t{font-size:8px;}.a,.r{fill:#1d1d1b;}.a,.p,.r,.t{font-family:Lato-Regular, Lato;}.b{letter-spacing:-0.01em;}.c{letter-spacing:-0.01em;}.d{letter-spacing:-0.01em;}.e{fill:#2a82c5;}.f{letter-spacing:-0.01em;}.g{letter-spacing:-0.02em;}.h{letter-spacing:0em;}.i,.q,.s{fill:none;}.i{stroke:#e83c58;stroke-width:2px;}.i,.s{stroke-linecap:round;}.i,.q{stroke-miterlimit:10;}.j{font-size:7px;fill:#808386;}.ab,.j{font-family:Lato-Bold, Lato;}.ac,.ad,.ae,.af,.ag,.ah,.ai,.k,.l,.m,.n,.o{font-weight:700;}.k{letter-spacing:0em;}.m{letter-spacing:-0.01em;}.n{letter-spacing:-0.01em;}.o{letter-spacing:0em;}.q{stroke:#000;}.r{font-size:9px;}.s{stroke:#666;stroke-linejoin:round;stroke-width:0.75px;stroke-dasharray:0 2;}.t{fill:#878787;}.u{letter-spacing:-0.01em;}.v{letter-spacing:-0.02em;}.w{letter-spacing:-0.02em;}.x{letter-spacing:-0.02em;}.y{letter-spacing:-0.01em;}.z{letter-spacing:-0.02em;}.aa{letter-spacing:0em;}.ab,.ak{font-size:10px;}.ab{fill:#006ab4;}.ac{letter-spacing:-0.1em;}.ad{letter-spacing:-0.01em;}.ae{letter-spacing:0em;}.af{letter-spacing:-0.01em;}.ag{letter-spacing:-0.02em;}.ah{letter-spacing:-0.01em;}.ai{letter-spacing:-0.01em;}.aj,.ak{font-family:Lato-Light, Lato;}.ak{fill:#010101;}.al{letter-spacing:0em;}.am{letter-spacing:-0.03em;}</style></defs><title>mixed-chart</title><text class="a" transform="translate(200.14 45.5)"><tspan class="b">D</tspan><tspan x="6" y="0">ispla</tspan><tspan class="c" x="21.74" y="0">c</tspan><tspan x="25.48" y="0">ed popul</tspan><tspan class="d" x="56.09" y="0">a</tspan><tspan x="60.01" y="0">tion</tspan></text><rect class="e" x="185.8" y="38.89" width="11.34" height="8.5"/><text class="a" transform="translate(323.69 45.5)"><tspan class="f">P</tspan><tspan class="g" x="4.73" y="0">r</tspan><tspan class="h" x="7.48" y="0">oportion displa</tspan><tspan class="c" x="60.13" y="0">c</tspan><tspan x="63.88" y="0">ed</tspan></text><line class="i" x1="299.13" y1="43.14" x2="319.63" y2="43.14"/><text class="j" transform="translate(1.49 333.96)"><tspan class="k">S</tspan><tspan class="l" x="3.83" y="0">ou</tspan><tspan class="m" x="11.8" y="0">r</tspan><tspan class="n" x="14.31" y="0">c</tspan><tspan class="o" x="17.62" y="0">e:</tspan><tspan class="p" x="23.16" y="0" xml:space="preserve"> UNHCR</tspan></text><line class="q" x1="17.55" y1="311.46" x2="383.55" y2="311.46"/><text class="r" transform="translate(5.22 312.4)">0</text><text class="r" transform="translate(2.61 264.34)">20</text><text class="r" transform="translate(2.61 216.28)">40</text><text class="r" transform="translate(2.61 168.23)">60</text><text class="r" transform="translate(2.61 120.17)">80</text><text class="r" transform="translate(0 72.11)">100</text><line class="s" x1="17.55" y1="263.41" x2="383.55" y2="263.41"/><line class="s" x1="17.55" y1="215.35" x2="383.55" y2="215.35"/><line class="s" x1="17.55" y1="167.29" x2="383.55" y2="167.29"/><line class="s" x1="17.55" y1="119.23" x2="383.55" y2="119.23"/><line class="s" x1="17.55" y1="71.18" x2="383.55" y2="71.18"/><text class="r" transform="translate(388.91 311.4)">0</text><text class="r" transform="translate(387.91 263.34)">2</text><text class="r" transform="translate(387.91 215.28)">4</text><text class="r" transform="translate(387.91 167.23)">6</text><text class="r" transform="translate(387.91 119.17)">8</text><text class="r" transform="translate(385.3 71.11)">10</text><rect class="e" x="367.81" y="153.84" width="13.18" height="157.63"/><rect class="e" x="349.51" y="154.56" width="13.18" height="156.91"/><rect class="e" x="331.21" y="168.42" width="13.18" height="143.04"/><rect class="e" x="312.91" y="188.44" width="13.18" height="123.03"/><rect class="e" x="294.61" y="202.95" width="13.18" height="108.51"/><rect class="e" x="276.31" y="209.34" width="13.18" height="102.12"/><rect class="e" x="258.01" y="206.43" width="13.18" height="105.03"/><rect class="e" x="239.71" y="207.54" width="13.18" height="103.92"/><rect class="e" x="221.41" y="210.59" width="13.18" height="100.87"/><rect class="e" x="203.11" y="208.89" width="13.18" height="102.58"/><rect class="e" x="184.81" y="216.62" width="13.18" height="94.84"/><rect class="e" x="166.51" y="221.33" width="13.18" height="90.13"/><rect class="e" x="148.21" y="215.37" width="13.18" height="96.09"/><rect class="e" x="129.91" y="216.96" width="13.18" height="94.51"/><rect class="e" x="111.61" y="213.64" width="13.18" height="97.82"/><rect class="e" x="93.31" y="210.26" width="13.18" height="101.21"/><rect class="e" x="75.01" y="219.63" width="13.18" height="91.84"/><rect class="e" x="56.71" y="220.9" width="13.18" height="90.56"/><rect class="e" x="38.41" y="226.57" width="13.18" height="84.89"/><rect class="e" x="20.11" y="229.98" width="13.18" height="81.48"/><line class="i" x1="374.4" y1="99.39" x2="356.1" y2="97.97"/><line class="i" x1="356.1" y1="97.97" x2="337.8" y2="114.59"/><line class="i" x1="337.8" y1="114.59" x2="319.5" y2="140.14"/><line class="i" x1="319.5" y1="140.14" x2="301.2" y2="158.58"/><line class="i" x1="301.2" y1="158.58" x2="282.9" y2="165.86"/><line class="i" x1="282.9" y1="165.86" x2="264.6" y2="159.91"/><line class="i" x1="264.6" y1="159.91" x2="246.3" y2="159.67"/><line class="i" x1="246.3" y1="159.67" x2="228" y2="162.34"/><line class="i" x1="228" y1="162.34" x2="209.7" y2="157.93"/><line class="i" x1="209.7" y1="157.93" x2="191.4" y2="167.77"/><line class="i" x1="191.4" y1="167.77" x2="173.1" y2="173.21"/><line class="i" x1="173.1" y1="173.21" x2="154.8" y2="162.24"/><line class="i" x1="154.8" y1="162.24" x2="136.5" y2="162.9"/><line class="i" x1="136.5" y1="162.9" x2="118.2" y2="155.75"/><line class="i" x1="118.2" y1="155.75" x2="99.9" y2="148.35"/><line class="i" x1="99.9" y1="148.35" x2="81.6" y2="161.55"/><line class="i" x1="81.6" y1="161.55" x2="63.3" y2="161.75"/><line class="i" x1="63.3" y1="161.75" x2="45" y2="169.3"/><line class="i" x1="45" y1="169.3" x2="26.7" y2="173.21"/><text class="r" transform="translate(368.26 323.59)">&apos;16</text><text class="r" transform="translate(349.96 323.59)">&apos;15</text><text class="r" transform="translate(331.66 323.59)">&apos;14</text><text class="r" transform="translate(313.36 323.59)">&apos;13</text><text class="r" transform="translate(295.06 323.59)">&apos;12</text><text class="r" transform="translate(276.76 323.59)">&apos;11</text><text class="r" transform="translate(258.46 323.59)">&apos;10</text><text class="r" transform="translate(240.16 323.59)">&apos;09</text><text class="r" transform="translate(221.86 323.59)">&apos;08</text><text class="r" transform="translate(203.56 323.59)">&apos;07</text><text class="r" transform="translate(185.26 323.59)">&apos;06</text><text class="r" transform="translate(166.96 323.59)">&apos;05</text><text class="r" transform="translate(148.66 323.59)">&apos;04</text><text class="r" transform="translate(130.36 323.59)">&apos;03</text><text class="r" transform="translate(112.06 323.59)">&apos;02</text><text class="r" transform="translate(93.76 323.59)">&apos;01</text><text class="r" transform="translate(75.46 323.59)">&apos;00</text><text class="r" transform="translate(57.16 323.59)">&apos;99</text><text class="r" transform="translate(38.86 323.59)">&apos;98</text><text class="r" transform="translate(20.56 323.59)">&apos;97</text><text class="t" transform="translate(0.28 58.52)"><tspan class="b">D</tspan><tspan x="6" y="0">ispla</tspan><tspan class="c" x="21.74" y="0">c</tspan><tspan x="25.48" y="0">ed popul</tspan><tspan class="d" x="56.09" y="0">a</tspan><tspan x="60.01" y="0">tion </tspan><tspan class="u" x="75.99" y="0">(</tspan><tspan x="78.06" y="0">million</tspan><tspan class="v" x="101.25" y="0">s</tspan><tspan x="104.54" y="0">)</tspan></text><text class="t" transform="translate(158.31 58.52)"><tspan class="f">P</tspan><tspan class="g" x="4.73" y="0">r</tspan><tspan class="h" x="7.48" y="0">oportion displa</tspan><tspan class="c" x="60.13" y="0">c</tspan><tspan x="63.88" y="0">ed </tspan><tspan class="u" x="74.63" y="0">(</tspan><tspan x="76.7" y="0">numbe</tspan><tspan class="w" x="100.91" y="0">r</tspan><tspan x="103.66" y="0" xml:space="preserve"> displa</tspan><tspan class="c" x="125.92" y="0">c</tspan><tspan class="h" x="129.66" y="0">ed pe</tspan><tspan class="w" x="149.12" y="0">r</tspan><tspan x="151.87" y="0" xml:space="preserve"> 1,000</tspan><tspan class="x" x="174.29" y="0"> </tspan><tspan class="y" x="176.17" y="0">w</tspan><tspan class="h" x="182.4" y="0">orld popul</tspan><tspan class="d" x="218.12" y="0">at</tspan><tspan x="222.04" y="0">io</tspan><tspan class="z" x="231.51" y="0">n</tspan><tspan class="aa" x="235.83" y="0">)</tspan></text><text class="ab" transform="translate(1.49 23.79)"><tspan class="ac">T</tspan><tspan class="ad" x="4.99" y="0">r</tspan><tspan class="ae" x="8.57" y="0">end </tspan><tspan class="af" x="27.66" y="0">o</tspan><tspan class="ag" x="33.28" y="0">f</tspan><tspan class="l" x="36.67" y="0" xml:space="preserve"> global displa</tspan><tspan class="ah" x="94.13" y="0">c</tspan><tspan class="ae" x="98.86" y="0">eme</tspan><tspan class="ai" x="117.91" y="0">n</tspan><tspan class="ae" x="123.48" y="0">t</tspan><tspan class="aj" x="127.2" y="0" xml:space="preserve"> | 1997 - 2016</tspan></text><text class="ak" transform="translate(1.49 8.54)"><tspan class="al">F</tspan><tspan x="5.61" y="0">igu</tspan><tspan class="am" x="18.44" y="0">r</tspan><tspan x="21.69" y="0">e 10</tspan></text></svg>