<svg xmlns="http://www.w3.org/2000/svg" xmlns:xlink="http://www.w3.org/1999/xlink" viewBox="0 0 841.89 595.28"><defs><style>.a,.ax{fill:none;}.b{clip-path:url(#a);}.c{fill:#0072bc;}.d{font-size:50px;}.aw,.ay,.d,.p{fill:#fff;}.aw,.d{font-family:ProximaNova-Bold, Proxima Nova;font-weight:700;}.e{letter-spacing:-0.02em;}.f{letter-spacing:-0.02em;}.g{letter-spacing:-0.01em;}.h{letter-spacing:0em;}.i{letter-spacing:-0.05em;}.j{letter-spacing:-0.03em;}.k{letter-spacing:-0.02em;}.l{letter-spacing:-0.04em;}.m{letter-spacing:-0.09em;}.n{letter-spacing:-0.03em;}.o{letter-spacing:0em;}.aw,.p{font-size:14px;}.p{font-family:ProximaNova-Regular, Proxima Nova;}.q{letter-spacing:-0.01em;}.r{letter-spacing:0em;}.s{letter-spacing:0em;}.t{letter-spacing:0em;}.u{letter-spacing:0em;}.v{letter-spacing:0em;}.w{letter-spacing:0em;}.x{letter-spacing:-0.01em;}.y{letter-spacing:-0.01em;}.z{letter-spacing:0.01em;}.aa{letter-spacing:0em;}.ab{letter-spacing:0em;}.ac{letter-spacing:0em;}.ad{letter-spacing:-0.01em;}.ae{letter-spacing:-0.01em;}.af{letter-spacing:-0.01em;}.ag{letter-spacing:0.03em;}.ah{letter-spacing:0em;}.ai{letter-spacing:0.01em;}.aj{letter-spacing:0em;}.ak{letter-spacing:0em;}.al{letter-spacing:0em;}.am{letter-spacing:0em;}.an{letter-spacing:0em;}.ao{letter-spacing:0.03em;}.ap{letter-spacing:-0.01em;}.aq{letter-spacing:0.01em;}.ar{letter-spacing:0em;}.as{letter-spacing:0em;}.at{letter-spacing:0em;}.au{letter-spacing:-0.02em;}.av{letter-spacing:0.02em;}.ax{stroke:#fff;stroke-width:0.35px;}</style><clipPath id="a"><rect class="a" width="841.89" height="595.28"/></clipPath></defs><title>unhcr-brandbook</title><g class="b"><rect class="c" x="-20.42" y="-16.28" width="877.68" height="627.12"/></g><text class="d" transform="translate(53.44 285.35)"><tspan class="e">U</tspan><tspan class="f" x="35.65" y="0">N</tspan><tspan class="g" x="71.15" y="0">H</tspan><tspan class="h" x="107.25" y="0">C</tspan><tspan class="i" x="141.6" y="0">R</tspan><tspan x="171.3" y="0"> </tspan><tspan class="j" x="184.1" y="0">B</tspan><tspan class="k" x="215.75" y="0">r</tspan><tspan class="l" x="232.8" y="0">an</tspan><tspan class="m" x="284.9" y="0">d</tspan><tspan x="309.7" y="0"> </tspan><tspan class="n" x="322.5" y="0">B</tspan><tspan class="f" x="354.15" y="0">o</tspan><tspan class="j" x="381.9" y="0">o</tspan><tspan class="o" x="409.09" y="0">k</tspan></text><text class="p" transform="translate(56.52 331.66)"><tspan class="q">T</tspan><tspan class="r" x="7.9" y="0">h</tspan><tspan x="15.58" y="0">is br</tspan><tspan class="r" x="41.52" y="0">a</tspan><tspan class="s" x="48.86" y="0">n</tspan><tspan x="56.56" y="0">d </tspan><tspan class="t" x="68.22" y="0">b</tspan><tspan class="u" x="76.28" y="0">o</tspan><tspan class="v" x="84.29" y="0">o</tspan><tspan x="92.29" y="0">k </tspan><tspan class="w" x="103.09" y="0">p</tspan><tspan class="x" x="111.13" y="0">r</tspan><tspan class="y" x="115.61" y="0">o</tspan><tspan class="z" x="123.45" y="0">v</tspan><tspan class="aa" x="130.41" y="0">i</tspan><tspan class="s" x="133.53" y="0">d</tspan><tspan class="ab" x="141.57" y="0">e</tspan><tspan x="149.41" y="0">s </tspan><tspan class="aa" x="159.53" y="0">g</tspan><tspan class="s" x="167.54" y="0">u</tspan><tspan class="ac" x="175.24" y="0">i</tspan><tspan class="s" x="178.36" y="0">de</tspan><tspan class="aa" x="194.26" y="0">li</tspan><tspan class="ab" x="200.5" y="0">ne</tspan><tspan x="216.02" y="0">s </tspan><tspan class="ad" x="226.14" y="0">f</tspan><tspan class="v" x="229.99" y="0">o</tspan><tspan class="u" x="237.98" y="0">r </tspan><tspan class="ae" x="246.21" y="0">c</tspan><tspan class="v" x="252.95" y="0">or</tspan><tspan class="af" x="265.55" y="0">r</tspan><tspan x="270.01" y="0">e</tspan><tspan class="ag" x="277.9" y="0">c</tspan><tspan class="ah" x="285.17" y="0">t</tspan><tspan class="ai" x="289.35" y="0">l</tspan><tspan x="292.58" y="0">y </tspan><tspan class="ae" x="303.05" y="0">c</tspan><tspan class="v" x="309.79" y="0">om</tspan><tspan class="ab" x="329.08" y="0">m</tspan><tspan class="aa" x="340.35" y="0">u</tspan><tspan class="aj" x="348.03" y="0">ni</tspan><tspan class="t" x="358.79" y="0">c</tspan><tspan class="ac" x="365.73" y="0">a</tspan><tspan class="ak" x="373.08" y="0">t</tspan><tspan class="al" x="377.25" y="0">i</tspan><tspan class="s" x="380.37" y="0">n</tspan><tspan x="388.07" y="0">g </tspan><tspan class="ak" x="399.72" y="0">t</tspan><tspan class="al" x="403.89" y="0">h</tspan><tspan x="411.59" y="0">e br</tspan><tspan class="ab" x="435.76" y="0">a</tspan><tspan class="s" x="443.09" y="0">n</tspan><tspan x="450.79" y="0">d </tspan><tspan class="al" x="462.45" y="0">i</tspan><tspan class="am" x="465.58" y="0">d</tspan><tspan class="al" x="473.61" y="0">e</tspan><tspan x="481.47" y="0">n</tspan><tspan class="ak" x="489.18" y="0">t</tspan><tspan class="an" x="493.35" y="0">i</tspan><tspan class="ao" x="496.53" y="0">t</tspan><tspan x="501.04" y="0">y </tspan><tspan class="ap" x="511.51" y="0">o</tspan><tspan x="519.4" y="0">f </tspan><tspan class="ai" x="526.98" y="0">U</tspan><tspan class="aq" x="536.86" y="0">N</tspan><tspan class="ar" x="546.89" y="0">H</tspan><tspan class="t" x="556.9" y="0">C</tspan><tspan class="ak" x="566.37" y="0">R</tspan><tspan class="as" x="574.94" y="0">, </tspan><tspan class="ak" x="581.77" y="0">t</tspan><tspan class="al" x="585.95" y="0">h</tspan><tspan x="593.65" y="0">e </tspan><tspan class="ai" x="605.14" y="0">U</tspan><tspan class="at" x="615.02" y="0">N </tspan><tspan class="au" x="628.55" y="0">R</tspan><tspan class="q" x="636.84" y="0">e</tspan><tspan x="644.63" y="0">fu</tspan><tspan class="am" x="656.31" y="0">g</tspan><tspan x="664.33" y="0">ee </tspan><tspan class="q" x="683.71" y="0">A</tspan><tspan class="am" x="692.83" y="0">g</tspan><tspan class="ac" x="700.86" y="0">e</tspan><tspan class="ab" x="708.71" y="0">n</tspan><tspan class="av" x="716.38" y="0">c</tspan><tspan x="723.55" y="0">y</tspan></text><text class="aw" transform="translate(121 375.01)"> </text><line class="ax" x1="56.45" y1="306.02" x2="785.39" y2="306.02"/><line class="ax" x1="56.45" y1="347.49" x2="785.39" y2="347.49"/><g class="b"><path class="ay" d="M619.63,81.66c.55,0,.48-.32.48-.9V77.91c0-.58-.06-.77.28-.77,1.17,0,1.49-.11,1.49-1.15V65.42c0-2.88-2-2.41-2.61-3.46-.81-1.42,1.52-1.42.67-4.5a1.64,1.64,0,0,0-1.81-1.13c-1.06,0-1.61.43-1.82,1.13-.85,3.08,1.49,3.08.67,4.5-.57,1-2.6.58-2.6,3.46V76c0,1,.31,1.15,1.49,1.15.32,0,.27.19.27.77v2.85c0,.58-.07.9.49.9Z"/><path class="ay" d="M610.37,58.72c-1,1.11-2.68,3.69-1.61,5.84,2.18.84,2-6.91,4.73-6.78,1.34,1.25-.4,4.9-.94,6.51-.67,2-1.21,6.14-2.48,8.15-1.07,1.68-.27,7-.61,8.76-.9.9-3.35.27-4.39.1,0-2.08-.27-3.72-.6-7,0-.67-.74-10.93-.17-12.17,1.17-2.59,7.58-7.52,8.46-8.46S616.24,50,617.28,50c.74.51.3,1.68.14,2.15-1,2.58-5.54,5.13-7,6.57"/><path class="ay" d="M626,58.72c1,1.11,2.65,3.69,1.61,5.84-2.21.84-2-6.91-4.76-6.78-1.31,1.25.43,4.9,1,6.51.67,2,1.21,6.14,2.48,8.15,1,1.68.27,7,.57,8.76.94.9,3.36.27,4.43.1,0-2.08.24-3.72.57-7,.07-.67.77-10.93.2-12.17-1.17-2.59-7.58-7.52-8.45-8.46S620.13,50,619.09,50c-.77.51-.3,1.68-.13,2.15,1,2.58,5.53,5.13,7,6.57"/><path class="ay" d="M601.05,55.25c-.57.54-1.85.9-2.72,2.07-.34-.63.54-2.17,1.58-3.08a13.07,13.07,0,0,1,2.72-1.78c.34.77-.87,1.95-1.58,2.79"/><path class="ay" d="M599.27,59.45c-1,.9-2,1.27-3.36,2.92a9.91,9.91,0,0,1-.17-4.91c.47-1.54,1.24-3.26,2.56-3.79a14.41,14.41,0,0,0-.81,3.73c-.57,2.25-.91,2.32-.77,2.62.13,0,.87-1.18,1.78-2.08,1.07-1.08,2.41-1.32,3.29-1.95a11.34,11.34,0,0,1-2.52,3.46"/><path class="ay" d="M594.53,68.76A12.31,12.31,0,0,1,593,62.7c.07-1.37.75-4.56,1.75-5-.3,2.88.48,3.15.17,5.54,0,.13-.34,2.62-.34,2.76.41-.07,0-2.29,4.64-5.48-1,1.75-.54,2.28-2.35,4.6a8.34,8.34,0,0,0-2.32,3.67"/><path class="ay" d="M596.38,71a6.33,6.33,0,0,0-1,2.78c-2.32-1.34-4.94-6.68-4-9.34.61,2,1.45,2.45,2,4.14,1,2.52.88,3.29,1.55,3.86a9.29,9.29,0,0,1,.74-4,25.52,25.52,0,0,1,1.61-2.69,6.44,6.44,0,0,1-.94,5.25"/><path class="ay" d="M598.47,75.55a30,30,0,0,1-.54,4.47c-4-1.31-6.09-5.88-6.09-8.14,1.21,2.76,3,2.72,5.32,6.63.2-1.49-.41-.38-.48-3.16s.68-3,.77-4.84c.75.8,1,4,1,5"/><path class="ay" d="M601.79,81.36c.3,1.51.44,3.3.67,4.61-2.28-.84-2.86-.21-5.57-1.92-1.25-.67-3.47-3.49-3.33-5.51,2.69,3,3.16,2.65,4.47,3.76s2.18,2.42,3.06,2.22c.06-.81-2-2.55-1.72-7.59a13.79,13.79,0,0,1,2.42,4.43"/><path class="ay" d="M606.33,85.13a17.2,17.2,0,0,0,2.35,3.52,19.88,19.88,0,0,1-4.74.95c-1.14,0-5.17-1.08-6.52-3.84,2.32,1.25,2.36.95,5.45,1.62,2.22.5,3.79,1.21,4.4,1.14-.13-.3-1.85-1-3-2.49s-.91-3.36-2-4.67c.71-.2,3.47,3,4,3.77"/><path class="ay" d="M635.13,55.25c.54.54,1.85.9,2.69,2.07.37-.63-.54-2.17-1.58-3.08a11.28,11.28,0,0,0-2.72-1.78c-.34.77.87,1.95,1.61,2.79"/><path class="ay" d="M636.91,59.45c.94.9,2,1.27,3.33,2.92a9.91,9.91,0,0,0,.17-4.91c-.43-1.54-1.24-3.26-2.56-3.79a12.91,12.91,0,0,1,.81,3.73c.57,2.25.91,2.32.78,2.62-.14,0-.88-1.18-1.79-2.08-1-1.08-2.39-1.32-3.29-1.95a12.1,12.1,0,0,0,2.55,3.46"/><path class="ay" d="M641.62,68.76a12,12,0,0,0,1.55-6.06c-.07-1.37-.75-4.56-1.72-5,.27,2.88-.5,3.15-.17,5.54,0,.13.31,2.62.31,2.76-.37-.07,0-2.29-4.61-5.48,1,1.75.5,2.28,2.32,4.6a7.93,7.93,0,0,1,2.32,3.67"/><path class="ay" d="M639.8,71a6.57,6.57,0,0,1,1,2.78c2.32-1.34,5-6.68,4-9.34-.57,2-1.45,2.45-2,4.14-1.07,2.52-.91,3.29-1.55,3.86a9.3,9.3,0,0,0-.77-4,20.11,20.11,0,0,0-1.61-2.69,6.42,6.42,0,0,0,1,5.25"/><path class="ay" d="M637.69,75.55a28.4,28.4,0,0,0,.57,4.47c4-1.31,6.08-5.88,6.08-8.14-1.24,2.76-3,2.72-5.34,6.63-.2-1.49.4-.38.47-3.16s-.67-3-.78-4.84c-.73.8-1,4-1,5"/><path class="ay" d="M634.36,81.36c-.3,1.51-.4,3.3-.64,4.61,2.25-.84,2.82-.21,5.54-1.92,1.25-.67,3.5-3.49,3.37-5.51-2.69,3-3.2,2.65-4.47,3.76s-2.22,2.42-3.1,2.22c-.06-.81,2-2.55,1.75-7.59a13.23,13.23,0,0,0-2.45,4.43"/><path class="ay" d="M629.82,85.13a14.87,14.87,0,0,1-2.35,3.52,20.21,20.21,0,0,0,4.77.95c1.11,0,5.14-1.08,6.48-3.84-2.31,1.25-2.35.95-5.44,1.62-2.22.5-3.76,1.21-4.4,1.14.13-.3,1.88-1,3-2.49s.9-3.36,2-4.67c-.74-.2-3.5,3-4.07,3.77"/><path class="ay" d="M612.34,94.6l-.67-.33a14.79,14.79,0,0,1,11.6-4.81c7.32.4,6.82,2.12,10.75,1.85.44,0-.33.54-.33.54a13.62,13.62,0,0,1-8.57-.14c-4.71-1.61-7.77-2.59-12.78,2.89"/><path class="ay" d="M623.94,94.6l.67-.33a14.64,14.64,0,0,0-11.56-4.81c-7.36.4-6.85,2.12-10.79,1.85-.43,0,.34.54.34.54a13.61,13.61,0,0,0,8.57-.14c4.73-1.61,7.8-2.59,12.77,2.89"/><path class="ay" d="M675.88,71.94c0,7-3.79,10.39-11.52,10.39S652.79,79,652.79,71.94V56.41h7.81V70.2c0,2.59,0,5.82,3.79,5.82s3.69-3.23,3.69-5.82V56.41h7.8Z"/></g><polygon class="ay" points="680.56 56.41 688.54 56.41 695.92 69.95 695.99 69.95 695.99 56.41 703.36 56.41 703.36 81.72 695.77 81.72 688.01 67.89 687.94 67.89 687.94 81.72 680.56 81.72 680.56 56.41"/><polygon class="ay" points="708.15 56.41 715.95 56.41 715.95 65.2 723.26 65.2 723.26 56.41 731.06 56.41 731.06 81.72 723.26 81.72 723.26 71.69 715.95 71.69 715.95 81.72 708.15 81.72 708.15 56.41"/><g class="b"><path class="ay" d="M751,65.84A4.07,4.07,0,0,0,747,62.12c-3.66,0-4.82,3.54-4.82,6.95s1.16,7,4.82,7c2.62,0,3.65-1.85,4.11-4.22h7.66c0,5.1-4.15,10.53-11.56,10.53-8.19,0-12.84-5.78-12.84-13.26,0-8,5-13.27,12.84-13.27,7,0,10.78,3.69,11.45,10Z"/><path class="ay" d="M762,81.72h7.8V72.9h4.16c3.08,0,3.29,2.51,3.5,4.93a18.37,18.37,0,0,0,.64,3.89h7.81c-.72-1.17-.75-4.18-.86-5.42-.28-3.16-1.59-5.5-3.72-6.31,2.59-1,3.8-3.73,3.8-6.35,0-4.79-3.84-7.23-8.27-7.23H762Zm7.8-19.29h3.66c3,0,3.86.92,3.86,2.52,0,2.27-2,2.52-3.44,2.52h-4.08Z"/></g><polygon class="ay" points="655.33 87.55 652.79 87.55 652.79 85.98 659.74 85.98 659.74 87.55 657.2 87.55 657.2 94.46 655.33 94.46 655.33 87.55"/><g class="b"><path class="ay" d="M660.32,86H662v3.19h0a2.17,2.17,0,0,1,1.8-1c1.79,0,2.25,1,2.25,2.53v3.78H664.4V91c0-1-.3-1.51-1.08-1.51S662,90,662,91.24v3.22h-1.69Z"/><path class="ay" d="M671.24,90.73c-.15-.86-.52-1.31-1.34-1.31a1.32,1.32,0,0,0-1.4,1.31ZM668.5,91.8c0,1.07.57,1.55,1.51,1.55a1.4,1.4,0,0,0,1.33-.79h1.48A2.76,2.76,0,0,1,670,94.63a3,3,0,0,1-3.14-3.24A3.08,3.08,0,0,1,670,88.15c2.09,0,3.1,1.76,3,3.65Z"/><path class="ay" d="M683.89,91.25c0,2.3-1.36,3.41-3.63,3.41s-3.61-1.1-3.61-3.41V86h1.87v5.27c0,.93.23,1.84,1.74,1.84,1.33,0,1.76-.58,1.76-1.84V86h1.87Z"/></g><polygon class="ay" points="685.13 85.98 686.99 85.98 690.53 91.67 690.55 91.67 690.55 85.98 692.3 85.98 692.3 94.46 690.43 94.46 686.9 88.78 686.88 88.78 686.88 94.46 685.13 94.46 685.13 85.98"/><g class="b"><path class="ay" d="M696.36,94.46h1.87V91.14h1.86c.94,0,1.29.4,1.42,1.29a9.36,9.36,0,0,0,.29,2h1.87a4.75,4.75,0,0,1-.36-2c-.06-.85-.32-1.74-1.23-2v0a2.08,2.08,0,0,0,1.34-2.12A2.33,2.33,0,0,0,700.94,86h-4.58Zm1.87-7h2c.83,0,1.29.35,1.29,1.17s-.46,1.21-1.29,1.21h-2Z"/><path class="ay" d="M710.37,91.8c.12-1.89-.89-3.65-3-3.65a3.08,3.08,0,0,0-3.14,3.24,3,3,0,0,0,3.14,3.24,2.77,2.77,0,0,0,2.88-2.07h-1.49a1.38,1.38,0,0,1-1.33.79c-.94,0-1.46-.48-1.51-1.55Zm-4.43-1.07a1.32,1.32,0,0,1,1.4-1.31c.82,0,1.19.45,1.35,1.31Z"/><path class="ay" d="M711.48,89.44h-1V88.32h1v-.48A1.8,1.8,0,0,1,713.54,86c.3,0,.61,0,.89,0v1.26a6.13,6.13,0,0,0-.62,0c-.45,0-.64.19-.64.7v.37h1.17v1.12h-1.17v5h-1.69Z"/><path class="ay" d="M720.62,94.46H719V93.6h0a2.2,2.2,0,0,1-1.88,1c-1.79,0-2.24-1-2.24-2.54V88.32h1.69v3.47c0,1,.29,1.51,1.08,1.51s1.3-.52,1.3-1.76V88.32h1.69Z"/><path class="ay" d="M727.55,88.32h-1.61v.82h0a1.9,1.9,0,0,0-1.83-1c-1.72,0-2.64,1.45-2.64,3s.79,3.09,2.63,3.09a2.09,2.09,0,0,0,1.84-1h0v.81c0,.88-.41,1.52-1.35,1.52a1.15,1.15,0,0,1-1.26-.84h-1.68c.09,1.4,1.5,2,2.71,2,2.83,0,3.19-1.71,3.19-2.72Zm-3,4.69c-1,0-1.37-1-1.37-1.84s.41-1.75,1.37-1.75,1.43.89,1.43,1.89a1.51,1.51,0,0,1-1.43,1.7"/><path class="ay" d="M734.51,91.8c.12-1.89-.89-3.65-3-3.65a3.08,3.08,0,0,0-3.14,3.24,3,3,0,0,0,3.14,3.24,2.76,2.76,0,0,0,2.87-2.07h-1.48a1.4,1.4,0,0,1-1.33.79c-.94,0-1.46-.48-1.51-1.55Zm-4.43-1.07a1.32,1.32,0,0,1,1.4-1.31c.82,0,1.19.45,1.34,1.31Z"/><path class="ay" d="M741.12,91.8c.11-1.89-.9-3.65-3-3.65A3.08,3.08,0,0,0,735,91.39a3,3,0,0,0,3.13,3.24A2.77,2.77,0,0,0,741,92.56h-1.49a1.37,1.37,0,0,1-1.33.79c-.94,0-1.46-.48-1.51-1.55Zm-4.44-1.07a1.34,1.34,0,0,1,1.41-1.31c.82,0,1.19.45,1.34,1.31Z"/></g><path class="ay" d="M744.69,94.46h1.89l.67-1.89h3.17l.64,1.89H753L749.83,86h-1.92Zm4.15-6.39h0l1.07,3.11h-2.2Z"/><g class="b"><path class="ay" d="M759.2,88.32h-1.6v.82h0a1.9,1.9,0,0,0-1.83-1c-1.72,0-2.64,1.45-2.64,3s.79,3.09,2.63,3.09a2.06,2.06,0,0,0,1.84-1h0v.81c0,.88-.42,1.52-1.36,1.52a1.15,1.15,0,0,1-1.26-.84h-1.67c.08,1.4,1.5,2,2.71,2,2.82,0,3.18-1.71,3.18-2.72Zm-3,4.69c-1,0-1.37-1-1.37-1.84s.42-1.75,1.37-1.75,1.44.89,1.44,1.89a1.52,1.52,0,0,1-1.44,1.7"/><path class="ay" d="M766.16,91.8c.12-1.89-.89-3.65-3-3.65A3.08,3.08,0,0,0,760,91.39a3,3,0,0,0,3.14,3.24,2.77,2.77,0,0,0,2.88-2.07h-1.49a1.38,1.38,0,0,1-1.33.79c-.94,0-1.46-.48-1.51-1.55Zm-4.43-1.07a1.33,1.33,0,0,1,1.4-1.31c.82,0,1.19.45,1.35,1.31Z"/><path class="ay" d="M766.9,88.32h1.6v.85h0a2.19,2.19,0,0,1,1.88-1c1.79,0,2.24,1,2.24,2.53v3.78H771V91c0-1-.29-1.51-1.08-1.51s-1.3.51-1.3,1.76v3.22H766.9Z"/><path class="ay" d="M777.87,90.48a1.16,1.16,0,0,0-1.25-1.06c-1.08,0-1.44,1.09-1.44,2s.35,1.93,1.4,1.93a1.28,1.28,0,0,0,1.34-1.24h1.63a2.74,2.74,0,0,1-2.95,2.52,3,3,0,0,1-3.11-3.15,3,3,0,0,1,3.14-3.33,2.61,2.61,0,0,1,2.89,2.33Z"/><path class="ay" d="M783.32,95.23a1.93,1.93,0,0,1-2.12,1.39,9,9,0,0,1-1-.06V95.17a6.42,6.42,0,0,0,1,.06.79.79,0,0,0,.58-1.15l-2.16-5.76h1.8l1.39,4.2h0l1.34-4.2h1.75Z"/></g></svg>