<svg xmlns="http://www.w3.org/2000/svg" viewBox="0 0 214.6 228.6"><defs><style>.a{fill:none;}.b{fill:#0072bc;}</style></defs><title>unhcr-visibility-vertical</title><rect class="a" width="214.6" height="228.6"/><path class="b" d="M56.87,169.69c0,8.14-4.4,12.05-13.37,12.05s-13.42-3.91-13.42-12.05v-18h9.05v16c0,3,0,6.75,4.41,6.75s4.28-3.75,4.28-6.75v-16h9v18"/><polygon class="b" points="62.3 151.66 71.56 151.66 80.12 167.38 80.2 167.38 80.2 151.66 88.76 151.66 88.76 181.04 79.95 181.04 70.94 165 70.86 165 70.86 181.04 62.3 181.04 62.3 151.66"/><polygon class="b" points="94.31 151.66 103.37 151.66 103.37 161.87 111.85 161.87 111.85 151.66 120.9 151.66 120.9 181.04 111.85 181.04 111.85 169.4 103.37 169.4 103.37 181.04 94.31 181.04 94.31 151.66"/><path class="b" d="M144.07,162.61a4.72,4.72,0,0,0-4.74-4.32c-4.24,0-5.59,4.11-5.59,8.06s1.35,8.07,5.59,8.07c3,0,4.24-2.14,4.78-4.9H153c0,5.93-4.81,12.22-13.41,12.22-9.51,0-14.9-6.7-14.9-15.39,0-9.26,5.85-15.39,14.9-15.39,8.06,0,12.51,4.28,13.29,11.65h-8.8"/><path class="b" d="M165.83,158.66h4.24c3.46,0,4.49,1.07,4.49,2.92,0,2.63-2.31,2.92-4,2.92h-4.74ZM156.78,181h9.05V170.8h4.82c3.58,0,3.82,2.92,4.07,5.72a21.12,21.12,0,0,0,.74,4.52h9.06c-.83-1.36-.87-4.85-1-6.29-.33-3.66-1.85-6.38-4.32-7.33,3-1.11,4.4-4.32,4.4-7.36,0-5.56-4.45-8.4-9.59-8.4H156.78V181"/><polygon class="b" points="33.03 187.8 30.07 187.8 30.07 185.97 38.14 185.97 38.14 187.8 35.19 187.8 35.19 195.82 33.03 195.82 33.03 187.8"/><path class="b" d="M38.82,186h2v3.7h0a2.52,2.52,0,0,1,2.09-1.18c2.08,0,2.6,1.17,2.6,2.94v4.38h-2v-4c0-1.17-.34-1.75-1.25-1.75s-1.51.6-1.51,2v3.74h-2V186"/><path class="b" d="M48.3,192.73c.06,1.24.66,1.81,1.75,1.81a1.61,1.61,0,0,0,1.55-.93h1.72A3.2,3.2,0,0,1,50,196a3.48,3.48,0,0,1-3.64-3.75A3.58,3.58,0,0,1,50,188.5c2.43,0,3.6,2,3.47,4.23Zm3.19-1.24c-.18-1-.61-1.52-1.56-1.52a1.55,1.55,0,0,0-1.63,1.52h3.19"/><path class="b" d="M66.16,192.1c0,2.66-1.57,4-4.21,4s-4.19-1.28-4.19-4V186h2.17v6.13c0,1.07.27,2.13,2,2.13,1.55,0,2-.67,2-2.13V186h2.17v6.13"/><polygon class="b" points="67.61 185.97 69.76 185.97 73.87 192.58 73.89 192.58 73.89 185.97 75.92 185.97 75.92 195.82 73.76 195.82 69.66 189.23 69.63 189.23 69.63 195.82 67.61 195.82 67.61 185.97"/><path class="b" d="M82.8,187.66h2.37c1,0,1.49.41,1.49,1.36s-.52,1.41-1.49,1.41H82.8Zm-2.16,8.16H82.8V192H85c1.08,0,1.49.46,1.64,1.49a11,11,0,0,0,.34,2.36h2.17a5.3,5.3,0,0,1-.42-2.33c-.07-1-.37-2-1.43-2.3v0a2.42,2.42,0,0,0,1.56-2.47A2.7,2.7,0,0,0,85.94,186h-5.3v9.84"/><path class="b" d="M91.75,191.49A1.54,1.54,0,0,1,93.38,190c1,0,1.38.53,1.56,1.52Zm5.14,1.24c.14-2.19-1-4.23-3.46-4.23a3.58,3.58,0,0,0-3.64,3.76A3.48,3.48,0,0,0,93.43,196a3.2,3.2,0,0,0,3.34-2.4H95.05a1.61,1.61,0,0,1-1.55.93c-1.09,0-1.7-.57-1.75-1.81h5.14"/><path class="b" d="M98.18,190H97v-1.31h1.17v-.55a2.1,2.1,0,0,1,2.39-2.16c.34,0,.7,0,1,.05v1.46c-.23,0-.47,0-.72,0-.52,0-.74.22-.74.81v.43h1.35V190h-1.35v5.82h-2V190"/><path class="b" d="M108.79,195.82h-1.87v-1h0A2.54,2.54,0,0,1,104.7,196c-2.08,0-2.6-1.17-2.6-2.93v-4.39h2v4c0,1.17.34,1.75,1.25,1.75,1.06,0,1.52-.59,1.52-2v-3.74h2v7.13"/><path class="b" d="M113.29,194.14c-1.2,0-1.58-1.12-1.58-2.14s.48-2,1.58-2c1.27,0,1.67,1,1.67,2.2a1.75,1.75,0,0,1-1.67,2m3.53-5.45H115v.95h0a2.22,2.22,0,0,0-2.12-1.14c-2,0-3.06,1.68-3.06,3.53s.91,3.58,3,3.58a2.4,2.4,0,0,0,2.13-1.1h0v.94c0,1-.48,1.76-1.57,1.76a1.32,1.32,0,0,1-1.46-1h-2c.1,1.63,1.74,2.29,3.15,2.29,3.28,0,3.69-2,3.69-3.16v-6.67"/><path class="b" d="M119.76,191.49a1.54,1.54,0,0,1,1.63-1.52c1,0,1.37.53,1.55,1.52Zm5.14,1.24c.14-2.19-1-4.23-3.46-4.23a3.58,3.58,0,0,0-3.64,3.76,3.48,3.48,0,0,0,3.64,3.75,3.2,3.2,0,0,0,3.34-2.4h-1.73a1.59,1.59,0,0,1-1.54.93c-1.09,0-1.7-.57-1.75-1.81h5.14"/><path class="b" d="M127.42,191.49a1.55,1.55,0,0,1,1.63-1.52c.95,0,1.38.53,1.56,1.52Zm5.15,1.24c.13-2.19-1-4.23-3.46-4.23a3.57,3.57,0,0,0-3.64,3.76,3.48,3.48,0,0,0,3.64,3.75,3.19,3.19,0,0,0,3.33-2.4h-1.72a1.6,1.6,0,0,1-1.55.93c-1.08,0-1.69-.57-1.75-1.81h5.15"/><path class="b" d="M141.53,188.4h0L142.8,192h-2.55Zm-4.81,7.42h2.19l.77-2.19h3.68l.75,2.19h2.25L142.67,186h-2.22Z"/><path class="b" d="M150,194.14c-1.2,0-1.58-1.12-1.58-2.14s.48-2,1.58-2c1.27,0,1.67,1,1.67,2.2a1.75,1.75,0,0,1-1.67,2m3.53-5.45h-1.86v.95h0a2.22,2.22,0,0,0-2.12-1.14c-2,0-3.06,1.68-3.06,3.53s.91,3.58,3,3.58a2.41,2.41,0,0,0,2.14-1.1h0v.94c0,1-.48,1.76-1.57,1.76a1.32,1.32,0,0,1-1.46-1h-1.95c.1,1.63,1.74,2.29,3.15,2.29,3.28,0,3.69-2,3.69-3.16v-6.67"/><path class="b" d="M156.49,191.49a1.53,1.53,0,0,1,1.62-1.52c1,0,1.38.53,1.56,1.52Zm5.14,1.24c.14-2.19-1-4.23-3.46-4.23a3.57,3.57,0,0,0-3.64,3.76,3.48,3.48,0,0,0,3.64,3.75,3.2,3.2,0,0,0,3.34-2.4h-1.73a1.6,1.6,0,0,1-1.54.93c-1.09,0-1.7-.57-1.75-1.81h5.14"/><path class="b" d="M162.48,188.69h1.87v1h0a2.53,2.53,0,0,1,2.18-1.18c2.08,0,2.6,1.17,2.6,2.94v4.38h-2v-4c0-1.17-.34-1.75-1.25-1.75-1.06,0-1.52.6-1.52,2v3.74h-2v-7.13"/><path class="b" d="M175.21,191.2a1.33,1.33,0,0,0-1.45-1.23c-1.25,0-1.67,1.27-1.67,2.32s.4,2.25,1.63,2.25a1.51,1.51,0,0,0,1.56-1.45h1.89a3.18,3.18,0,0,1-3.43,2.92,3.45,3.45,0,0,1-3.6-3.65,3.52,3.52,0,0,1,3.64-3.86c1.68,0,3.22.88,3.35,2.7h-1.92"/><path class="b" d="M181.54,196.71a2.24,2.24,0,0,1-2.46,1.62c-.4,0-.79,0-1.2-.07v-1.61a10.93,10.93,0,0,0,1.15.06.91.91,0,0,0,.67-1.33l-2.5-6.69h2.09l1.62,4.88h0l1.56-4.88h2l-3,8"/><path class="b" d="M111.22,110c1.4,0,1.22-.79,1.22-2.27v-7.19c0-1.48-.15-2,.7-2,3,0,3.78-.27,3.78-2.91V69c0-7.27-5.15-6.07-6.61-8.73-2.06-3.59,3.86-3.59,1.71-11.37-.55-1.76-1.93-2.86-4.61-2.86s-4.06,1.1-4.62,2.86c-2.14,7.78,3.79,7.78,1.72,11.37-1.46,2.66-6.61,1.46-6.61,8.73V95.7c0,2.64.81,2.91,3.78,2.91.84,0,.7.47.7,2v7.19c0,1.48-.17,2.27,1.23,2.27h7.61"/><path class="b" d="M87.75,52.1c-2.64,2.8-6.81,9.32-4.09,14.74,5.53,2.12,5.11-17.45,12-17.11,3.4,3.14-1,12.37-2.38,16.44-1.71,5-3.06,15.5-6.3,20.58-2.71,4.23-.68,17.53-1.53,22.1-2.29,2.29-8.51.68-11.14.26,0-5.25-.68-9.4-1.53-17.79-.09-1.69-1.88-27.61-.43-30.75,3-6.52,19.22-19,21.44-21.34,1.95-2.12,8.84-9.15,11.48-9.15,1.87,1.27.76,4.23.34,5.42-2.64,6.52-14,13-17.86,16.6"/><path class="b" d="M127.38,52.1c2.55,2.8,6.72,9.32,4.08,14.74-5.61,2.12-5.18-17.45-12.07-17.11-3.32,3.14,1.1,12.37,2.46,16.44,1.71,5,3.07,15.5,6.3,20.58,2.64,4.23.67,17.53,1.44,22.1,2.38,2.29,8.51.68,11.22.26,0-5.25.6-9.4,1.45-17.79.18-1.69,2-27.61.52-30.75-3-6.52-19.22-19-21.43-21.34-2-2.12-8.85-9.15-11.49-9.15-2,1.27-.76,4.23-.34,5.42,2.64,6.52,14,13,17.86,16.6"/><path class="b" d="M64.12,43.32c-1.45,1.36-4.69,2.29-6.91,5.26-.85-1.61,1.36-5.51,4-7.81,2-1.61,5.8-4.24,6.91-4.49.85,1.95-2.21,4.92-4,7"/><path class="b" d="M59.6,53.93c-2.47,2.29-5.11,3.23-8.53,7.38a25,25,0,0,1-.42-12.39c1.19-3.9,3.15-8.23,6.48-9.59a36.86,36.86,0,0,0-2.05,9.42c-1.45,5.69-2.3,5.86-2,6.62.34,0,2.22-3,4.52-5.26,2.73-2.71,6.13-3.31,8.35-4.92-.34,1.1-2.3,4.58-6.39,8.74"/><path class="b" d="M47.58,77.44c-3.32-5.94-3.66-10.27-3.92-15.28.17-3.48,1.88-11.54,4.43-12.73-.76,7.3,1.2,8,.43,14,0,.34-.86,6.62-.86,7,1-.17.09-5.77,11.77-13.83-2.56,4.42-1.37,5.77-6,11.63-5.38,5.26-6.14,10.44-5.89,9.25"/><path class="b" d="M52.27,83c-2.47,3.56-2.05,5.35-2.64,7C43.74,86.69,37.1,73.19,39.57,66.49c1.53,5.09,3.66,6.2,5.2,10.44,2.64,6.37,2.22,8.32,3.92,9.76-.34-3.31.77-7.21,1.88-10.1,1.62-2.46,2.9-5.69,4.09-6.79,1.28,4.67.34,8.49-2.39,13.24"/><path class="b" d="M57.55,94.58c0,5.18-.94,7.47-1.36,11.29C46.05,102.56,40.76,91,40.76,85.33c3.07,7,7.59,6.88,13.47,16.72.51-3.73-1-.93-1.19-8,.17-7.38,1.7-7.64,2-12.22,1.87,2,2.55,10.19,2.55,12.73"/><path class="b" d="M66,109.26c.77,3.82,1.11,8.32,1.7,11.63-5.79-2.12-7.24-.51-14.14-4.83-3.16-1.7-8.78-8.83-8.44-13.93,6.82,7.56,8,6.71,11.34,9.51,3.06,2.46,5.53,6.11,7.75,5.6.17-2-5-6.45-4.34-19.18,1.35,1.44,5.1,7.21,6.13,11.2"/><path class="b" d="M77.49,118.77c1.8,2.55,1.37,3.65,6,8.91a50.29,50.29,0,0,1-12,2.38c-2.89,0-13.12-2.72-16.52-9.68,5.87,3.15,6,2.38,13.8,4.08,5.63,1.27,9.63,3.05,11.16,2.88-.33-.76-4.68-2.55-7.66-6.28-3-4-2.31-8.49-5-11.8,1.79-.51,8.78,7.64,10.22,9.51"/><path class="b" d="M150.53,43.32c1.37,1.36,4.69,2.29,6.82,5.26.94-1.61-1.36-5.51-4-7.81-1.87-1.61-5.71-4.24-6.91-4.49-.85,1.95,2.22,4.92,4.09,7"/><path class="b" d="M155.05,53.93c2.39,2.29,5,3.23,8.44,7.38a24.89,24.89,0,0,0,.43-12.39c-1.11-3.9-3.16-8.23-6.48-9.59a33.06,33.06,0,0,1,2,9.42c1.45,5.69,2.31,5.86,2,6.62-.34,0-2.21-3-4.51-5.26-2.65-2.71-6.06-3.31-8.36-4.92.35,1.1,2.39,4.58,6.48,8.74"/><path class="b" d="M167,77.44c3.4-5.94,3.66-10.27,3.92-15.28-.18-3.48-1.88-11.54-4.35-12.73.68,7.3-1.28,8-.43,14,0,.34.77,6.62.77,7-.94-.17-.09-5.77-11.68-13.83,2.47,4.42,1.28,5.77,5.88,11.63,5.46,5.26,6.14,10.44,5.89,9.25"/><path class="b" d="M162.38,83c2.39,3.56,2,5.35,2.56,7,5.88-3.39,12.61-16.89,10.06-23.59-1.45,5.09-3.67,6.2-5.12,10.44-2.73,6.37-2.3,8.32-3.92,9.76.34-3.31-.85-7.21-2-10.1-1.53-2.46-2.9-5.69-4.09-6.79-1.2,4.67-.34,8.49,2.47,13.24"/><path class="b" d="M157,94.58c0,5.18,1,7.47,1.45,11.29,10.06-3.31,15.43-14.85,15.43-20.54-3.16,7-7.59,6.88-13.55,16.72-.51-3.73,1-.93,1.19-8-.17-7.38-1.7-7.64-2-12.22C157.69,83.89,157,92,157,94.58"/><path class="b" d="M148.57,109.26c-.76,3.82-1,8.32-1.62,11.63,5.72-2.12,7.16-.51,14.07-4.83,3.15-1.7,8.86-8.83,8.52-13.93-6.82,7.56-8.1,6.71-11.33,9.51-3.07,2.46-5.63,6.11-7.85,5.6-.17-2,5-6.45,4.44-19.18a33.91,33.91,0,0,0-6.23,11.2"/><path class="b" d="M137.07,118.77c-1.7,2.55-1.29,3.65-6,8.91a51.16,51.16,0,0,0,12.1,2.38c2.82,0,13-2.72,16.45-9.68-5.87,3.15-6,2.38-13.8,4.08-5.63,1.27-9.55,3.05-11.16,2.88.33-.76,4.77-2.55,7.66-6.28,3-4,2.3-8.49,5-11.8-1.87-.51-8.86,7.64-10.31,9.51"/><path class="b" d="M92.75,142.7l-1.7-.85a37.48,37.48,0,0,1,29.41-12.13c18.57,1,17.29,5.35,27.26,4.67,1.11-.09-.85,1.35-.85,1.35a34.54,34.54,0,0,1-21.73-.34c-11.93-4.07-19.69-6.53-32.39,7.3"/><path class="b" d="M122.15,142.7l1.71-.85a37.2,37.2,0,0,0-29.32-12.13c-18.66,1-17.38,5.35-27.36,4.67-1.1-.09.86,1.35.86,1.35a34.56,34.56,0,0,0,21.74-.34c12-4.07,19.76-6.53,32.37,7.3"/></svg>